SplineFontDB: 1.0
FontName: Kinnari-BoldItalic
FullName: Kinnari Bold Italic
FamilyName: Kinnari
Weight: Bold
Copyright: KinnariBoldItalic by TLWG, based on Kinnari Bold and Norasi Bold Italic
Version: 001.000
ItalicAngle: -12
UnderlinePosition: -70
UnderlineWidth: 25
Ascent: 800
Descent: 200
NeedsXUIDChange: 1
FSType: 0
PfmFamily: 17
TTFWeight: 700
TTFWidth: 5
Panose: 0 0 0 0 0 0 0 0 0 0
LineGap: 138
VLineGap: 0
OS2WinAscent: 0
OS2WinAOffset: 1
OS2WinDescent: 0
OS2WinDOffset: 1
HheadAscent: 0
HheadAOffset: 1
HheadDescent: 0
HheadDOffset: 1
ScriptLang: 5
 1 DFLT 1 dflt 
 1 thai 4 KUY  PAL  THA  dflt 
 1 latn 1 dflt 
 1 thai 1 dflt 
 1 thai 1 PAL  
ContextSub: glyph 0 4 ' RQD' 0 0 0 1
 String: 15 uni0E0D uni0E10
 BString: 0 
 FString: 0 
 1
  SeqLookup: 0 'nds0'
EndFPST
ChainSub: coverage 0 1 'ccmp' 0 0 0 1
 2 0 0
  Coverage: 19 uni0E4B uni0E4B.low
  Coverage: 7 uni0E4D
 2
  SeqLookup: 0 'amni'
  SeqLookup: 1 'G006'
EndFPST
ChainSub: coverage 0 1 'ccmp' 0 0 0 1
 2 0 0
  Coverage: 19 uni0E4A uni0E4A.low
  Coverage: 7 uni0E4D
 2
  SeqLookup: 0 'amni'
  SeqLookup: 1 'G005'
EndFPST
ChainSub: coverage 0 1 'ccmp' 0 0 0 1
 2 0 0
  Coverage: 19 uni0E49 uni0E49.low
  Coverage: 7 uni0E4D
 2
  SeqLookup: 0 'amni'
  SeqLookup: 1 'G004'
EndFPST
ChainSub: coverage 0 1 'ccmp' 0 0 0 1
 2 0 0
  Coverage: 19 uni0E48 uni0E48.low
  Coverage: 7 uni0E4D
 2
  SeqLookup: 0 'amni'
  SeqLookup: 1 'G003'
EndFPST
ChainSub: coverage 0 1 'ccmp' 0 0 0 1
 1 0 1
  Coverage: 15 uni0E0D uni0E10
  FCoverage: 23 uni0E38 uni0E39 uni0E3A
 1
  SeqLookup: 0 'ndsc'
EndFPST
ChainSub: coverage 0 1 'ccmp' 0 0 0 1
 1 2 0
  Coverage: 39 uni0E48 uni0E49 uni0E4A uni0E4B uni0E4C
  BCoverage: 23 uni0E38 uni0E39 uni0E3A

StartChar: .notdef
Encoding: 0 -1 0
Width: 384
Flags: W
HStem: 0 23<28 384> 568 23<126 482>
DStem: 126 591 144 568 0 0 28 23 482 568 510 591 366 23 384 0
Fore
144 568 m 1
 28 23 l 1
 366 23 l 1
 482 568 l 1
 144 568 l 1
384 0 m 1
 0 0 l 1
 126 591 l 1
 510 591 l 1
 384 0 l 1
EndSplineSet
EndChar
StartChar: exclam
Encoding: 33 33 2
Width: 388
Flags: HW
HStem: -13 146<130 148>
Fore
196 204 m 1
 167 212 l 1
 196 368 215 486 220 565 c 0
 223 609 224 620 231 639 c 0
 246 666 270 684 300 684 c 0
 341 684 371 655 371 611 c 0
 371 584 365 568 338 521 c 1
 283 412 237 312 196 204 c 1
141 133 m 0
 179 133 212 97 212 59 c 0
 212 19 180 -13 139 -13 c 0
 98 -13 67 18 67 59 c 0
 67 100 100 133 141 133 c 0
EndSplineSet
EndChar
StartChar: quotedbl
Encoding: 34 34 3
Width: 553
Flags: HW
Fore
177 398 m 1
 136 398 l 1
 152 612 l 1
 155 650 192 686 230 686 c 0
 256 686 275 664 275 636 c 0
 275 623 275 620 261 589 c 2
 259 584 l 1
 177 398 l 1
437 398 m 1
 395 398 l 1
 412 612 l 1
 415 650 453 686 491 686 c 0
 516 686 536 664 536 636 c 0
 536 623 535 620 521 589 c 2
 519 584 l 1
 437 398 l 1
EndSplineSet
EndChar
StartChar: numbersign
Encoding: 35 35 4
Width: 499
Flags: HW
HStem: 0 21G<-22 56 168 248> 209 74<-14 63 171 253 362 429> 417 74<69 146 253 338 445 513>
DStem: 63 209 141 209 -22 0 56 0 146 417 226 417 92 283 171 283 253 209 333 209 168 0 248 0 264 700 340 700 176 491 253 491 338 417 416 417 284 283 362 283 454 700 532 700 368 491 445 491
Fore
450 283 m 1
 429 209 l 1
 333 209 l 1
 248 0 l 1
 168 0 l 1
 253 209 l 1
 141 209 l 1
 56 0 l 1
 -22 0 l 1
 63 209 l 1
 -34 209 l 1
 -13 283 l 1
 92 283 l 1
 146 417 l 1
 51 417 l 1
 70 491 l 1
 176 491 l 1
 264 700 l 1
 340 700 l 1
 253 491 l 1
 368 491 l 1
 454 700 l 1
 532 700 l 1
 445 491 l 1
 533 491 l 1
 513 417 l 1
 416 417 l 1
 362 283 l 1
 450 283 l 1
338 417 m 1
 226 417 l 1
 171 283 l 1
 284 283 l 1
 338 417 l 1
EndSplineSet
EndChar
StartChar: dollar
Encoding: 36 36 5
Width: 499
Flags: HW
HStem: 0 32<186 213> 637 32<273 303>
VStem: 79 100<488 542> 324 108<157 201>
DStem: 127 7 179 0 98 -100 149 -100 211 303 253 274 138 42 186 32 303 636 352 625 248 437 291 410 331 732 381 732 313 668 360 661
Fore
497 598 m 1
 456 464 l 1
 434 470 l 1
 435 480 435 494 435 499 c 0
 435 568 412 605 352 625 c 1
 291 410 l 1
 353 357 372 338 395 308 c 0
 419 277 432 237 432 201 c 0
 432 86 331 0 201 0 c 2
 179 0 l 1
 149 -100 l 1
 98 -100 l 1
 127 7 l 1
 64 22 34 40 -21 86 c 1
 22 229 l 1
 44 223 l 1
 47 114 67 75 138 42 c 1
 211 303 l 1
 105 384 79 420 79 488 c 0
 79 590 164 669 275 669 c 0
 283 669 291 669 313 668 c 1
 331 732 l 1
 381 732 l 1
 360 661 l 1
 394 655 441 636 479 612 c 1
 497 598 l 1
248 437 m 1
 303 636 l 1
 297 637 294 637 289 637 c 0
 223 637 179 599 179 542 c 0
 179 502 195 476 248 437 c 1
253 274 m 1
 186 32 l 1
 221 32 230 34 248 40 c 0
 294 57 324 101 324 157 c 0
 324 204 308 230 253 274 c 1
EndSplineSet
EndChar
StartChar: percent
Encoding: 37 37 6
Width: 832
Flags: HW
HStem: -10 47<583 617> 294 46<168 202> 584 39<421 441>
VStem: 347 34<565 590> 759 33<245 263>
DStem: 543 612 645 691 193 -7 250 -7
Fore
677 376 m 0
 746 376 792 330 792 261 c 0
 792 185 760 101 706 44 c 0
 674 10 628 -10 583 -10 c 0
 502 -10 450 45 450 127 c 0
 450 192 485 265 539 316 c 0
 582 356 627 376 677 376 c 0
707 325 m 0
 684 327 658 308 636 272 c 0
 605 230 570 138 567 92 c 0
 565 62 587 37 617 37 c 0
 653 37 688 64 718 119 c 0
 746 168 759 214 759 256 c 0
 759 294 738 324 707 325 c 0
193 -7 m 1
 543 612 l 1
 499 595 461 584 423 584 c 0
 415 584 401 587 381 590 c 1
 379 501 363 444 319 382 c 0
 281 325 229 294 168 294 c 0
 92 294 40 352 40 431 c 0
 40 555 151 680 264 680 c 0
 291 680 311 672 340 650 c 0
 368 631 394 623 437 623 c 0
 499 623 549 643 605 691 c 1
 645 691 l 1
 250 -7 l 1
 193 -7 l 1
287 631 m 0
 270 633 246 612 224 582 c 0
 190 532 157 441 154 394 c 0
 152 363 173 340 202 340 c 0
 272 340 347 463 347 577 c 0
 347 599 346 601 318 612 c 0
 311 615 311 615 302 623 c 0
 294 628 291 630 287 631 c 0
EndSplineSet
EndChar
StartChar: ampersand
Encoding: 38 38 7
Width: 777
Flags: HW
HStem: -19 72<198 265> -18 80<529 596> 335 25<479 487.4> 649 34<413 427>
VStem: 4 134<148 190> 234 120<476 530> 478 79<566 582>
Fore
672 101 m 1x7e
 699 81 l 1
 639 7 595 -18 529 -18 c 0x7e
 476 -18 435 0 390 44 c 1
 324 -1 268 -19 198 -19 c 0xbe
 83 -19 4 48 4 148 c 0
 4 193 26 242 63 280 c 0
 97 316 129 334 245 384 c 1
 237 429 234 453 234 476 c 0
 234 598 309 683 419 683 c 0
 499 683 557 634 557 568 c 0
 557 501 499 445 375 395 c 1
 387 322 420 234 461 168 c 1
 519 242 535 270 535 297 c 0
 535 319 521 330 479 335 c 1
 479 360 l 1
 691 360 l 1
 691 335 l 1
 628 324 624 319 486 133 c 1
 524 82 557 62 596 62 c 0
 623 62 645 72 672 101 c 1x7e
253 343 m 1
 168 302 138 261 138 190 c 0
 138 111 193 53 265 53 c 0xbe
 296 53 322 60 362 81 c 1
 306 167 278 231 253 343 c 1
366 434 m 1
 403 456 403 456 415 464 c 0
 453 495 478 538 478 582 c 0
 478 624 458 649 425 649 c 0
 379 649 354 606 354 530 c 0
 354 505 357 488 366 434 c 1
EndSplineSet
EndChar
StartChar: quotesingle
Encoding: 39 39 8
Width: 276
Flags: HW
Fore
168 398 m 1
 127 398 l 1
 144 612 l 1
 146 650 185 686 223 686 c 0
 252 686 268 658 268 637 c 0
 268 620 259 602 250 584 c 2
 168 398 l 1
EndSplineSet
EndChar
StartChar: parenleft
Encoding: 40 40 9
Width: 332
Flags: HW
VStem: 28 94<110 207>
Fore
327 686 m 1
 344 665 l 1
 264 590 226 543 190 461 c 0
 146 366 122 237 122 110 c 0
 122 -6 138 -67 193 -164 c 1
 170 -179 l 1
 69 -41 28 70 28 207 c 0
 28 278 41 344 67 404 c 0
 114 508 174 573 327 686 c 1
EndSplineSet
EndChar
StartChar: parenright
Encoding: 41 41 10
Width: 332
Flags: HW
VStem: 177 94<299 398>
Fore
-26 -179 m 1
 -44 -160 l 1
 32 -89 63 -51 95 15 c 0
 145 114 177 267 177 398 c 0
 177 513 160 580 105 669 c 1
 127 686 l 1
 180 614 201 580 224 524 c 0
 255 450 271 372 271 299 c 0
 271 202 245 114 192 34 c 0
 141 -47 89 -95 -26 -179 c 1
EndSplineSet
EndChar
StartChar: asterisk
Encoding: 42 42 11
Width: 499
Flags: HW
HStem: 334 105<116 144 376 406> 497 106<114 144 376 407>
VStem: 253 15<442 454 482 510>
Fore
253 482 m 1
 253 494 l 2
 253 527 246 552 227 584 c 0
 214 606 209 618 209 633 c 0
 209 664 230 686 261 686 c 0
 291 686 311 664 311 633 c 0
 311 618 308 606 294 584 c 0
 275 552 268 527 268 494 c 2
 268 482 l 1
 278 488 l 2
 308 505 319 517 344 555 c 0
 365 590 382 603 407 603 c 0
 432 603 456 577 456 548 c 0
 456 533 447 519 431 508 c 0
 416 499 406 497 376 497 c 0
 333 497 319 494 287 475 c 2
 275 469 l 1
 287 461 l 2
 319 442 331 441 376 439 c 0
 406 439 417 437 431 429 c 0
 445 420 456 403 456 388 c 0
 456 359 434 334 406 334 c 0
 381 334 365 346 344 382 c 0
 322 417 312 428 278 448 c 2
 268 454 l 1
 268 442 l 2
 268 410 275 387 294 353 c 0
 306 331 311 318 311 303 c 0
 311 272 291 252 261 252 c 0
 230 252 209 272 209 305 c 0
 209 318 215 331 227 353 c 0
 246 387 253 410 253 442 c 2
 253 454 l 1
 242 448 l 2
 209 428 199 417 177 382 c 0
 157 346 141 334 116 334 c 0
 88 334 64 359 64 388 c 0
 64 403 75 420 91 429 c 0
 103 437 116 439 144 439 c 0
 190 441 201 442 234 461 c 2
 245 469 l 1
 234 475 l 2
 201 494 187 497 144 497 c 0
 116 497 105 499 91 508 c 0
 75 519 64 532 64 549 c 0
 64 577 89 603 114 603 c 0
 138 603 155 590 177 555 c 0
 201 517 212 505 242 488 c 2
 253 482 l 1
EndSplineSet
EndChar
StartChar: plus
Encoding: 43 43 12
Width: 569
Flags: HW
HStem: 0 21G<242 330> 209 88<34 242 330 538>
VStem: 242 88<0 209 297 505>
Fore
242 297 m 1
 242 505 l 1
 330 505 l 1
 330 297 l 1
 538 297 l 1
 538 209 l 1
 330 209 l 1
 330 0 l 1
 242 0 l 1
 242 209 l 1
 34 209 l 1
 34 297 l 1
 242 297 l 1
EndSplineSet
EndChar
StartChar: comma
Encoding: 44 44 13
Width: 249
Flags: HW
Fore
-47 -182 m 1
 -60 -158 l 1
 18 -116 59 -78 59 -41 c 0
 59 -26 51 -18 28 -1 c 0
 -1 18 -12 34 -12 62 c 0
 -12 103 18 133 59 133 c 0
 110 133 144 95 144 37 c 0
 144 -45 67 -130 -47 -182 c 1
EndSplineSet
EndChar
StartChar: hyphen
Encoding: 45 45 14
Width: 332
Flags: HW
HStem: 166 117<25 248>
Fore
271 283 m 1
 248 166 l 1
 1 166 l 1
 26 283 l 1
 271 283 l 1
EndSplineSet
EndChar
StartChar: period
Encoding: 46 46 15
Width: 249
Flags: HW
HStem: -13 21G<43.5 84.5>
Fore
66 135 m 0
 105 135 139 101 139 62 c 0
 139 19 105 -13 64 -13 c 0
 23 -13 -9 19 -9 60 c 0
 -9 103 23 135 66 135 c 0
EndSplineSet
EndChar
StartChar: slash
Encoding: 47 47 16
Width: 276
Flags: HW
DStem: 255 686 341 686 -64 -18 23 -18
Fore
255 686 m 1
 341 686 l 1
 23 -18 l 1
 -64 -18 l 1
 255 686 l 1
EndSplineSet
EndChar
StartChar: zero
Encoding: 48 48 17
Width: 499
Flags: HW
HStem: -15 30<161 179> 653 30<321 329>
VStem: 18 102<81 207> 374 104<442 582>
Fore
327 683 m 0
 417 683 478 587 478 442 c 0
 478 286 398 104 297 29 c 0
 259 0 220 -15 177 -15 c 0
 81 -15 18 73 18 207 c 0
 18 354 79 516 171 611 c 0
 217 658 272 683 327 683 c 0
325 653 m 0
 289 653 261 614 223 510 c 0
 176 379 120 145 120 81 c 0
 120 41 141 15 170 15 c 0
 211 15 240 53 272 149 c 0
 296 215 346 409 362 494 c 0
 371 532 374 562 374 582 c 0
 374 627 356 653 325 653 c 0
EndSplineSet
EndChar
StartChar: one
Encoding: 49 49 18
Width: 499
Flags: HW
HStem: 0 23<4 30.6389 350 350>
DStem: 252 557 419 683 125 97 265 123
Fore
4 0 m 1
 4 23 l 1
 78 23 107 42 125 97 c 1
 252 557 l 1
 253 565 256 574 256 580 c 0
 256 602 242 612 209 612 c 0
 190 612 174 612 146 608 c 1
 149 631 l 1
 265 647 328 661 419 683 c 1
 265 123 l 2
 253 83 253 78 253 69 c 0
 253 32 271 23 350 23 c 1
 350 0 l 1
 4 0 l 1
EndSplineSet
MinimumDistance: x8,1 
EndChar
StartChar: two
Encoding: 50 50 19
Width: 499
Flags: HW
HStem: 0 111<105 340> 593 90<220 281>
VStem: 312 133<483 516>
Fore
419 190 m 1
 340 0 l 1
 -26 0 l 1
 -26 23 l 1
 3 53 34 83 63 114 c 1
 250 300 312 393 312 483 c 0
 312 552 277 593 220 593 c 0
 167 593 126 565 86 507 c 1
 64 519 l 1
 92 573 108 598 138 623 c 0
 182 664 229 683 281 683 c 0
 374 683 445 609 445 516 c 0
 445 439 395 357 302 278 c 2
 105 111 l 1
 255 111 l 2
 333 111 356 125 394 190 c 1
 419 190 l 1
EndSplineSet
EndChar
StartChar: three
Encoding: 51 51 20
Width: 499
Flags: HW
HStem: -13 39<119 174> 612 71<234 300>
VStem: 286 123<189 250> 321 129<521 546>
Fore
127 347 m 1xe0
 132 369 l 1
 261 395 321 445 321 521 c 0
 321 577 287 612 234 612 c 0
 187 612 160 595 119 538 c 1
 97 549 l 1
 160 643 220 683 300 683 c 0
 387 683 450 625 450 546 c 0xd0
 450 486 415 438 343 403 c 2
 331 397 l 1
 388 354 409 316 409 250 c 0
 409 104 278 -13 119 -13 c 0
 37 -13 -15 18 -15 67 c 0
 -15 101 9 123 45 123 c 0
 70 123 86 111 110 78 c 0
 127 53 133 42 135 41 c 0
 144 34 160 26 174 26 c 0
 236 26 286 100 286 189 c 0
 286 256 261 305 212 328 c 0
 189 341 170 346 127 347 c 1xe0
EndSplineSet
EndChar
StartChar: four
Encoding: 52 52 21
Width: 499
Flags: HW
HStem: 0 248<53 316> 149 99<53 229 384 426>
DStem: 229 149 357 149 187 0 316 0 335 527 502 683 256 248 384 248 439 683 335 527 13 255 53 248
Fore
453 248 m 1x40
 426 149 l 1
 357 149 l 1x40
 316 0 l 1
 187 0 l 1x80
 229 149 l 1
 -15 149 l 1
 13 255 l 1
 439 683 l 1
 502 683 l 1
 384 248 l 1
 453 248 l 1x40
53 248 m 1x80
 256 248 l 1
 335 527 l 1
 53 248 l 1x80
EndSplineSet
EndChar
StartChar: five
Encoding: 53 53 22
Width: 499
Flags: HW
HStem: -13 39<120 173> 560 109<203 451>
VStem: 308 104<189 250>
DStem: 204 669 196 560 73 372 163 483
Fore
196 560 m 1
 163 483 l 1
 255 464 283 456 316 434 c 0
 378 393 412 328 412 250 c 0
 412 103 284 -13 120 -13 c 0
 41 -13 -12 19 -12 66 c 0
 -12 100 15 123 48 123 c 0
 78 123 95 110 119 70 c 0
 141 37 152 26 173 26 c 0
 243 26 308 104 308 189 c 0
 308 253 271 311 209 341 c 0
 171 362 139 369 73 372 c 1
 204 669 l 1
 486 669 l 1
 451 560 l 1
 196 560 l 1
EndSplineSet
EndChar
StartChar: six
Encoding: 54 54 23
Width: 499
Flags: HW
HStem: -15 33<182 200> 382 40<250 293>
VStem: 23 112<95 195> 319 123<250 315>
Fore
502 680 m 1
 508 655 l 1
 374 603 291 530 231 409 c 1
 261 419 272 422 293 422 c 0
 387 422 442 357 442 250 c 0
 442 103 334 -15 196 -15 c 0
 88 -15 23 64 23 195 c 0
 23 335 98 475 224 568 c 0
 305 628 369 653 502 680 c 1
250 382 m 0
 220 382 209 374 189 319 c 0
 157 237 135 148 135 95 c 0
 135 42 152 18 190 18 c 0
 215 18 237 32 250 56 c 0
 284 119 319 253 319 315 c 0
 319 360 297 382 250 382 c 0
EndSplineSet
EndChar
StartChar: seven
Encoding: 55 55 24
Width: 499
Flags: HW
HStem: 0 21G<53 144> 557 112<144 384>
Fore
83 479 m 1
 57 479 l 1
 144 669 l 1
 524 669 l 1
 144 0 l 1
 53 0 l 1
 384 557 l 1
 250 557 l 2
 146 557 120 543 83 479 c 1
EndSplineSet
EndChar
StartChar: eight
Encoding: 56 56 25
Width: 499
Flags: HW
HStem: -13 31<183 211> 650 33<290 313>
VStem: 3 97<139 154> 108 112<499 554> 306 113<146 193> 382 94<530 556>
Fore
333 381 m 1xf4
 333 376 l 1
 394 309 419 256 419 193 c 0xf8
 419 75 325 -13 196 -13 c 0
 82 -13 3 54 3 152 c 0
 3 237 59 296 183 340 c 1
 183 346 l 1
 127 404 108 441 108 499 c 0
 108 605 190 683 300 683 c 0
 354 683 409 662 442 628 c 0
 464 605 476 576 476 541 c 0
 476 469 437 425 333 381 c 1xf4
209 321 m 1
 193 311 193 311 190 308 c 0
 129 262 100 209 100 141 c 0
 100 64 138 18 199 18 c 0
 261 18 306 72 306 146 c 0
 306 199 294 220 209 321 c 1
311 403 m 1
 368 463 382 494 382 543 c 0xf4
 382 608 352 650 302 650 c 0
 253 650 220 609 220 554 c 0
 220 504 242 469 311 403 c 1
EndSplineSet
EndChar
StartChar: nine
Encoding: 57 57 26
Width: 499
Flags: HW
HStem: 245 44<204 243> 650 33<299 321>
VStem: 53 124<352 412> 363 112<476 582>
Fore
-6 -10 m 1
 -12 15 l 1
 110 53 204 135 265 259 c 1
 242 248 226 245 204 245 c 0
 114 245 53 312 53 412 c 0
 53 564 161 683 299 683 c 0
 349 683 388 668 417 639 c 0
 454 601 475 542 475 476 c 0
 475 334 398 190 272 100 c 0
 193 40 129 15 -6 -10 c 1
313 650 m 0
 283 650 256 630 234 589 c 0
 204 527 177 416 177 352 c 0
 177 311 201 289 243 289 c 0
 286 289 293 297 319 376 c 0
 346 450 346 450 353 491 c 0
 359 524 363 561 363 582 c 0
 363 628 347 650 313 650 c 0
EndSplineSet
EndChar
StartChar: colon
Encoding: 58 58 27
Width: 332
Flags: HW
HStem: -13 148<86 104> 311 147<182 200>
Fore
98 135 m 0
 138 135 171 101 171 62 c 0
 171 19 138 -13 97 -13 c 0
 56 -13 23 19 23 62 c 0
 23 103 56 135 98 135 c 0
190 458 m 0
 231 458 264 425 264 385 c 0
 264 343 231 311 189 311 c 0
 148 311 116 343 116 385 c 0
 116 428 149 458 190 458 c 0
EndSplineSet
EndChar
StartChar: semicolon
Encoding: 59 59 28
Width: 332
Flags: HW
HStem: 311 147<177 200>
Fore
-12 -183 m 1
 -25 -160 l 1
 53 -117 92 -78 92 -42 c 0
 92 -28 86 -18 63 -3 c 0
 34 18 23 34 23 60 c 0
 23 103 53 133 94 133 c 0
 145 133 179 94 179 35 c 0
 179 -45 104 -132 -12 -183 c 1
190 458 m 0
 231 458 264 425 264 385 c 0
 264 343 231 311 189 311 c 0
 148 311 116 343 116 385 c 0
 116 428 149 458 190 458 c 0
EndSplineSet
EndChar
StartChar: less
Encoding: 60 60 29
Width: 569
Flags: HW
DStem: 31 211 154 253 539 -12 539 83 539 519 539 422 31 294 154 253
Fore
539 -12 m 1
 31 211 l 1
 31 294 l 1
 539 519 l 1
 539 422 l 1
 154 253 l 1
 539 83 l 1
 539 -12 l 1
EndSplineSet
EndChar
StartChar: equal
Encoding: 61 61 30
Width: 569
Flags: HW
HStem: 107 88<34 538> 311 87<34 538>
Fore
538 398 m 1
 538 311 l 1
 34 311 l 1
 34 398 l 1
 538 398 l 1
538 195 m 1
 538 107 l 1
 34 107 l 1
 34 195 l 1
 538 195 l 1
EndSplineSet
EndChar
StartChar: greater
Encoding: 62 62 31
Width: 569
Flags: HW
DStem: 31 422 31 519 416 253 539 294 416 253 539 211 31 83 31 -12
Fore
31 -12 m 1
 31 83 l 1
 416 253 l 1
 31 422 l 1
 31 519 l 1
 539 294 l 1
 539 211 l 1
 31 -12 l 1
EndSplineSet
EndChar
StartChar: question
Encoding: 63 63 32
Width: 499
Flags: HW
HStem: -13 148<142 160> 653 31<270 294>
VStem: 79 148<62 68> 119 123<544 557> 343 127<539 573>
Fore
196 208 m 1xd8
 167 215 l 1
 171 270 192 316 237 374 c 2
 278 425 l 2
 324 480 343 526 343 573 c 0
 343 623 316 653 274 653 c 0
 242 653 212 634 212 615 c 0
 212 609 215 603 223 593 c 0
 236 576 242 562 242 546 c 0
 242 516 214 488 180 488 c 0
 146 488 119 517 119 555 c 0
 119 630 193 684 294 684 c 0
 398 684 470 625 470 539 c 0
 470 478 434 428 344 369 c 2
 278 327 l 2
 240 300 224 278 196 208 c 1xd8
154 135 m 0
 193 135 227 101 227 62 c 0
 227 19 193 -13 152 -13 c 0
 111 -13 79 19 79 62 c 0xe8
 79 103 111 135 154 135 c 0
EndSplineSet
EndChar
StartChar: at
Encoding: 64 64 33
Width: 832
Flags: HW
HStem: -18 46<430 464> 144 46<365 407> 646 40<437 452>
VStem: 63 91<301 351> 272 77<256 277> 491 69<215 224> 724 46<365 401>
Fore
545 463 m 1
 557 501 l 1
 627 501 l 1
 562 245 l 1
 560 237 560 233 560 224 c 0
 560 195 574 179 598 179 c 0
 627 179 653 196 677 230 c 0
 706 271 724 330 724 379 c 0
 724 524 595 646 437 646 c 0
 272 646 154 511 154 322 c 0
 154 151 277 28 450 28 c 0
 519 28 568 40 647 76 c 1
 661 41 l 1
 562 -4 511 -18 439 -18 c 0
 229 -18 63 133 63 328 c 0
 63 527 229 686 437 686 c 0
 624 686 770 555 770 387 c 0
 770 255 683 142 583 142 c 0
 535 142 492 176 491 217 c 1
 456 171 409 144 365 144 c 0
 313 144 272 193 272 256 c 0
 272 330 305 409 354 463 c 0
 387 497 431 516 473 516 c 0
 508 516 523 505 545 463 c 1
486 467 m 0
 461 469 428 450 398 417 c 0
 366 379 349 330 349 275 c 0
 349 223 371 190 407 190 c 0
 437 190 466 215 488 256 c 0
 508 297 526 357 527 401 c 0
 530 441 516 464 486 467 c 0
EndSplineSet
EndChar
StartChar: A
Encoding: 65 65 34
Width: 666
Flags: HW
HStem: 0 25<129 129 289 299.667 576.5 593> 208 40<161 353>
DStem: 309 491 413 683 346 248 508 111 388 683 309 491 16 95 161 248 388 683 138 208 16 95 79 105
Fore
593 25 m 1
 593 0 l 1
 289 0 l 1
 289 25 l 1
 353 31 368 42 368 83 c 0
 368 97 366 117 360 157 c 0
 359 163 356 185 353 208 c 1
 138 208 l 1
 79 105 l 2
 69 89 64 73 64 60 c 0
 64 37 83 25 129 25 c 1
 129 0 l 1
 -67 0 l 1
 -67 25 l 1
 -31 34 -16 45 16 95 c 1
 388 683 l 1
 413 683 l 1
 508 111 l 1
 521 35 527 29 593 25 c 1
161 248 m 1
 346 248 l 1
 309 491 l 1
 161 248 l 1
EndSplineSet
EndChar
StartChar: B
Encoding: 66 66 35
Width: 666
Flags: HW
HStem: 0 25<-23 -15.3333> 0 32<248 277> 637 32<116 394> 645 24<116 128>
VStem: 419 154<207 229> 478 146<521 538>
DStem: 179 546 338 593 56 97 277 368 179 546 270 338 56 97 204 94
Fore
116 645 m 1x98
 116 669 l 1
 388 669 l 2
 543 669 624 620 624 523 c 0x24
 624 482 606 442 577 417 c 0
 542 388 511 374 435 354 c 1
 536 322 573 284 573 207 c 0
 573 78 460 0 277 0 c 2x68
 -23 0 l 1
 -23 25 l 1
 23 31 40 45 56 97 c 1
 179 546 l 2
 185 571 189 593 189 603 c 0
 189 615 182 628 173 633 c 0
 161 640 152 642 116 645 c 1x98
270 338 m 1
 204 94 l 1
 201 81 198 72 198 64 c 0
 198 42 217 32 255 32 c 0
 299 32 333 45 360 72 c 0
 395 108 419 171 419 229 c 0x48
 419 267 407 294 385 313 c 0
 365 330 335 335 270 338 c 1
338 593 m 2
 277 368 l 1
 352 371 385 378 416 398 c 0
 456 423 478 472 478 536 c 0
 478 603 448 637 390 637 c 0x24
 357 637 349 628 338 593 c 2
EndSplineSet
EndChar
StartChar: C
Encoding: 67 67 36
Width: 666
Flags: HW
HStem: -18 53<305 335> 650 36<439 466>
VStem: 32 154<209 242>
Fore
677 686 m 1
 625 451 l 1
 595 457 l 1
 596 470 598 479 598 492 c 0
 598 590 546 650 466 650 c 0
 425 650 387 634 349 603 c 0
 258 527 186 354 186 209 c 0
 186 100 242 35 335 35 c 0
 368 35 398 41 426 53 c 0
 469 70 497 94 546 152 c 1
 576 130 l 1
 543 86 527 69 498 47 c 0
 441 4 375 -18 305 -18 c 0
 141 -18 32 86 32 242 c 0
 32 483 217 686 439 686 c 0
 480 686 527 677 571 664 c 0
 586 659 601 656 609 656 c 0
 624 656 633 664 647 686 c 1
 677 686 l 1
EndSplineSet
EndChar
StartChar: D
Encoding: 68 68 37
Width: 720
Flags: HW
HStem: 0 25<-45 -37> 0 34<212.808 244> 639 30<94 388>
VStem: 538 148<395 457>
DStem: 155 543 318 601 34 97 190 126
Fore
94 645 m 1xb0
 94 669 l 1
 384 669 l 2
 573 669 686 567 686 395 c 0
 686 168 495 0 240 0 c 2x70
 -45 0 l 1
 -45 25 l 1
 3 31 19 45 34 97 c 1
 155 543 l 1
 163 576 167 592 167 602 c 0
 167 625 157 634 125 639 c 0
 122 640 108 642 94 645 c 1xb0
318 601 m 1
 190 126 l 1
 190 126 189 125 189 122 c 0
 180 97 177 81 177 67 c 0
 177 45 193 34 231 34 c 0
 327 34 397 70 450 146 c 0
 504 224 538 343 538 457 c 0
 538 579 483 639 374 639 c 0
 341 639 325 627 318 601 c 1
EndSplineSet
EndChar
StartChar: E
Encoding: 69 69 38
Width: 666
Flags: HW
HStem: 0 32<245 527> 637 32<113 423>
DStem: 176 546 335 593 53 97 275 371 176 546 267 338 53 97 209 129
Fore
586 193 m 1
 527 0 l 1
 -26 0 l 1
 -26 25 l 1
 25 34 37 44 53 97 c 1
 176 546 l 2
 182 568 186 590 186 606 c 0
 186 627 174 636 144 639 c 0
 139 640 127 642 113 645 c 1
 113 669 l 1
 653 669 l 1
 609 479 l 1
 583 483 l 1
 583 546 576 571 554 595 c 0
 526 623 472 637 398 637 c 0
 357 637 346 628 335 593 c 1
 275 371 l 1
 407 369 434 382 480 476 c 1
 508 472 l 1
 434 199 l 1
 406 204 l 1
 409 223 410 234 410 248 c 0
 410 316 379 335 267 338 c 1
 209 129 l 1
 208 123 l 1
 207 116 205 108 204 104 c 0
 198 83 195 73 195 66 c 0
 195 42 212 32 256 32 c 0
 341 32 410 51 466 89 c 0
 505 117 526 142 561 199 c 1
 586 193 l 1
EndSplineSet
EndChar
StartChar: F
Encoding: 70 70 39
Width: 666
Flags: HW
HStem: 0 25<268.75 283> 637 32<127 443>
DStem: 190 546 350 593 67 97 289 371 190 546 280 338 67 97 226 138
Fore
516 472 m 1
 441 199 l 1
 413 204 l 1
 416 223 417 234 417 248 c 0
 417 316 387 335 280 338 c 1
 226 138 l 1
 226 135 224 129 223 122 c 0
 214 97 211 81 211 69 c 0
 211 38 226 29 283 25 c 1
 283 0 l 1
 -13 0 l 1
 -13 25 l 1
 40 34 51 44 67 97 c 1
 190 546 l 2
 196 568 201 592 201 606 c 0
 201 627 189 636 158 639 c 0
 152 640 141 642 127 645 c 1
 127 669 l 1
 661 669 l 1
 617 479 l 1
 590 483 l 1
 590 541 584 567 564 590 c 0
 538 621 486 637 413 637 c 0
 374 637 360 628 350 593 c 1
 289 371 l 1
 420 371 439 382 486 476 c 1
 516 472 l 1
EndSplineSet
MinimumDistance: x6,9 
EndChar
StartChar: G
Encoding: 71 71 40
Width: 720
Flags: HW
HStem: -18 39<316 343> 305 25<419 427.4 695.4 706> 649 37<446 470>
VStem: 21 156<208 250>
Fore
706 330 m 1
 706 305 l 1
 653 300 646 291 627 223 c 1
 579 41 l 1
 551 28 l 2
 494 1 394 -18 316 -18 c 0
 142 -18 21 92 21 250 c 0
 21 404 108 555 240 631 c 0
 300 666 372 686 448 686 c 0
 494 686 527 680 573 664 c 0
 590 658 599 655 608 655 c 0
 628 655 639 664 650 686 c 1
 681 686 l 1
 630 464 l 1
 601 469 l 1
 599 536 592 565 570 598 c 0
 548 630 508 649 461 649 c 0
 417 649 374 633 335 601 c 0
 245 524 177 357 177 208 c 0
 177 86 234 21 341 21 c 0
 379 21 420 34 435 50 c 0
 439 56 439 56 461 133 c 0
 489 226 494 242 494 268 c 0
 494 277 486 289 480 291 c 0
 470 297 461 300 419 305 c 1
 419 330 l 1
 706 330 l 1
EndSplineSet
MinimumDistance: x3,0 
EndChar
StartChar: H
Encoding: 72 72 41
Width: 777
Flags: HW
HStem: 0 25<256.25 272 340 356.75 602 658 658 658> 330 44<278 505> 645 24<412 434>
DStem: 179 546 333 573 56 97 278 374 179 546 267 330 56 97 215 148 505 330 718 573 441 97 609 174 564 546 718 573 517 374 609 174
Fore
658 25 m 1
 658 0 l 1
 340 0 l 1
 340 25 l 1
 407 29 428 42 441 97 c 1
 505 330 l 1
 267 330 l 1
 215 148 l 1
 215 144 212 138 212 132 c 0
 204 100 199 82 199 67 c 0
 199 37 209 29 272 25 c 1
 272 0 l 1
 -23 0 l 1
 -23 25 l 1
 26 32 40 45 56 97 c 1
 179 546 l 2
 185 573 189 593 189 603 c 0
 189 625 179 636 146 639 c 0
 142 640 130 642 116 645 c 1
 116 669 l 1
 434 669 l 1
 434 645 l 1
 368 642 349 627 333 573 c 1
 278 374 l 1
 517 374 l 1
 564 546 l 2
 568 564 574 595 574 606 c 0
 574 627 564 636 533 639 c 0
 527 640 516 642 501 645 c 1
 501 669 l 1
 798 669 l 1
 798 645 l 1
 749 637 734 625 718 573 c 1
 609 174 l 1
 603 152 l 2
 589 103 584 81 584 66 c 0
 584 37 602 26 658 25 c 1
EndSplineSet
MinimumDistance: x7,4 x15,12 x18,1 x15,4 x26,1 x18,21 
EndChar
StartChar: I
Encoding: 73 73 42
Width: 388
Flags: HW
HStem: 0 25<-32 -23.6667 245 264> 645 24<397.333 406>
DStem: 171 546 324 573 48 97 209 152
Fore
264 25 m 1
 264 0 l 1
 -32 0 l 1
 -32 25 l 1
 18 31 32 45 48 97 c 1
 171 546 l 2
 176 564 182 595 182 606 c 0
 182 627 171 636 141 639 c 0
 135 640 122 642 108 645 c 1
 108 669 l 1
 406 669 l 1
 406 645 l 1
 354 639 340 625 324 573 c 1
 209 152 l 2
 196 103 192 81 192 64 c 0
 192 37 207 28 264 25 c 1
EndSplineSet
MinimumDistance: x10,1 x7,4 
EndChar
StartChar: J
Encoding: 74 74 43
Width: 499
Flags: HW
HStem: -100 37<82 105> 645 24<515.833 524>
VStem: -45 126<-1 13>
DStem: 289 546 442 573 174 114 315 92
Fore
524 669 m 1
 524 645 l 1
 475 639 460 625 442 573 c 1
 315 92 l 2
 280 -38 214 -100 105 -100 c 0
 18 -100 -45 -56 -45 1 c 0
 -45 41 -18 72 18 72 c 0
 53 72 81 44 81 9 c 0
 81 -4 78 -12 67 -23 c 0
 60 -34 59 -38 59 -45 c 0
 59 -57 67 -63 85 -63 c 0
 122 -63 136 -35 174 114 c 2
 289 546 l 2
 296 573 300 595 300 606 c 0
 300 625 287 636 258 639 c 0
 253 640 242 642 227 645 c 1
 227 669 l 1
 524 669 l 1
EndSplineSet
MinimumDistance: x3,0 
EndChar
StartChar: K
Encoding: 75 75 44
Width: 666
Flags: HW
HStem: 0 25<-21 -12.8333 254.75 268 333 344 602.5 612> 642 27<491 513>
DStem: 182 546 335 573 59 97 272 344 182 546 271 337 59 97 204 88 271 337 393 398 384 95 549 60
Fore
393 398 m 1
 549 60 l 2
 560 37 574 29 612 25 c 1
 612 0 l 1
 333 0 l 1
 333 25 l 1
 344 26 354 26 359 28 c 0
 385 29 397 38 397 53 c 0
 397 63 393 75 384 95 c 2
 271 337 l 1
 204 88 l 1
 204 83 202 78 202 70 c 0
 202 38 215 29 268 25 c 1
 268 0 l 1
 -21 0 l 1
 -21 25 l 1
 28 31 42 44 59 97 c 1
 182 546 l 2
 187 573 192 593 192 603 c 0
 192 625 182 636 149 639 c 0
 145 640 133 642 119 645 c 1
 119 669 l 1
 429 669 l 1
 429 645 l 1
 371 639 352 624 335 573 c 1
 272 344 l 1
 479 520 546 587 546 617 c 0
 546 631 538 639 513 642 c 0
 508 642 499 643 491 645 c 1
 491 669 l 1
 702 669 l 1
 702 645 l 1
 659 639 650 636 608 596 c 2
 393 398 l 1
EndSplineSet
MinimumDistance: x16,13 x19,22 
EndChar
StartChar: L
Encoding: 76 76 45
Width: 610
Flags: HW
HStem: 0 32<249 532> 645 24<421.8 435>
DStem: 182 546 334 573 59 97 205 94
Fore
590 193 m 1
 532 0 l 1
 -22 0 l 1
 -22 25 l 1
 26 32 42 45 59 97 c 1
 182 546 l 2
 186 564 190 595 190 606 c 0
 190 627 182 636 149 639 c 0
 145 640 132 642 119 645 c 1
 119 669 l 1
 435 669 l 1
 435 645 l 1
 369 640 350 627 334 573 c 1
 205 94 l 2
 202 83 201 70 201 62 c 0
 201 41 220 32 264 32 c 0
 346 32 417 53 472 89 c 0
 510 119 532 144 565 199 c 1
 590 193 l 1
EndSplineSet
MinimumDistance: x8,5 
EndChar
StartChar: M
Encoding: 77 77 46
Width: 887
Flags: HW
HStem: 0 25<171.778 179 463 479 755.333 775> 645 24<120 141 908.5 917>
DStem: 182 551 218 546 72 179 117 179 218 546 341 669 286 -12 395 189 688 561 836 573 562 97 713 123 705 669 688 561 395 189 313 -12
Fore
917 669 m 1
 917 645 l 1
 866 639 851 624 836 573 c 1
 713 123 l 1
 712 119 l 1
 710 113 l 1
 705 92 703 78 703 67 c 0
 703 37 716 28 775 25 c 1
 775 0 l 1
 463 0 l 1
 463 25 l 1
 527 29 546 42 562 97 c 1
 688 561 l 1
 313 -12 l 1
 286 -12 l 1
 218 546 l 1
 117 179 l 2
 104 130 98 103 98 86 c 0
 98 45 114 34 179 25 c 1
 179 0 l 1
 -29 0 l 1
 -29 25 l 1
 25 37 32 48 72 179 c 1
 182 551 l 2
 187 576 192 596 192 609 c 0
 192 637 183 642 120 645 c 1
 120 669 l 1
 341 669 l 1
 395 189 l 1
 705 669 l 1
 917 669 l 1
EndSplineSet
MinimumDistance: x23,1 x13,16 
EndChar
StartChar: N
Encoding: 78 78 47
Width: 720
Flags: HW
HStem: 0 25<167 182> 645 24<111 120.167 539 548.833>
DStem: 193 589 218 535 75 179 119 179 218 535 306 669 475 -15 521 204 601 491 646 491 521 204 502 -15
Fore
306 669 m 1
 521 204 l 1
 601 491 l 2
 612 532 620 567 620 584 c 0
 620 623 598 639 539 645 c 1
 539 669 l 1
 749 669 l 1
 749 645 l 1
 690 631 686 623 646 491 c 1
 502 -15 l 1
 475 -15 l 1
 218 535 l 1
 119 179 l 1
 108 138 101 103 101 83 c 0
 101 45 122 29 182 25 c 1
 182 0 l 1
 -26 0 l 1
 -26 25 l 1
 28 37 35 47 75 179 c 1
 193 589 l 1
 174 633 166 639 111 645 c 1
 111 669 l 1
 306 669 l 1
EndSplineSet
MinimumDistance: x3,0 x12,15 
EndChar
StartChar: O
Encoding: 79 79 48
Width: 720
Flags: HW
HStem: -18 34<262 283> 650 36<441 459>
VStem: 26 145<138 221> 546 145<454 532>
Fore
450 686 m 0
 587 686 691 587 691 454 c 0
 691 308 609 149 485 59 c 0
 417 7 341 -18 264 -18 c 0
 122 -18 26 78 26 221 c 0
 26 360 113 521 234 609 c 0
 302 659 376 686 450 686 c 0
445 650 m 0
 381 650 328 609 277 520 c 0
 223 423 171 239 171 138 c 0
 171 63 209 16 272 16 c 0
 327 16 372 45 417 113 c 0
 485 211 546 412 546 532 c 0
 546 603 505 650 445 650 c 0
EndSplineSet
EndChar
StartChar: P
Encoding: 80 80 49
Width: 610
Flags: HW
HStem: 0 25<248.333 267> 316 36<309 340> 637 32<113 391>
VStem: 467 145<514 546>
DStem: 176 546 333 593 53 97 270 354 176 546 259 322 53 97 205 123
Fore
113 645 m 1
 113 669 l 1
 400 669 l 2
 539 669 612 615 612 514 c 0
 612 394 505 316 340 316 c 0
 313 316 294 318 259 322 c 1
 205 123 l 1
 201 107 195 75 195 64 c 0
 195 37 211 28 267 25 c 1
 267 0 l 1
 -26 0 l 1
 -26 25 l 1
 25 34 37 44 53 97 c 1
 176 546 l 2
 182 568 186 592 186 606 c 0
 186 627 174 636 144 639 c 0
 139 640 127 642 113 645 c 1
333 593 m 1
 270 354 l 1
 286 353 297 352 311 352 c 0
 381 352 417 375 444 434 c 0
 458 464 467 511 467 546 c 0
 467 603 437 637 382 637 c 0
 365 637 353 633 344 623 c 0
 340 617 340 617 333 593 c 1
EndSplineSet
MinimumDistance: x11,14 
EndChar
StartChar: Q
Encoding: 81 81 50
Width: 720
Flags: HW
HStem: -208 89<395 479> -161 138<157 198> 650 36<441 459>
VStem: 26 145<136 211> 546 145<453 532>
Fore
634 -40 m 1xb8
 655 -59 l 1
 574 -168 505 -208 395 -208 c 0xb8
 354 -208 322 -202 261 -182 c 0
 208 -166 185 -161 157 -161 c 0
 125 -161 97 -168 42 -189 c 1
 28 -166 l 1
 185 -35 l 2
 192 -28 196 -23 198 -23 c 0x78
 201 -21 201 -19 204 -16 c 1
 201 -12 196 -10 189 -7 c 0
 136 12 123 19 97 44 c 0
 53 86 26 146 26 211 c 0
 26 454 233 686 450 686 c 0
 589 686 691 587 691 453 c 0
 691 319 624 179 514 81 c 0
 437 12 382 -9 252 -18 c 1
 231 -37 207 -62 207 -64 c 0
 207 -67 215 -70 245 -72 c 0
 286 -75 330 -82 354 -89 c 2
 395 -103 l 2
 432 -114 453 -119 479 -119 c 0
 539 -119 576 -100 634 -40 c 1xb8
445 650 m 0
 381 650 328 609 277 520 c 0
 223 423 171 239 171 136 c 0
 171 63 209 18 272 18 c 0
 327 18 372 47 417 114 c 0
 485 212 546 412 546 532 c 0
 546 603 505 650 445 650 c 0
EndSplineSet
EndChar
StartChar: R
Encoding: 82 82 51
Width: 666
Flags: HW
HStem: 0 25<-29 -20.6667 252.5 267 588 602> 637 32<111 389>
VStem: 472 151<524 544>
DStem: 174 546 333 593 51 97 272 363 174 546 264 331 51 97 209 138 293 331 431 343 400 0 514 97
Fore
111 645 m 1
 111 669 l 1
 387 669 l 2
 545 669 623 623 623 526 c 0
 623 470 595 419 543 385 c 0
 511 365 486 354 431 343 c 1
 514 97 l 1
 536 38 546 29 602 25 c 1
 602 0 l 1
 400 0 l 1
 293 331 l 1
 264 331 l 1
 209 138 l 2
 201 107 195 81 195 67 c 0
 195 37 209 29 267 25 c 1
 267 0 l 1
 -29 0 l 1
 -29 25 l 1
 21 31 35 45 51 97 c 1
 174 546 l 1
 179 562 185 595 185 606 c 0
 185 627 174 636 144 639 c 0
 138 640 125 642 111 645 c 1
333 593 m 1
 272 363 l 1
 335 365 374 371 400 388 c 0
 442 415 472 476 472 542 c 0
 472 602 439 637 382 637 c 0
 352 637 341 628 333 593 c 1
EndSplineSet
MinimumDistance: x14,17 
EndChar
StartChar: S
Encoding: 83 83 52
Width: 555
Flags: HW
HStem: -18 34<219 239> 650 36<303 327>
VStem: 103 120<491 545> 347 122<142 185>
Fore
1 -18 m 1
 38 207 l 1
 67 204 l 1
 70 144 79 114 98 83 c 0
 123 41 168 16 221 16 c 0
 270 16 305 35 328 75 c 0
 340 97 347 120 347 142 c 0
 347 187 312 234 234 294 c 0
 179 338 138 382 116 425 c 0
 107 442 103 464 103 491 c 0
 103 601 189 686 303 686 c 0
 331 686 357 680 401 666 c 0
 426 659 442 655 453 655 c 0
 473 655 486 664 497 681 c 1
 526 681 l 1
 486 480 l 1
 458 483 l 1
 445 601 407 650 327 650 c 0
 264 650 223 609 223 545 c 0
 223 499 237 478 300 431 c 0
 422 338 469 271 469 185 c 0
 469 62 379 -18 239 -18 c 0
 199 -18 166 -12 116 6 c 0
 92 15 81 18 70 18 c 0
 51 18 44 12 32 -18 c 1
 1 -18 l 1
EndSplineSet
EndChar
StartChar: T
Encoding: 84 84 53
Width: 610
Flags: HW
HStem: 0 25<50 381 357.667 381> 634 35<100 470.67>
DStem: 303 634 450 634 155 97 309 127
Fore
650 669 m 1
 614 478 l 1
 587 479 l 1
 582 590 543 633 450 634 c 1
 309 127 l 2
 302 103 297 81 297 66 c 0
 297 34 311 28 381 25 c 1
 381 0 l 1
 50 0 l 1
 50 25 l 1
 64 25 l 2
 116 25 141 45 155 97 c 2
 303 634 l 1
 201 631 138 590 86 491 c 1
 62 498 l 1
 100 669 l 1
 650 669 l 1
EndSplineSet
MinimumDistance: x8,11 
EndChar
StartChar: U
Encoding: 85 85 54
Width: 720
Flags: HW
HStem: -18 56<290 327> 640 29<98 129>
VStem: 67 138<137 159>
DStem: 157 529 315 573 100 324 233 272 598 491 642 491 539 283 576 264
Fore
744 669 m 1
 744 645 l 1
 688 633 683 623 642 491 c 1
 576 264 l 2
 545 155 521 101 486 62 c 0
 442 9 375 -18 290 -18 c 0
 160 -18 67 50 67 148 c 0
 67 182 79 243 100 324 c 1
 157 529 l 2
 166 562 171 593 171 605 c 0
 171 627 161 636 129 640 c 0
 125 640 111 642 98 645 c 1
 98 669 l 1
 409 669 l 1
 409 645 l 1
 347 642 333 628 315 573 c 1
 233 272 l 2
 208 182 205 166 205 139 c 0
 205 76 250 38 327 38 c 0
 382 38 426 59 460 98 c 0
 491 135 513 185 539 283 c 2
 598 491 l 1
 608 532 617 571 617 587 c 0
 617 623 593 639 536 645 c 1
 536 669 l 1
 744 669 l 1
EndSplineSet
MinimumDistance: x3,0 x12,9 
EndChar
StartChar: V
Encoding: 86 86 55
Width: 666
Flags: HW
HStem: 642 27<523 548>
DStem: 529 483 656 603 338 182 264 -18
Fore
715 669 m 1
 715 645 l 1
 687 636 669 623 656 603 c 1
 264 -18 l 1
 231 -18 l 1
 155 491 l 1
 133 634 127 645 64 645 c 1
 64 669 l 1
 363 669 l 1
 363 645 l 1
 296 639 287 633 287 599 c 0
 287 593 287 589 289 583 c 1
 338 182 l 1
 529 483 l 2
 568 545 587 589 587 611 c 0
 587 630 576 639 548 642 c 0
 543 642 535 643 523 645 c 1
 523 669 l 1
 715 669 l 1
EndSplineSet
EndChar
StartChar: W
Encoding: 87 87 56
Width: 887
Flags: HW
HStem: 645 24<333.167 341 400 407.5 660.333 669 753 764.2>
VStem: 472 134<538 586>
DStem: 142 561 283 576 220 -18 321 226 472 538 482 472 321 226 249 -18 482 472 612 521 541 -18 645 226 801 554 855 573 645 226 570 -18
Fore
940 669 m 1
 940 645 l 1
 898 639 885 627 855 573 c 1
 570 -18 l 1
 541 -18 l 1
 482 472 l 1
 249 -18 l 1
 220 -18 l 1
 142 561 l 1
 132 631 130 634 64 645 c 1
 64 669 l 1
 341 669 l 1
 341 645 l 1
 294 639 281 627 281 590 c 0
 281 587 281 580 283 576 c 1
 321 226 l 1
 472 538 l 1
 470 623 460 637 400 645 c 1
 400 669 l 1
 669 669 l 1
 669 645 l 1
 617 639 606 630 606 586 c 0
 606 576 606 573 612 521 c 1
 645 226 l 1
 801 554 l 2
 813 579 816 587 816 599 c 0
 816 636 809 640 753 645 c 1
 753 669 l 1
 940 669 l 1
EndSplineSet
EndChar
StartChar: X
Encoding: 88 88 57
Width: 666
Flags: HW
HStem: 0 25<178.75 190 278 291.75 578 586> 642 27<100 392.531 491 513>
DStem: 275 309 289 264 207 234 155 116 476 520 595 583 382 420 395 378
Fore
586 25 m 1
 586 0 l 1
 278 0 l 1
 278 25 l 1
 333 29 346 38 346 63 c 0
 346 83 335 127 308 204 c 0
 294 243 293 250 289 264 c 1
 155 116 l 2
 133 92 125 78 125 64 c 0
 125 42 145 29 190 25 c 1
 190 0 l 1
 -23 0 l 1
 -23 25 l 1
 18 34 48 62 207 234 c 0
 245 275 249 281 275 309 c 1
 190 582 l 1
 174 627 160 639 100 645 c 1
 100 669 l 1
 404 669 l 1
 404 645 l 1
 391 642 379 642 375 642 c 0
 341 637 331 628 331 605 c 0
 331 590 341 549 365 476 c 0
 368 472 369 464 371 458 c 2
 382 420 l 1
 476 520 l 2
 527 574 546 601 546 618 c 0
 546 633 536 640 513 642 c 0
 508 642 501 643 491 645 c 1
 491 669 l 1
 694 669 l 1
 694 645 l 1
 658 639 639 627 595 583 c 1
 395 378 l 1
 470 141 l 2
 499 47 514 34 586 25 c 1
EndSplineSet
EndChar
StartChar: Y
Encoding: 89 89 58
Width: 610
Flags: HW
HStem: 0 25<73 90.25 373.333 395> 645 24<328 356 451 468.667>
DStem: 234 313 378 308 174 97 327 117 492 538 568 576 363 352 378 308
Fore
234 313 m 1
 146 582 l 1
 127 634 125 637 73 645 c 1
 73 669 l 1
 356 669 l 1
 356 645 l 1
 300 643 286 636 286 606 c 0
 286 590 296 554 319 488 c 0
 322 478 330 458 338 429 c 0
 341 417 356 374 363 352 c 1
 492 538 l 2
 513 567 519 580 519 598 c 0
 519 633 504 642 451 645 c 1
 451 669 l 1
 659 669 l 1
 659 645 l 1
 621 636 602 621 568 576 c 1
 378 308 l 1
 327 117 l 2
 319 94 318 83 318 72 c 0
 318 35 330 28 395 25 c 1
 395 0 l 1
 73 0 l 1
 73 25 l 1
 142 29 157 40 174 97 c 1
 234 313 l 1
EndSplineSet
MinimumDistance: x16,19 
EndChar
StartChar: Z
Encoding: 90 90 59
Width: 610
Flags: HW
HStem: 0 35<157 495> 634 35<122 423>
DStem: 423 634 590 640 -12 29 157 35
Fore
554 193 m 1
 495 0 l 1
 -12 0 l 1
 -12 29 l 1
 423 634 l 1
 346 634 l 2
 234 634 171 598 92 486 c 1
 64 491 l 1
 122 669 l 1
 590 669 l 1
 590 640 l 1
 157 35 l 1
 226 35 l 2
 313 35 374 48 417 81 c 0
 458 107 497 149 527 199 c 1
 554 193 l 1
EndSplineSet
EndChar
StartChar: bracketleft
Encoding: 91 91 60
Width: 332
Flags: HW
HStem: -160 35<106 182> 639 35<163 354>
DStem: 163 674 234 576 -37 -160 76 -100
Fore
354 639 m 1
 286 639 l 2
 250 639 248 636 234 576 c 2
 76 -100 l 2
 75 -104 79 -113 83 -117 c 0
 88 -122 97 -125 111 -125 c 2
 189 -125 l 1
 182 -160 l 1
 -37 -160 l 1
 163 674 l 1
 362 674 l 1
 354 639 l 1
EndSplineSet
EndChar
StartChar: backslash
Encoding: 92 92 61
Width: 276
Flags: HW
DStem: -1 686 83 686 195 -18 278 -18
Fore
-1 686 m 1
 83 686 l 1
 278 -18 l 1
 195 -18 l 1
 -1 686 l 1
EndSplineSet
EndChar
StartChar: bracketright
Encoding: 93 93 62
Width: 332
Flags: HW
HStem: -157 35<-49 144> 639 35<122 201>
DStem: 229 617 343 674 70 -62 144 -157
Fore
-48 -122 m 1
 19 -122 l 2
 56 -122 57 -119 70 -62 c 1
 229 617 l 2
 231 628 215 639 193 639 c 2
 116 639 l 1
 123 674 l 1
 343 674 l 1
 144 -157 l 1
 -56 -157 l 1
 -48 -122 l 1
EndSplineSet
EndChar
StartChar: asciicircum
Encoding: 94 94 63
Width: 569
Flags: HW
DStem: 245 669 286 576 67 305 157 305 286 576 325 669 415 305 502 305
Fore
157 305 m 1
 67 305 l 1
 245 669 l 1
 325 669 l 1
 502 305 l 1
 415 305 l 1
 286 576 l 1
 157 305 l 1
EndSplineSet
EndChar
StartChar: underscore
Encoding: 95 95 64
Width: 499
Flags: HW
HStem: -125 50<0 499>
Fore
499 -125 m 1
 0 -125 l 1
 0 -75 l 1
 499 -75 l 1
 499 -125 l 1
EndSplineSet
EndChar
StartChar: grave
Encoding: 96 96 65
Width: 292
Flags: HW
Fore
315 413 m 1
 277 467 215 557 208 577 c 0
 195 614 212 652 252 672 c 0
 291 691 324 680 335 642 c 0
 343 623 352 504 354 434 c 1
 315 413 l 1
EndSplineSet
EndChar
StartChar: a
Encoding: 97 97 66
Width: 499
Flags: HW
HStem: -13 72<86 146> 441 20G<190.5 273>
VStem: -21 124<99.3428 129> 237 113<53 72>
Fore
434 127 m 1
 456 111 l 1
 398 25 352 -15 305 -15 c 0
 267 -15 237 15 237 53 c 0
 237 66 240 81 250 119 c 1
 193 23 148 -13 86 -13 c 0
 22 -13 -21 38 -21 114 c 0
 -21 270 129 461 252 461 c 0
 294 461 316 441 327 390 c 1
 344 450 l 1
 456 456 l 1
 384 220 l 2
 360 139 350 97 350 72 c 0
 350 63 354 57 362 57 c 0
 378 57 393 72 434 127 c 1
267 420 m 0
 239 422 207 391 176 338 c 0
 135 264 103 164 103 111 c 0
 103 81 122 59 146 59 c 0
 174 59 204 85 231 133 c 0
 270 201 303 313 303 374 c 0
 303 400 289 417 267 420 c 0
EndSplineSet
EndChar
StartChar: b
Encoding: 98 98 67
Width: 499
Flags: HW
HStem: -13 34<125 146> 394 67<275 333> 642 27<76 84.1818>
VStem: -15 123<47 52> 319 125<322 340>
Fore
76 642 m 1
 76 669 l 1
 166 680 214 686 284 699 c 1
 193 371 l 1
 245 438 281 461 333 461 c 0
 398 461 444 412 444 338 c 0
 444 160 287 -13 125 -13 c 0
 59 -13 -15 19 -15 47 c 0
 -15 53 -3 97 6 127 c 2
 100 456 l 2
 126 546 139 599 139 612 c 0
 139 636 125 642 76 642 c 1
275 394 m 0
 242 394 209 365 185 308 c 0
 168 272 146 209 135 170 c 0
 127 138 108 56 108 47 c 0
 108 32 122 21 141 21 c 0
 183 21 223 51 256 111 c 0
 291 173 319 267 319 325 c 0
 319 371 305 394 275 394 c 0
EndSplineSet
EndChar
StartChar: c
Encoding: 99 99 68
Width: 443
Flags: HW
HStem: -13 64<148 196> 429 32<267 280>
VStem: -4 127<123 148> 272 121<354 372>
Fore
318 141 m 1
 346 123 l 1
 311 73 294 54 270 32 c 0
 234 3 192 -13 148 -13 c 0
 59 -13 -4 48 -4 138 c 0
 -4 297 139 461 280 461 c 0
 346 461 393 425 393 372 c 0
 393 331 366 302 330 302 c 0
 297 302 272 324 272 354 c 0
 272 366 275 376 286 393 c 0
 291 401 293 409 293 412 c 0
 293 422 283 429 271 429 c 0
 242 429 211 404 185 357 c 0
 149 293 123 204 123 141 c 0
 123 86 152 51 196 51 c 0
 239 51 270 75 318 141 c 1
EndSplineSet
EndChar
StartChar: d
Encoding: 100 100 69
Width: 499
Flags: HW
HStem: -13 72<85 144> 441 20G<189.5 265> 643 26<308 319.222>
VStem: 240 109<51 70>
Fore
428 130 m 1
 450 116 l 1
 394 26 349 -12 300 -12 c 0
 262 -12 240 12 240 51 c 0
 240 66 243 81 250 119 c 1
 193 23 148 -13 85 -13 c 0
 23 -13 -21 40 -21 111 c 0
 -21 270 129 461 250 461 c 0
 280 461 299 453 324 429 c 1
 341 497 l 1
 365 582 371 606 371 615 c 0
 371 633 354 643 330 643 c 2
 308 643 l 1
 308 669 l 1
 409 678 457 686 517 699 c 1
 406 294 l 2
 371 167 349 81 349 70 c 0
 349 64 354 59 360 59 c 0
 375 59 400 86 428 130 c 1
271 420 m 0
 242 422 205 390 173 333 c 0
 138 268 105 176 103 122 c 0
 101 86 119 59 144 59 c 0
 173 59 202 83 230 133 c 0
 264 196 308 328 308 371 c 0
 308 398 293 419 271 420 c 0
EndSplineSet
EndChar
StartChar: e
Encoding: 101 101 70
Width: 443
Flags: HW
HStem: -13 64<157 201> 429 32<275 293>
VStem: 4 131<133 148> 306 92<375 395>
Fore
316 142 m 1
 346 125 l 1
 286 26 231 -13 157 -13 c 0
 69 -13 4 50 4 133 c 0
 4 299 149 461 293 461 c 0
 354 461 398 426 398 375 c 0
 398 340 379 302 344 270 c 0
 294 224 245 202 141 182 c 1
 138 163 135 149 135 133 c 0
 135 79 157 51 201 51 c 0
 242 51 270 73 316 142 c 1
148 214 m 1
 160 218 174 223 182 226 c 0
 258 253 306 319 306 395 c 0
 306 417 297 429 278 429 c 0
 230 429 185 352 148 214 c 1
EndSplineSet
EndChar
StartChar: f
Encoding: 102 102 71
Width: 332
Flags: HW
HStem: -205 31<-73 -55> 407 43<47 111 236 319> 669 30<343 349>
VStem: -168 85<-163 -126> -168 101<-128 -118> 346 99<610 620>
Fore
328 450 m 1xf4
 319 407 l 1
 229 407 l 1
 174 154 164 108 141 29 c 0
 107 -73 81 -126 40 -163 c 0
 9 -190 -28 -205 -70 -205 c 0
 -130 -205 -168 -174 -168 -126 c 0xf4
 -168 -97 -145 -72 -117 -72 c 0
 -92 -72 -67 -97 -67 -120 c 0xec
 -67 -130 -72 -144 -81 -154 c 0
 -83 -158 -83 -161 -83 -163 c 0
 -83 -168 -76 -174 -66 -174 c 0
 -26 -174 -7 -133 23 15 c 0
 29 44 59 168 111 407 c 1
 40 407 l 1
 48 450 l 1
 122 450 l 1
 149 549 168 590 211 637 c 0
 248 677 294 699 347 699 c 0
 407 699 445 666 445 618 c 0
 445 587 425 565 395 565 c 0
 368 565 346 587 346 614 c 0
 346 624 349 633 357 645 c 0
 360 650 362 653 362 656 c 0
 362 664 354 669 346 669 c 0
 311 669 278 620 253 520 c 2
 236 450 l 1
 328 450 l 1xf4
EndSplineSet
MinimumDistance: x8,11 
EndChar
StartChar: g
Encoding: 103 103 72
Width: 499
Flags: HW
HStem: -204 36<134 156> 152 33<188 203> 374 55<368 478> 431 30<250 258>
VStem: -53 88<-102 -89> 35 116<243 280> 267 108<-100 -53> 300 117<331 372> 300 178<374 385.29>
Fore
478 429 m 1xfc80
 478 374 l 1xfc80
 412 374 l 1
 416 357 417 347 417 331 c 0xfd
 417 271 387 220 328 187 c 0
 289 166 245 152 201 152 c 0
 190 152 182 154 170 157 c 0
 163 160 155 161 149 161 c 0
 138 161 122 141 122 125 c 0
 122 110 141 97 173 86 c 2
 226 72 l 2
 335 41 375 7 375 -53 c 0xfe
 375 -141 275 -204 136 -204 c 0
 21 -204 -53 -163 -53 -97 c 0
 -53 -73 -41 -48 -23 -35 c 0
 -1 -16 19 -7 81 7 c 1
 37 22 19 42 19 73 c 0
 19 110 34 125 116 170 c 1
 62 193 35 229 35 280 c 0
 35 381 133 461 256 461 c 0
 303 461 334 453 368 429 c 1
 478 429 l 1xfc80
116 -6 m 0
 108 -4 78 -23 64 -35 c 0
 44 -56 35 -70 35 -91 c 0
 35 -138 81 -168 146 -168 c 0
 223 -168 267 -144 267 -100 c 0xfe
 267 -75 253 -56 226 -42 c 0
 205 -34 126 -7 116 -6 c 0
255 431 m 0
 229 431 208 415 189 382 c 0
 168 344 151 283 151 243 c 0
 151 205 166 185 193 185 c 0
 224 185 249 207 271 252 c 0
 289 289 300 338 300 372 c 0xfd
 300 406 281 431 255 431 c 0
EndSplineSet
EndChar
StartChar: h
Encoding: 104 104 73
Width: 555
Flags: HW
HStem: 0 21G<-13 108> 390 71<331 398>
VStem: 353 122<369 387>
DStem: 141 567 294 699 -13 0 187 283
Fore
476 142 m 1
 498 127 l 1
 432 23 393 -9 331 -9 c 0
 291 -9 265 15 265 48 c 0
 265 89 278 141 327 280 c 0
 330 290 333 300 337 313 c 0
 344 333 349 344 349 346 c 0
 352 354 353 363 353 369 c 0
 353 379 343 390 331 390 c 0
 305 390 272 360 230 300 c 0
 180 229 160 179 108 0 c 1
 -13 0 l 1
 141 567 l 2
 146 586 149 601 149 609 c 0
 149 631 135 643 108 643 c 0
 103 643 94 643 86 642 c 1
 86 669 l 1
 167 677 217 684 294 699 c 1
 187 283 l 1
 243 363 267 393 297 419 c 0
 334 450 363 461 398 461 c 0
 445 461 475 434 475 387 c 0
 475 368 464 327 445 265 c 1
 387 86 l 2
 384 78 384 78 384 75 c 0
 384 67 394 59 401 59 c 0
 415 59 434 81 476 142 c 1
EndSplineSet
MinimumDistance: x21,1 x12,15 
EndChar
StartChar: i
Encoding: 105 105 74
Width: 276
Flags: HW
HStem: -9 71<70 138> 407 27<21 36.8> 549 137<182.896 204>
DStem: 73 338 223 461 15 123 132 127
Fore
215 141 m 1
 237 127 l 1
 168 22 130 -9 70 -9 c 0
 29 -9 1 18 1 54 c 0
 1 67 7 95 15 123 c 1
 73 338 l 1
 78 354 81 371 81 378 c 0
 81 398 64 407 21 407 c 1
 21 434 l 1
 100 439 168 450 223 461 c 1
 132 127 l 2
 129 116 123 82 123 76 c 0
 123 67 130 62 138 62 c 0
 152 62 176 82 202 122 c 2
 215 141 l 1
193 686 m 0
 231 686 264 653 264 617 c 0
 264 580 231 549 193 549 c 0
 157 549 127 580 127 620 c 0
 127 653 160 686 193 686 c 0
EndSplineSet
MinimumDistance: x8,1 
EndChar
StartChar: j
Encoding: 106 106 75
Width: 276
Flags: HW
HStem: -207 31<-85 -76> 407 27<31 42.3> 549 137<198.433 212>
VStem: -189 84<-164 -130> -189 98<-132 -124> 144 134<608 626>
DStem: 81 311 239 461 -12 -45 125 23
Fore
31 407 m 1xf4
 31 434 l 1
 144 444 180 450 239 461 c 1
 125 23 l 2
 85 -130 16 -207 -83 -207 c 0
 -146 -207 -189 -176 -189 -130 c 0xf4
 -189 -101 -166 -78 -141 -78 c 0
 -113 -78 -91 -100 -91 -126 c 0xec
 -91 -138 -92 -142 -104 -158 c 0
 -105 -160 -105 -163 -105 -164 c 0
 -105 -168 -92 -176 -82 -176 c 0
 -54 -176 -37 -145 -12 -45 c 2
 81 311 l 1
 88 338 92 365 92 376 c 0
 92 401 81 407 31 407 c 1xf4
209 686 m 0
 248 686 278 653 278 617 c 0
 278 580 248 549 209 549 c 0
 173 549 144 580 144 620 c 0
 144 653 174 686 209 686 c 0
EndSplineSet
EndChar
StartChar: k
Encoding: 107 107 76
Width: 499
Flags: HW
HStem: -7 70<311 363> 423 27<275 315 475.333 483>
DStem: 133 567 286 699 -23 0 163 239 133 567 149 187 -23 0 100 0
Fore
149 187 m 1
 100 0 l 1
 -23 0 l 1
 133 567 l 2
 138 586 141 601 141 609 c 0
 141 631 127 643 100 643 c 0
 95 643 86 643 78 642 c 1
 78 669 l 1
 157 677 209 686 286 699 c 1
 163 239 l 1
 289 338 327 375 327 401 c 0
 327 417 315 422 275 423 c 1
 275 450 l 1
 483 450 l 1
 483 423 l 1
 437 417 416 406 349 349 c 2
 286 293 l 1
 324 98 335 63 363 63 c 0
 382 63 398 81 425 127 c 1
 447 116 l 1
 397 25 360 -7 311 -7 c 0
 249 -7 220 45 187 215 c 1
 149 187 l 1
EndSplineSet
MinimumDistance: x17,20 
EndChar
StartChar: l
Encoding: 108 108 77
Width: 276
Flags: HW
HStem: -9 71<69 138>
DStem: 110 473 290 699 37 209 145 176
Fore
215 141 m 1
 237 127 l 1
 168 22 130 -9 69 -9 c 0
 29 -9 1 15 1 51 c 0
 1 75 15 133 37 209 c 1
 110 473 l 1
 130 541 144 602 144 615 c 0
 144 633 129 643 103 643 c 0
 98 643 92 643 81 642 c 1
 81 669 l 1
 157 677 204 683 290 699 c 1
 145 176 l 1
 130 125 123 89 123 76 c 0
 123 67 130 62 138 62 c 0
 155 62 176 82 215 141 c 1
EndSplineSet
MinimumDistance: x8,1 
EndChar
StartChar: m
Encoding: 109 109 78
Width: 777
Flags: HW
HStem: 0 21G<-15 107 227 347> 370 20G<311.5 323 545 566.5> 407 27<34 48.375> 441 20G<374 409.5 593.5 649>
VStem: 337 119<366 394> 495 120<54 73> 583 122<368 391>
DStem: 576 338 681 284 532 207 636 151
Fore
34 407 m 1xfa
 34 434 l 1
 149 442 170 445 234 461 c 1
 170 262 l 1
 234 362 265 400 302 428 c 1
 330 451 360 461 388 461 c 0
 431 461 456 437 456 394 c 0
 456 366 448 340 429 290 c 1
 513 422 560 461 627 461 c 0
 671 461 705 431 705 391 c 0xfa
 705 365 696 327 681 284 c 1
 636 151 l 1
 615 83 615 83 615 73 c 0
 615 66 623 59 631 59 c 0
 645 59 665 81 688 117 c 0
 690 120 694 127 700 135 c 1
 722 122 l 1
 664 23 624 -9 562 -9 c 0
 519 -9 495 13 495 54 c 0xfc
 495 82 508 144 532 207 c 2
 576 338 l 1
 580 352 583 362 583 368 c 0
 583 379 573 390 560 390 c 0
 530 390 491 347 448 272 c 0
 412 209 406 192 347 0 c 1
 227 0 l 1
 262 113 275 155 291 207 c 0
 325 309 337 352 337 366 c 0
 337 379 328 390 318 390 c 0
 305 390 275 368 253 343 c 0
 198 275 160 190 107 0 c 1
 -15 0 l 1
 53 237 l 2
 81 333 88 368 88 381 c 0
 88 398 75 407 42 407 c 2
 34 407 l 1xfa
EndSplineSet
MinimumDistance: x32,1 x23,26 x20,29 x14,17 
EndChar
StartChar: n
Encoding: 110 110 79
Width: 555
Flags: HW
HStem: 0 21G<-6 116> 370 20G<320.5 335.5> 441 20G<383 424.5>
VStem: 354 121<369 387>
Fore
472 135 m 1
 494 122 l 1
 435 25 393 -9 334 -9 c 0
 291 -9 267 15 267 51 c 0
 267 78 278 133 294 182 c 2
 349 349 l 2
 352 357 354 366 354 369 c 0
 354 379 341 390 330 390 c 0
 311 390 280 368 261 341 c 0
 198 261 163 173 116 0 c 1
 -6 0 l 1
 4 37 12 62 23 108 c 1
 50 204 l 2
 83 324 97 371 97 382 c 0
 97 401 83 406 42 407 c 1
 42 434 l 1
 98 437 179 447 242 461 c 1
 179 264 l 1
 245 362 264 387 300 420 c 0
 328 447 365 461 401 461 c 0
 448 461 475 435 475 387 c 0
 475 363 464 318 448 272 c 1
 412 163 l 2
 394 108 387 86 387 76 c 0
 387 66 393 59 401 59 c 0
 417 59 431 73 472 135 c 1
EndSplineSet
MinimumDistance: x20,1 x11,14 
EndChar
StartChar: o
Encoding: 111 111 80
Width: 499
Flags: HW
HStem: -13 29<155 174> 434 27<268 286>
VStem: -3 119<78 135> 322 119<311 375>
Fore
284 461 m 0
 375 461 441 398 441 311 c 0
 441 142 305 -13 157 -13 c 0
 64 -13 -3 50 -3 135 c 0
 -3 303 138 461 284 461 c 0
275 434 m 0
 243 434 214 410 187 365 c 0
 152 302 116 157 116 78 c 0
 116 40 135 16 166 16 c 0
 201 16 230 45 259 107 c 0
 291 177 322 308 322 375 c 0
 322 412 305 434 275 434 c 0
EndSplineSet
EndChar
StartChar: p
Encoding: 112 112 81
Width: 499
Flags: HW
HStem: -205 26<-120 129 105 129> -13 35<152 168> 441 20G<309.5 371>
Fore
23 407 m 1
 23 434 l 1
 75 439 114 445 215 461 c 1
 179 347 l 1
 237 431 281 461 338 461 c 0
 404 461 445 415 445 341 c 0
 445 168 305 -13 168 -13 c 0
 148 -13 136 -9 101 9 c 1
 98 -4 l 1
 97 -12 92 -22 89 -32 c 0
 72 -100 64 -133 64 -145 c 0
 64 -168 81 -177 129 -179 c 1
 129 -205 l 1
 -120 -205 l 1
 -120 -179 l 1
 -114 -179 l 2
 -73 -179 -62 -166 -45 -104 c 2
 56 284 l 1
 67 333 78 374 78 382 c 0
 78 401 67 404 23 407 c 1
283 391 m 0
 256 393 223 368 198 330 c 0
 182 305 171 277 148 195 c 0
 122 104 113 75 113 59 c 0
 113 38 130 22 152 22 c 0
 185 22 218 50 249 104 c 0
 286 168 316 270 321 334 c 0
 324 366 308 390 283 391 c 0
EndSplineSet
EndChar
StartChar: q
Encoding: 113 113 82
Width: 499
Flags: HW
HStem: -205 26<104 116.4 345 371> -13 72<105 166> 441 20G<238 287>
VStem: 1 125<99 136>
Fore
371 -179 m 1
 371 -205 l 1
 104 -205 l 1
 104 -179 l 1
 166 -174 177 -167 193 -116 c 1
 256 98 l 1
 205 16 166 -13 105 -13 c 0
 41 -13 1 37 1 117 c 0
 1 171 19 231 53 291 c 0
 111 394 201 461 275 461 c 0
 299 461 319 454 330 439 c 0
 338 429 341 417 347 390 c 1
 362 450 l 1
 472 450 l 1
 429 294 410 223 387 145 c 0
 344 4 306 -133 306 -149 c 0
 306 -170 321 -179 357 -179 c 2
 371 -179 l 1
290 419 m 0
 262 420 227 390 195 334 c 0
 155 262 126 171 126 116 c 0
 126 78 139 59 166 59 c 0
 196 59 226 83 253 133 c 0
 289 195 325 318 325 371 c 0
 325 398 312 417 290 419 c 0
EndSplineSet
EndChar
StartChar: r
Encoding: 114 114 83
Width: 388
Flags: HW
HStem: 0 21G<-21 100> 360 101<270 333>
Fore
26 407 m 1
 26 434 l 1
 148 444 167 447 227 461 c 1
 161 253 l 1
 240 412 281 461 333 461 c 0
 366 461 390 437 390 395 c 0
 390 354 365 324 330 324 c 0
 313 324 300 331 286 349 c 0
 278 357 274 360 270 360 c 0
 256 360 234 335 209 291 c 0
 180 243 166 205 133 104 c 0
 129 89 116 45 100 0 c 1
 -21 0 l 1
 47 229 81 357 81 382 c 0
 81 401 72 404 26 407 c 1
EndSplineSet
MinimumDistance: x8,11 
EndChar
StartChar: s
Encoding: 115 115 84
Width: 388
Flags: HW
HStem: -13 31<124 132> 429 32<182 199>
VStem: 47 95<335 376> 183 95<70 119>
Fore
333 461 m 1
 311 308 l 1
 283 311 l 1
 267 393 242 429 195 429 c 0
 163 429 142 409 142 376 c 0
 142 354 160 324 198 278 c 0
 253 212 278 164 278 119 c 0
 278 44 215 -13 130 -13 c 0
 111 -13 92 -9 67 -1 c 0
 56 4 44 7 37 7 c 0
 23 7 12 -1 7 -13 c 1
 -19 -13 l 1
 3 152 l 1
 29 149 l 1
 38 97 45 73 66 48 c 0
 82 28 103 18 126 18 c 0
 158 18 183 41 183 70 c 0
 183 97 166 130 127 174 c 0
 62 253 47 283 47 335 c 0
 47 412 100 461 182 461 c 0
 201 461 214 458 239 450 c 0
 256 442 267 439 275 439 c 0
 290 439 293 442 305 461 c 1
 333 461 l 1
EndSplineSet
EndChar
StartChar: t
Encoding: 116 116 85
Width: 276
Flags: HW
HStem: -9 71<59 127> 407 43<209 281>
Fore
281 450 m 1
 281 407 l 1
 198 407 l 1
 182 346 170 306 166 289 c 0
 129 167 111 94 111 76 c 0
 111 69 119 62 127 62 c 0
 144 62 168 88 204 141 c 1
 226 127 l 1
 160 23 119 -9 59 -9 c 0
 18 -9 -12 18 -12 56 c 0
 -12 73 -1 119 13 168 c 1
 81 407 l 1
 29 407 l 1
 29 442 l 1
 108 472 160 513 212 595 c 1
 248 595 l 1
 209 450 l 1
 281 450 l 1
EndSplineSet
EndChar
StartChar: u
Encoding: 117 117 86
Width: 555
Flags: HW
HStem: -9 72<89 155>
VStem: 15 118<64 88> 267 118<51 76>
DStem: 76 306 243 461 37 173 149 154
Fore
472 133 m 1
 492 120 l 1
 439 31 391 -9 331 -9 c 0
 287 -9 267 12 267 51 c 0
 267 79 272 105 290 161 c 1
 187 18 157 -9 89 -9 c 0
 41 -9 15 16 15 64 c 0
 15 89 22 125 37 173 c 1
 76 306 l 2
 85 335 89 363 89 379 c 0
 89 398 81 404 34 407 c 1
 34 434 l 1
 82 437 141 444 215 457 c 0
 231 460 237 461 243 461 c 1
 149 154 l 2
 136 111 133 103 133 88 c 0
 133 70 141 63 155 63 c 0
 174 63 196 81 229 119 c 0
 286 190 313 256 371 450 c 1
 488 450 l 1
 410 182 l 1
 385 86 385 86 385 76 c 0
 385 67 391 59 398 59 c 0
 416 59 437 81 472 133 c 1
EndSplineSet
EndChar
StartChar: v
Encoding: 118 118 87
Width: 443
Flags: HW
HStem: -13 21G<85 111> 407 27<16 23.6364> 441 20G<325.5 355.5>
VStem: 89 113<123 166> 284 117<393 406>
Fore
16 407 m 1
 16 434 l 1
 100 445 122 450 171 461 c 1
 192 382 198 324 202 127 c 1
 300 240 328 281 328 316 c 0
 328 327 324 335 308 353 c 0
 291 374 284 387 284 404 c 0
 284 434 311 461 340 461 c 0
 371 461 401 431 401 395 c 0
 401 353 379 299 340 242 c 0
 286 161 237 108 111 -13 c 1
 85 -13 l 1
 89 123 l 1
 89 144 89 160 89 164 c 0
 89 271 79 359 62 391 c 0
 56 404 47 407 16 407 c 1
EndSplineSet
MinimumDistance: x10,7 
EndChar
StartChar: w
Encoding: 119 119 88
Width: 666
Flags: HW
HStem: -13 21G<95 122 315 341> 441 20G<360 387 538.5 569>
VStem: 95 109<149 187> 497 117<396 409>
DStem: 291 272 387 461 315 -13 419 130
Fore
16 407 m 1
 16 434 l 1
 100 448 130 453 171 461 c 1
 193 376 201 312 204 187 c 1
 261 289 275 316 360 461 c 1
 387 461 l 1
 419 130 l 1
 508 234 538 281 538 311 c 0
 538 321 532 334 519 353 c 0
 502 374 497 388 497 401 c 0
 497 434 523 461 554 461 c 0
 584 461 614 434 614 400 c 0
 614 316 527 183 341 -13 c 1
 315 -13 l 1
 291 272 l 1
 284 256 283 253 272 237 c 0
 229 158 185 81 179 73 c 2
 122 -13 l 1
 95 -13 l 1
 97 32 l 1
 97 67 97 67 97 72 c 1
 95 149 l 1
 92 289 78 381 59 398 c 0
 50 406 41 407 16 407 c 1
EndSplineSet
EndChar
StartChar: x
Encoding: 120 120 89
Width: 499
Flags: HW
HStem: -13 116<7 18> 349 112<400 422>
DStem: 132 346 264 272 163 192 296 117 163 192 173 142 119 122 149 103
Fore
400 123 m 1
 420 108 l 1
 360 21 318 -13 270 -13 c 0
 250 -13 230 -3 218 13 c 0
 196 41 187 67 173 142 c 1
 149 103 l 2
 91 7 67 -13 18 -13 c 0
 -21 -13 -45 12 -45 45 c 0
 -45 78 -22 103 9 103 c 0
 21 103 34 98 48 89 c 0
 59 83 64 81 70 81 c 0
 86 81 98 89 119 122 c 2
 163 192 l 1
 132 346 l 1
 122 395 108 413 76 413 c 0
 67 413 62 413 41 412 c 1
 41 438 l 1
 208 461 l 1
 227 434 234 409 253 324 c 1
 333 435 365 461 412 461 c 0
 441 461 469 434 469 400 c 0
 469 372 442 349 413 349 c 0
 401 349 395 350 381 359 c 0
 369 365 362 368 356 368 c 0
 333 368 308 344 272 286 c 0
 268 278 267 277 264 272 c 1
 296 117 l 2
 305 79 313 64 333 64 c 0
 352 64 360 73 400 123 c 1
EndSplineSet
MinimumDistance: x26,1 x19,22 
EndChar
StartChar: y
Encoding: 121 121 90
Width: 443
Flags: HW
HStem: -205 116<-44 -32> 412 26<15 25.6667> 441 20G<315 346.5>
VStem: 272 121<396 408>
Fore
15 412 m 1
 15 438 l 1
 79 444 116 450 163 461 c 1
 182 415 207 303 229 185 c 1
 242 110 l 1
 311 243 328 286 328 315 c 0
 328 328 322 335 305 350 c 0
 280 368 272 379 272 404 c 0
 272 435 300 461 330 461 c 0
 363 461 393 432 393 398 c 0
 393 297 272 60 144 -100 c 0
 88 -166 23 -205 -32 -205 c 0
 -67 -205 -94 -179 -94 -145 c 0
 -94 -116 -70 -89 -44 -89 c 0
 -26 -89 -1 -100 16 -111 c 0
 23 -119 42 -125 50 -125 c 0
 67 -125 94 -104 116 -76 c 0
 133 -51 142 -26 142 -4 c 0
 142 26 125 125 92 284 c 0
 78 354 62 395 44 406 c 0
 37 410 32 412 15 412 c 1
EndSplineSet
EndChar
StartChar: z
Encoding: 122 122 91
Width: 388
Flags: HW
HStem: -78 30<235 249> 353 97<56 249>
VStem: 243 103<13 19>
DStem: 249 353 368 439 -42 -1 86 104
Fore
13 294 m 1
 56 450 l 1
 368 450 l 1
 368 439 l 1
 86 104 l 1
 138 82 163 59 193 -1 c 0
 211 -37 223 -48 242 -48 c 0
 253 -48 264 -42 264 -34 c 0
 264 -29 261 -25 256 -18 c 0
 248 -6 243 1 243 13 c 0
 243 41 267 64 293 64 c 0
 321 64 346 41 346 13 c 0
 346 -38 299 -78 237 -78 c 0
 198 -78 161 -64 107 -28 c 0
 72 -4 53 4 34 4 c 0
 23 4 16 1 1 -9 c 0
 -1 -12 -10 -18 -18 -23 c 1
 -42 -1 l 1
 249 353 l 1
 104 353 l 2
 75 353 59 338 41 291 c 1
 13 294 l 1
EndSplineSet
EndChar
StartChar: braceleft
Encoding: 123 123 92
Width: 347
Flags: HW
VStem: 28 104<-97 -90> 89 101<164 181>
DStem: 187 543 294 549 142 365 250 379
Fore
437 686 m 1x40
 434 674 l 1
 352 659 315 625 294 549 c 2
 250 379 l 1
 227 294 196 268 100 249 c 1
 174 229 190 215 190 173 c 0x40
 190 149 182 103 163 42 c 0
 144 -21 132 -70 132 -97 c 0
 132 -144 154 -164 212 -174 c 1
 209 -187 l 1
 117 -185 78 -177 53 -157 c 0
 37 -141 28 -122 28 -97 c 0x80
 28 -67 44 7 63 63 c 0
 79 111 89 155 89 179 c 0
 89 214 67 233 4 249 c 1
 94 268 122 293 142 365 c 1
 187 543 l 1
 220 653 277 686 437 686 c 1x40
EndSplineSet
EndChar
StartChar: bar
Encoding: 124 124 93
Width: 219
Flags: HW
VStem: 66 88<-18 686>
Fore
66 -18 m 1
 66 686 l 1
 154 686 l 1
 154 -18 l 1
 66 -18 l 1
EndSplineSet
EndChar
StartChar: braceright
Encoding: 125 125 94
Width: 347
Flags: HW
VStem: 116 102<317 329> 174 104<598 600>
DStem: 57 120 166 133 12 -51 119 -45
Fore
-129 -187 m 1x80
 -126 -174 l 1
 -45 -160 -7 -127 12 -51 c 2
 57 120 l 1
 81 205 110 231 208 250 c 1
 133 270 116 284 116 327 c 0x80
 116 349 125 390 144 456 c 0
 166 526 174 573 174 598 c 0
 174 642 151 664 94 674 c 1
 97 686 l 1
 190 684 229 677 253 655 c 0
 271 640 278 621 278 598 c 0x40
 278 567 264 494 245 437 c 0
 229 388 218 344 218 319 c 0
 218 286 240 267 302 250 c 1
 212 230 185 207 166 133 c 1
 119 -45 l 1
 88 -154 29 -187 -129 -187 c 1x80
EndSplineSet
EndChar
StartChar: asciitilde
Encoding: 126 126 95
Width: 569
Flags: HW
Fore
461 308 m 1
 516 261 l 1
 470 196 439 174 393 174 c 0
 360 174 334 183 289 208 c 0
 242 233 211 243 176 243 c 0
 146 243 130 233 107 201 c 1
 54 248 l 1
 86 305 125 331 174 331 c 0
 212 331 233 324 311 290 c 0
 360 268 375 264 393 264 c 0
 416 264 437 275 461 308 c 1
EndSplineSet
EndChar
StartChar: uni0E10.descless
Encoding: 128 63232 96
Width: 484
Flags: W
HStem: -5 50<278 297> 166 44<180 192> 315 43<219 233>
DStem: 139 445 215 478 387 370 454 407 396 333 495 335 325 74 436 121
Fore
577 558 m 0
 577 558 l 0
 542.496 504.783 505.171 488.587 467.3 488.587 c 0
 408.394 488.587 348.166 527.77 295.177 527.77 c 0
 265.725 527.77 238.509 515.665 215 478 c 1
 454 407 l 2
 464.98 402.777 498.786 397.127 498.786 359.324 c 0
 498.786 352.369 497.642 344.324 495 335 c 2
 436 121 l 2
 416 49 360 -5 278 -5 c 0
 222.009 -5 187.036 35.0008 187.036 86.5319 c 0
 187.036 97.5845 188.645 109.167 192 121 c 1
 203 169 l 1
 194 167 188 166 180 166 c 0
 133.382 166 110.307 195.58 110.307 234.103 c 0
 110.307 245.161 112.208 256.956 116 269 c 1
 134 319 178 358 233 358 c 0
 233.908 358.011 234.809 358.016 235.704 358.016 c 0
 303.202 358.016 331.182 327.714 331.182 287.039 c 0
 331.182 277.815 329.743 268.058 327 258 c 2
 276 75 l 2
 274.895 71.134 274.248 67.1155 274.248 63.3235 c 0
 274.248 53.3835 278.694 45 291 45 c 0
 310 45 321 61 325 74 c 2
 396 333 l 2
 398.217 340.919 399.231 347.232 399.231 352.258 c 0
 399.231 363.1 394.516 367.95 387 370 c 2
 139 445 l 1
 167.604 492.344 233.177 598.061 341.477 598.061 c 0
 342.976 598.061 344.484 598.041 346 598 c 0
 389.571 598 452.531 564.837 504.994 564.837 c 0
 525.98 564.837 545.286 570.143 561 585 c 0
 566.859 590.859 574.194 594.305 579.812 594.305 c 0
 584.831 594.305 588.479 591.554 588.479 585.316 c 0
 588.479 579.473 585.277 570.569 577 558 c 0
192 210 m 0
 231.93 210 258.317 248.433 258.317 278.795 c 0
 258.317 298.618 247.07 315 221 315 c 0
 180.053 315 153.247 276.927 153.247 246.633 c 0
 153.247 226.619 164.947 210 192 210 c 0
EndSplineSet
KernsSLIF: 212 31 0 0 215 31 0 0 214 31 0 0 213 31 0 0
EndChar
StartChar: uni0E34.left
Encoding: 129 63233 97
Width: 0
Flags: W
Fore
-46 636 m 0
 -46 636 l 0
 -158.514 694.449 -247.007 726.208 -349.308 726.208 c 0
 -387.029 726.208 -426.628 721.89 -470 713 c 1
 -407.524 833.391 -295.554 893.682 -200.568 893.682 c 0
 -108.735 893.682 -32.7779 837.326 -32.7779 724.442 c 0
 -32.7779 698.052 -36.9294 668.572 -46 636 c 0
-83 708 m 1
 -88.4542 787.995 -148.263 839.343 -222.364 839.343 c 0
 -270.538 839.343 -324.753 817.641 -374 768 c 1
 -355.625 770.25 -336.863 771.375 -317.952 771.375 c 0
 -236.004 771.375 -151.25 750.25 -83 708 c 1
EndSplineSet
EndChar
StartChar: uni0E35.left
Encoding: 130 63234 98
Width: 0
Flags: W
DStem: -76 948 17 948 -104 849 -38 751
Fore
-46 636 m 0
 -46 636 l 0
 -158.514 694.449 -247.007 726.208 -349.308 726.208 c 0
 -387.029 726.208 -426.628 721.89 -470 713 c 1
 -409.733 828.74 -306.317 881.631 -215.641 881.631 c 0
 -173.914 881.631 -134.885 870.43 -104 849 c 1
 -76 948 l 1
 17 948 l 5
 -38 751 l 1
 -35.1589 746.13 -33.4709 735.164 -33.4709 720.243 c 0
 -33.4709 698.401 -37.088 668.083 -46 636 c 0
-85 710 m 1
 -88.0821 780.889 -154.24 827.459 -231.008 827.459 c 0
 -278.778 827.459 -330.656 809.426 -374 768 c 1
 -354.655 770.369 -334.997 771.569 -315.252 771.569 c 0
 -234.969 771.569 -153.221 751.735 -85 710 c 1
EndSplineSet
EndChar
StartChar: uni0E36.left
Encoding: 131 63235 99
Width: 0
Flags: W
HStem: 914 38<-61 -48>
Fore
-46 636 m 0
 -46 636 l 0
 -158.514 694.449 -247.007 726.208 -349.308 726.208 c 0
 -387.029 726.208 -426.628 721.89 -470 713 c 1
 -407.962 832.303 -301.643 881.389 -215.947 881.389 c 0
 -193.898 881.389 -173.213 878.139 -155 872 c 1
 -148 906 -107 952 -48 952 c 0
 2.10797 952 22.1919 924.178 22.1919 891.458 c 0
 22.1919 851.044 -8.44923 803.157 -51 791 c 1
 -38.158 779.64 -33.1227 754.374 -33.1227 725.444 c 0
 -33.1227 695.803 -38.4088 662.316 -46 636 c 0
-85 819 m 0
 -85 819 l 0
 -45.7343 819 -20.6265 852.625 -20.6265 879.866 c 0
 -20.6265 898.413 -32.2657 914 -59 914 c 0
 -98.2657 914 -123.373 880.375 -123.373 853.134 c 0
 -123.373 834.587 -111.734 819 -85 819 c 0
-85 710 m 1
 -88.0821 780.889 -154.24 827.459 -231.008 827.459 c 0
 -278.778 827.459 -330.656 809.426 -374 768 c 1
 -354.655 770.369 -334.997 771.569 -315.252 771.569 c 0
 -234.969 771.569 -153.221 751.735 -85 710 c 1
EndSplineSet
EndChar
StartChar: uni0E37.left
Encoding: 132 63236 100
Width: 0
Flags: W
HStem: 710 21G<-85 -85>
DStem: -190 948 -120 948 -209 882 -141 869 -57 948 15 948 -89 839 -40 743
Fore
-85 710 m 0
 -85 710 l 0
 -88.0821 780.889 -154.24 827.459 -231.008 827.459 c 0
 -278.778 827.459 -330.656 809.426 -374 768 c 1
 -354.655 770.369 -334.997 771.569 -315.252 771.569 c 0
 -234.969 771.569 -153.221 751.735 -85 710 c 0
-40 743 m 1
 -36.556 738.695 -34.5946 727.162 -34.5946 711.593 c 0
 -34.5946 690.996 -38.027 663.336 -46 636 c 1
 -158.514 694.449 -247.007 726.208 -349.308 726.208 c 0
 -387.029 726.208 -426.628 721.89 -470 713 c 1
 -409.575 829.888 -303.031 882.014 -211.605 882.014 c 0
 -210.735 882.014 -209.867 882.009 -209 882 c 1
 -190 948 l 1
 -120 948 l 1
 -141 869 l 1
 -129 866 -100 851 -89 839 c 1
 -57 948 l 1
 15 948 l 5
 -40 743 l 1
EndSplineSet
EndChar
StartChar: ellipsis
Encoding: 133 8230 101
Width: 951
Flags: W
HStem: -14 21G<139.55 172.5 457.127 489.5 774.223 807>
Fore
876 57 m 0
 876 57 l 0
 865 18 825 -14 789 -14 c 0
 759.446 -14 741.349 8.9148 741.349 37.5923 c 0
 741.349 43.8467 742.21 50.3753 744 57 c 0
 754 92 794 126 828 126 c 0
 857.413 126 878.352 103.4 878.352 74.2261 c 0
 878.352 68.6846 877.596 62.906 876 57 c 0
560 57 m 0
 560 57 l 0
 549 18 507 -14 472 -14 c 0
 442.253 -14 423.431 9.21383 423.431 38.1525 c 0
 423.431 44.2362 424.263 50.5728 426 57 c 0
 436 92 476 126 511 126 c 0
 540.568 126 562.285 103.162 562.285 73.7656 c 0
 562.285 68.3648 561.552 62.7426 560 57 c 0
242 57 m 0
 231 18 191 -14 154 -14 c 0
 125.099 -14 106.426 9.18289 106.426 38.0947 c 0
 106.426 44.196 107.257 50.5524 109 57 c 0
 119 92 160 126 193 126 c 0
 223.269 126 244.348 103.377 244.348 74.1815 c 0
 244.348 68.6537 243.592 62.8902 242 57 c 0
EndSplineSet
EndChar
StartChar: uni0E48.low_left
Encoding: 134 63237 102
Width: 0
Flags: W
DStem: -93 926 -0 926 -159 688 -66 688
Fore
-0 926 m 1
 -66 688 l 1
 -159 688 l 1
 -93 926 l 1
 -0 926 l 1
EndSplineSet
EndChar
StartChar: uni0E49.low_left
Encoding: 135 63238 103
Width: 0
Flags: W
HStem: 892 48<-285 -269>
Fore
43 940 m 1
 43 940 l 0
 -51.8591 698.61 -240.097 665.985 -343.741 665.985 c 0
 -374.487 665.985 -397.789 668.856 -409 670 c 1
 -398 710 l 1
 -352 716 -329 736 -315 757 c 1
 -314 760 l 1
 -314 760 -319.062 758.312 -328.344 758.312 c 0
 -331.438 758.312 -335 758.5 -339 759 c 0
 -374.479 765.283 -390.426 791.643 -390.426 822.383 c 0
 -390.426 874.82 -344.021 940 -269 940 c 0
 -209.267 940 -198.214 903.285 -198.214 876.488 c 0
 -198.214 861.563 -201.642 849.715 -202 849 c 0
 -225 765 -278 725 -278 725 c 1
 -279 722 l 1
 -279 722 -107 737 -54 940 c 1
 43 940 l 1
-308 800 m 0
 -273.016 800 -250.038 833.471 -250.038 860.035 c 0
 -250.038 877.512 -259.984 892 -283 892 c 0
 -317.984 892 -340.962 858.529 -340.962 831.965 c 0
 -340.962 814.488 -331.016 800 -308 800 c 0
EndSplineSet
EndChar
StartChar: uni0E4A.low_left
Encoding: 136 63239 104
Width: 0
Flags: W
HStem: 677 31<-337 -324> 785 31<-310 -297>
Fore
28 917 m 1
 28 917 l 0
 3 790 -105 677 -238 677 c 1
 -228 713 l 1
 -179.123 736.486 -157.242 785.76 -157.242 822.456 c 0
 -157.242 843.571 -164.486 860.521 -178 866 c 1
 -240 828 l 1
 -289 869 l 1
 -321 863 -345 822 -348 799 c 1
 -345 796 l 1
 -345 796 -329 816 -297 816 c 0
 -265.411 816 -245.631 798.942 -245.631 770.141 c 0
 -245.631 763.384 -246.72 755.981 -249 748 c 0
 -260 705 -296 677 -335 677 c 0
 -381.596 677 -404.469 709.195 -404.469 755.755 c 0
 -404.469 771.148 -401.969 788.111 -397 806 c 0
 -385 851 -330 919 -269 923 c 1
 -228 874 l 1
 -159 923 l 1
 -114.187 908.221 -98.0108 878.215 -98.0108 845.659 c 0
 -98.0108 809.924 -117.499 771.117 -140 746 c 1
 -137 745 l 1
 -90 771 -46 833 -42 917 c 1
 28 917 l 1
-329 708 m 0
 -298.743 708 -278.74 736.197 -278.74 758.464 c 0
 -278.74 772.994 -287.257 785 -307 785 c 0
 -336.238 785 -355.829 756.43 -355.829 734.096 c 0
 -355.829 719.764 -347.762 708 -329 708 c 0
EndSplineSet
EndChar
StartChar: uni0E4B.low_left
Encoding: 137 63240 105
Width: 0
Flags: W
HStem: 691 21G<-210 -141> 773 75<-259 -190 -96 -26>
DStem: -190 773 -117 773 -210 691 -141 691 -169 849 -96 849 -259 848 -6 848 -147 931 -72 931 -169 849 -96 849
Fore
-26 774 m 1
 -117 773 l 1
 -141 691 l 1
 -210 691 l 1
 -190 773 l 1
 -279 774 l 1
 -259 848 l 1
 -169 849 l 1
 -147 931 l 1
 -72 931 l 1
 -96 849 l 1
 -6 848 l 1
 -26 774 l 1
EndSplineSet
MinimumDistance: x6,11 x5,0 
EndChar
StartChar: uni0E4C.low_left
Encoding: 138 63241 106
Width: 0
Flags: W
HStem: 679 43<-227 -213>
Fore
38 954 m 1
 38 954 l 0
 -14 857 -126 836 -151 829 c 1
 -152 826 l 1
 -133.772 825.207 -118.684 810.596 -118.684 783.66 c 0
 -118.684 776.609 -119.718 768.714 -122 760 c 0
 -135 714 -178 679 -227 679 c 0
 -269.493 679 -291.285 706.378 -291.285 741.491 c 0
 -291.285 749.347 -290.194 757.59 -288 766 c 0
 -276 806 -234 859 -142 876 c 0
 -96 885 -56 919 -31 975 c 1
 38 954 l 1
-215 722 m 0
 -184.016 722 -163.367 752.635 -163.367 776.681 c 0
 -163.367 792.215 -171.984 805 -192 805 c 0
 -224.51 805 -245.785 774.916 -245.785 750.972 c 0
 -245.785 735.145 -236.49 722 -215 722 c 0
EndSplineSet
EndChar
StartChar: uni0E48.low
Encoding: 139 63242 107
Width: 0
Flags: W
DStem: 73 926 166 926 7 688 100 688
AnchorPoint: "AboveBase" 85.2891 629.76 mark 0
Fore
166 926 m 1
 100 688 l 1
 7 688 l 1
 73 926 l 1
 166 926 l 1
EndSplineSet
Substitution: 0 65534 'amni' uni0E4D
EndChar
StartChar: uni0E49.low
Encoding: 140 63243 108
Width: 0
Flags: W
HStem: 925 53<-36 -18>
AnchorPoint: "AboveBase" 85.2891 629.76 mark 0
Fore
324 972 m 1
 324 972 l 0
 225.335 707.08 5.95729 673.324 -106.715 673.324 c 0
 -139.072 673.324 -162.629 676.108 -172 677 c 1
 -158 727 l 1
 -131 730 -92 742 -69 777 c 1
 -68 780 l 1
 -68 780 -75.3125 778.312 -85.2969 778.312 c 0
 -88.625 778.312 -92.25 778.5 -96 779 c 0
 -134.706 783.094 -152.359 811.705 -152.359 846.017 c 0
 -152.359 903.898 -102.128 978 -18 978 c 0
 47.7895 978 59.0429 935.583 59.0429 906.276 c 0
 59.0429 891.037 56 879.342 56 879 c 0
 26 771 -36 736 -36 736 c 1
 -35 733 l 1
 -35 733 173 763 221 972 c 1
 324 972 l 1
-65 823 m 0
 -24.5611 823 2.03479 860.158 2.03478 889.619 c 0
 2.03478 908.97 -9.43895 925 -36 925 c 0
 -72.8698 925 -98.0338 886.484 -98.0338 856.788 c 0
 -98.0338 838.158 -88.1302 823 -65 823 c 0
EndSplineSet
Substitution: 0 65534 'amni' uni0E4D
EndChar
StartChar: uni0E4A.low
Encoding: 141 63244 109
Width: 0
Flags: W
HStem: 671 40<-151 -138> 794 39<-119 -106>
AnchorPoint: "AboveBase" 85.2891 629.76 mark 0
Fore
284 954 m 1
 284 954 l 0
 247 803 121 671 -36 671 c 1
 -24 713 l 1
 34.8029 740.484 61.3321 799.833 61.3321 843.524 c 0
 61.3321 868.19 52.8769 887.866 37 894 c 1
 -41 848 l 1
 -96 899 l 1
 -134 891 -163 842 -167 816 c 1
 -164 809 l 1
 -164 809 -144 833 -106 833 c 0
 -69.6957 833 -45.6456 812.576 -45.6456 779.593 c 0
 -45.6456 772.602 -46.7263 765.046 -49 757 c 0
 -63 705 -104 671 -151 671 c 0
 -205 671 -232 708.125 -232 762.969 c 0
 -232 781.25 -229 801.5 -223 823 c 0
 -208 877 -144 955 -73 963 c 1
 -25 906 l 1
 59 963 l 1
 111.993 945.336 131.253 909.21 131.253 870.292 c 0
 131.253 827.69 108.175 781.742 81 753 c 1
 83 750 l 1
 140 782 191 856 197 954 c 1
 284 954 l 1
-140 711 m 0
 -109.526 711 -89.0812 741.832 -89.0812 765.913 c 0
 -89.0812 781.342 -97.4743 794 -117 794 c 0
 -149.51 794 -170.785 763.916 -170.785 739.972 c 0
 -170.785 724.145 -161.49 711 -140 711 c 0
EndSplineSet
Substitution: 0 65534 'amni' uni0E4D
EndChar
StartChar: uni0E4B.low
Encoding: 142 63245 110
Width: 0
Flags: W
HStem: 768 83<-42 33 145 219>
DStem: 33 768 120 768 10 677 95 677 55 852 145 852 -42 851 241 851 78 942 171 942 55 852 145 852
AnchorPoint: "AboveBase" 85.2891 629.76 mark 0
Fore
219 770 m 1
 120 768 l 1
 95 677 l 1
 10 677 l 1
 33 768 l 1
 -64 770 l 1
 -42 851 l 1
 55 852 l 1
 78 942 l 1
 171 942 l 1
 145 852 l 1
 241 851 l 1
 219 770 l 1
EndSplineSet
MinimumDistance: x6,11 x5,0 
Substitution: 0 65534 'amni' uni0E4D
EndChar
StartChar: uni0E4C.low
Encoding: 143 63246 111
Width: 0
Flags: W
HStem: 671 48<17 31>
AnchorPoint: "AboveBase" 85.2891 629.76 mark 0
Fore
308 974 m 1
 308 974 l 0
 250 866 128 843 101 837 c 1
 101 836 l 1
 120.064 834.411 137.867 816.417 137.867 786.027 c 0
 137.867 778.159 136.673 769.46 134 760 c 0
 120 710 72 671 17 671 c 0
 -28.6324 671 -51.192 700.482 -51.192 738.409 c 0
 -51.192 747.857 -49.792 757.829 -47 768 c 0
 -35 811 10 865 111 889 c 0
 160 902 207 935 234 998 c 1
 308 974 l 1
29 719 m 0
 63.4753 719 86.2443 751.924 86.2443 777.945 c 0
 86.2443 794.946 76.5247 809 54 809 c 0
 19.5247 809 -3.24435 776.076 -3.24435 750.055 c 0
 -3.24435 733.054 6.47527 719 29 719 c 0
EndSplineSet
EndChar
StartChar: uni0E0D.descless
Encoding: 144 63247 112
Width: 762
Flags: W
HStem: -8 49<515 530> 378 44<201 217 201 368> 576 20G<741 839>
DStem: 166 315 267 326 113 124 228 183 472 401 571 401 395 124 488 101 741 596 839 596 604 100 706 117
Fore
839 596 m 1
 706 117 l 1
 706 117 l 0
 691 61 607 -8 515 -8 c 0
 438.644 -8 390.994 37.6348 390.994 94.8048 c 0
 390.994 104.272 392.301 114.055 395 124 c 2
 472 401 l 2
 476.898 418.632 479.157 434.681 479.157 449.125 c 0
 479.157 512.145 436.147 544.593 381.674 544.593 c 0
 321.186 544.593 246.564 504.584 201 422 c 1
 380 422 l 1
 368 378 l 1
 346 378 321 378 321 378 c 2
 294 378 275 355 267 326 c 2
 228 183 l 1
 239.35 185.631 249.637 186.849 258.898 186.849 c 0
 304.596 186.849 325.302 157.186 325.302 121.174 c 0
 325.302 67.3851 279.108 -0.568347 201 -5 c 0
 198.77 -5.08744 196.59 -5.13044 194.459 -5.13044 c 0
 125.067 -5.13044 107.316 40.4511 107.316 81.8611 c 0
 107.316 97.3617 109.803 112.278 113 124 c 2
 166 315 l 2
 172 336 196 373 217 378 c 1
 137 378 l 1
 181.372 522.079 315.127 598.03 423.749 598.03 c 0
 508.351 598.03 577.707 551.955 577.707 456.107 c 0
 577.707 439.279 575.569 420.917 571 401 c 1
 488 101 l 2
 486.33 94.8783 485.521 88.9631 485.521 83.3884 c 0
 485.521 58.9118 501.122 41 528 41 c 0
 563 41 594 66 604 100 c 1
 741 596 l 1
 839 596 l 1
213 38 m 0
 253.947 38 280.753 76.0734 280.753 106.367 c 0
 280.753 126.381 269.053 143 242 143 c 0
 201.053 143 174.247 104.927 174.247 74.6328 c 0
 174.247 54.6185 185.947 38 213 38 c 0
EndSplineSet
EndChar
StartChar: quoteleft
Encoding: 145 8216 113
Width: 317
Flags: W
Fore
381 524 m 0
 369 479 333 452 292 452 c 0
 247.9 452 232.71 477.48 232.71 511.633 c 0
 232.71 526.27 235.5 542.5 240 559 c 0
 262 637 348 713 410 731 c 1
 414 703 l 1
 359 680 308 622 299 588 c 0
 298.5 586.5 298 584.25 298 582.625 c 0
 298 581.449 298.262 580.6 298.975 580.6 c 0
 299.248 580.6 299.586 580.724 300 581 c 0
 314 587 318 588 336 588 c 0
 363.996 588 383.856 571.728 383.856 543.65 c 0
 383.856 537.628 382.942 531.064 381 524 c 0
EndSplineSet
EndChar
StartChar: quoteright
Encoding: 146 8217 114
Width: 317
Flags: W
Fore
405 624 m 0
 383 545 297 470 235 452 c 1
 229 479 l 1
 286 502 336 561 345 594 c 0
 345.547 596.188 346.393 598.974 346.393 600.722 c 0
 346.393 601.733 346.11 602.397 345.322 602.397 c 0
 344.981 602.397 344.547 602.273 344 602 c 0
 331 596 326 594 309 594 c 0
 280.839 594 260.225 611.15 260.225 639.769 c 0
 260.225 645.703 261.111 652.13 263 659 c 0
 275 703 312 731 353 731 c 0
 397.1 731 412.29 705.52 412.29 671.367 c 0
 412.29 656.73 409.5 640.5 405 624 c 0
EndSplineSet
EndChar
StartChar: quotedblleft
Encoding: 147 8220 115
Width: 451
Flags: W
Fore
550 524 m 0
 550 524 l 0
 538 479 503 452 462 452 c 0
 417.9 452 402.71 477.48 402.71 511.633 c 0
 402.71 526.27 405.5 542.5 410 559 c 0
 432 637 517 713 580 731 c 1
 585 703 l 1
 529 680 478 622 469 588 c 0
 468.5 586.5 468 584.25 468 582.625 c 0
 468 581.449 468.262 580.6 468.975 580.6 c 0
 469.248 580.6 469.586 580.724 470 581 c 0
 483 587 488 588 505 588 c 0
 533.661 588 552.935 571.906 552.935 544.11 c 0
 552.935 537.963 551.992 531.244 550 524 c 0
330 524 m 0
 318 479 281 452 240 452 c 0
 195.9 452 180.71 477.48 180.71 511.633 c 0
 180.71 526.27 183.5 542.5 188 559 c 0
 210 637 296 713 358 731 c 1
 364 703 l 1
 307 680 257 622 248 588 c 0
 247.5 586.5 247 584.25 247 582.625 c 0
 247 581.449 247.262 580.6 247.975 580.6 c 0
 248.248 580.6 248.586 580.724 249 581 c 0
 262 587 267 588 284 588 c 0
 312.161 588 332.775 571.536 332.775 543.153 c 0
 332.775 537.267 331.889 530.87 330 524 c 0
EndSplineSet
EndChar
StartChar: quotedblright
Encoding: 148 8221 116
Width: 451
Flags: W
Fore
587 621 m 0
 587 621 l 0
 565 542 480 467 418 449 c 1
 411 476 l 1
 468 499 518 558 527 591 c 0
 527.547 592.641 528.393 595.478 528.393 597.385 c 0
 528.393 598.54 528.083 599.354 527.207 599.354 c 0
 526.886 599.354 526.487 599.244 526 599 c 0
 513 593 508 591 491 591 c 0
 462.839 591 442.225 608.15 442.225 636.769 c 0
 442.225 642.703 443.111 649.13 445 656 c 0
 457 700 494 728 535 728 c 0
 579.1 728 594.29 702.52 594.29 668.367 c 0
 594.29 653.73 591.5 637.5 587 621 c 0
366 621 m 0
 344 542 259 467 197 449 c 1
 190 476 l 1
 247 499 297 558 306 591 c 0
 306.547 592.641 307.393 595.478 307.393 597.385 c 0
 307.393 598.54 307.083 599.354 306.207 599.354 c 0
 305.886 599.354 305.487 599.244 305 599 c 0
 292 593 287 591 270 591 c 0
 242.004 591 222.144 607.95 222.144 636.268 c 0
 222.144 642.341 223.058 648.936 225 656 c 0
 237 700 273 728 314 728 c 0
 358.1 728 373.29 702.52 373.29 668.367 c 0
 373.29 653.73 370.5 637.5 366 621 c 0
EndSplineSet
EndChar
StartChar: bullet
Encoding: 149 8226 117
Width: 367
Flags: W
Fore
407 319 m 0
 386 241 309 177 232 177 c 0
 171.55 177 131.671 220.887 131.671 280.268 c 0
 131.671 292.595 133.39 305.591 137 319 c 0
 157 398 237 462 311 462 c 0
 374.011 462 412.914 419.142 412.914 360.278 c 0
 412.914 347.21 410.997 333.352 407 319 c 0
EndSplineSet
EndChar
StartChar: endash
Encoding: 150 8211 118
Width: 732
Flags: W
HStem: 201 72<96 767>
Fore
767 201 m 1
 77 201 l 1
 97 273 l 1
 787 273 l 1
 767 201 l 1
EndSplineSet
EndChar
StartChar: emdash
Encoding: 151 8212 119
Width: 1464
Flags: W
HStem: 201 72<84 1512>
Fore
1512 201 m 1
 65 201 l 1
 85 273 l 1
 1532 273 l 1
 1512 201 l 1
EndSplineSet
EndChar
StartChar: uni0E31.left
Encoding: 152 63248 120
Width: 0
Flags: W
HStem: 676 100<-168 -81> 880 49<-140 -125>
Fore
344 923 m 1
 344 923 l 0
 256 737 59 676 -81 676 c 0
 -181.119 676 -260.042 723.1 -260.042 794.349 c 0
 -260.042 803.516 -258.736 813.083 -256 823 c 0
 -239 882 -182 929 -125 929 c 0
 -76.1939 929 -48.5614 899.886 -48.5614 857.267 c 0
 -48.5614 847.493 -50.015 837.007 -53 826 c 0
 -64 786 -94 754 -138 737 c 1
 -115.045 729.969 -88.9251 726.188 -61.144 726.188 c 0
 45.4112 726.188 176.405 781.811 247 923 c 1
 344 923 l 1
-168 776 m 0
 -128.07 776 -101.683 814.067 -101.683 844.14 c 0
 -101.683 863.774 -112.93 880 -139 880 c 0
 -179.947 880 -206.753 842.289 -206.753 812.284 c 0
 -206.753 792.46 -195.053 776 -168 776 c 0
EndSplineSet
EndChar
StartChar: uni0E4D.left
Encoding: 153 63249 121
Width: 0
Flags: W
HStem: 673 54<-133 -118> 831 57<-91 -74>
Fore
-133 673 m 0
 -133 673 l 0
 -188.361 673 -212.313 707.104 -212.313 748.147 c 0
 -212.313 810.155 -157.639 888 -74 888 c 0
 -20.6059 888 2.44089 854.368 2.44089 813.707 c 0
 2.44089 751.562 -51.3941 673 -133 673 c 0
-118 727 m 0
 -78.2895 727 -52.3354 764.649 -52.3354 794.643 c 0
 -52.3354 814.499 -63.7105 831 -90 831 c 0
 -130.726 831 -157.104 793.696 -157.104 763.771 c 0
 -157.104 743.731 -145.274 727 -118 727 c 0
EndSplineSet
EndChar
StartChar: uni0E47.left
Encoding: 154 63250 122
Width: 0
Flags: W
Fore
72 1008 m 1
 72 1008 l 0
 41.1395 904.197 -31.6986 875.603 -96.6264 875.603 c 0
 -101.128 875.603 -105.591 875.741 -110 876 c 0
 -142 877 -199 886 -236 888 c 0
 -237.597 888.114 -239.187 888.17 -240.768 888.17 c 0
 -286.429 888.17 -324.902 841.19 -324.902 781.307 c 0
 -324.902 770.555 -323.662 759.387 -321 748 c 1
 -302.805 774.282 -280.85 784.051 -259.629 784.051 c 0
 -228.367 784.051 -198.7 762.848 -185 742 c 1
 -185 742 -181.629 738.966 -178.018 738.966 c 0
 -175.41 738.966 -172.677 740.548 -171 746 c 0
 -155.5 801.5 -107.25 830 -66.875 830 c 0
 -33.6971 830 -5.8369 810.755 -5.8369 771.433 c 0
 -5.8369 762.903 -7.1479 753.428 -10 743 c 0
 -26 684 -81 656 -118 656 c 0
 -195 656 -218 733 -270 733 c 0
 -296.346 733 -308.376 713.045 -308.376 690.563 c 0
 -308.376 678.912 -305.144 666.582 -299 656 c 1
 -364 657 l 1
 -385.906 684.184 -395.691 717.777 -395.691 752.227 c 0
 -395.691 843.515 -326.975 940.818 -232.99 940.818 c 0
 -228.061 940.818 -223.062 940.55 -218 940 c 0
 -188 937 -132 931 -104 928 c 0
 -100.97 927.587 -97.3512 927.287 -93.3274 927.287 c 0
 -68.1392 927.287 -27.0716 939.019 -15 1008 c 1
 72 1008 l 1
-51 743 m 0
 -49.6051 748.144 -48.9627 752.839 -48.9627 757.086 c 0
 -48.9627 777.195 -63.368 787.25 -80.5 787.25 c 0
 -101.25 787.25 -126 772.5 -134 743 c 0
 -135.395 737.944 -136.037 733.328 -136.037 729.153 c 0
 -136.037 709.384 -121.632 699.5 -104.5 699.5 c 0
 -83.75 699.5 -59 714 -51 743 c 0
EndSplineSet
EndChar
StartChar: uni0E48.left
Encoding: 155 63251 123
Width: 0
Flags: W
DStem: 15 1227 108 1227 -42 1021 51 1021
Fore
108 1227 m 1
 51 1021 l 1
 -42 1021 l 1
 15 1227 l 1
 108 1227 l 1
EndSplineSet
EndChar
StartChar: uni0E49.left
Encoding: 156 63252 124
Width: 0
Flags: W
HStem: 1187 42<-4 11>
Fore
289 1229 m 1
 289 1229 l 0
 206.719 1017.86 38.2728 991.105 -53.1025 991.105 c 0
 -79.4425 991.105 -99.3783 993.329 -109 994 c 1
 -100 1029 l 1
 -60 1034 -41 1052 -26 1071 c 1
 -25 1074 l 1
 -25 1074 -33.0816 1071.8 -42.9475 1071.8 c 0
 -44.5918 1071.8 -46.2857 1071.86 -48 1072 c 0
 -79.53 1077.19 -93.5851 1100.14 -93.5851 1126.95 c 0
 -93.5851 1172.41 -53.164 1229 11 1229 c 0
 64.3651 1229 73.6828 1196.39 73.6828 1173.06 c 0
 73.6828 1160.54 71 1150.7 71 1150 c 0
 51 1077 5 1043 5 1043 c 1
 4 1040 l 1
 4 1040 160 1054 205 1229 c 1
 289 1229 l 1
-23 1109 m 0
 8.55869 1109 28.7716 1136.66 28.7715 1159.03 c 0
 28.7715 1174.23 19.4413 1187 -2 1187 c 0
 -32.0369 1187 -51.6081 1158.85 -51.6081 1136.37 c 0
 -51.6081 1121.43 -42.9631 1109 -23 1109 c 0
EndSplineSet
EndChar
StartChar: uni0E4A.left
Encoding: 157 63253 125
Width: 0
Flags: W
HStem: 986 35<-80 -68> 1089 35<-53 -41>
Fore
285 1226 m 1
 285 1226 l 0
 258 1098 150 986 16 986 c 1
 26 1021 l 1
 75.9359 1044.69 98.4111 1095.02 98.4111 1132.1 c 0
 98.4111 1152.94 91.3124 1169.6 78 1175 c 1
 15 1137 l 1
 -33 1178 l 1
 -65 1172 -89 1130 -93 1107 c 1
 -91 1104 l 1
 -91 1104 -73 1124 -41 1124 c 0
 -10.2438 1124 9.37588 1106.97 9.37588 1078.74 c 0
 9.37588 1072.09 8.28753 1064.82 6 1057 c 0
 -6 1014 -41 986 -80 986 c 0
 -126.596 986 -149.469 1018.19 -149.469 1064.76 c 0
 -149.469 1080.15 -146.969 1097.11 -142 1115 c 0
 -129 1160 -75 1227 -14 1232 c 1
 28 1183 l 1
 97 1232 l 1
 141.813 1217.22 157.989 1187.22 157.989 1154.66 c 0
 157.989 1118.92 138.501 1080.12 116 1055 c 1
 117 1054 l 1
 166 1080 209 1141 214 1226 c 1
 285 1226 l 1
-70 1021 m 0
 -43.4529 1021 -26.0064 1045.75 -26.0064 1065.39 c 0
 -26.0064 1078.3 -33.5471 1089 -51 1089 c 0
 -77.0384 1089 -94.2763 1064.07 -94.2763 1044.39 c 0
 -94.2763 1031.58 -86.9616 1021 -70 1021 c 0
EndSplineSet
EndChar
StartChar: uni0E4B.left
Encoding: 158 63254 126
Width: 0
Flags: W
HStem: 1074 75<-90 -21 73 142>
DStem: -21 1074 52 1074 -42 995 28 995 -0 1150 73 1150 -90 1149 163 1149 21 1229 96 1229 -0 1150 73 1150
Fore
142 1075 m 1
 52 1074 l 1
 28 995 l 1
 -42 995 l 1
 -21 1074 l 1
 -111 1075 l 1
 -90 1149 l 1
 -0 1150 l 1
 21 1229 l 1
 96 1229 l 1
 73 1150 l 1
 163 1149 l 1
 142 1075 l 1
EndSplineSet
MinimumDistance: x6,11 x5,0 
EndChar
StartChar: uni0E4C.left
Encoding: 159 63255 127
Width: 0
Flags: W
HStem: 926 42<-38 -25>
Fore
226 1201 m 1
 226 1201 l 0
 174 1104 64 1086 40 1080 c 1
 39 1077 l 1
 56.2589 1075.43 70.4407 1059.09 70.4407 1032.33 c 0
 70.4407 1024.97 69.3705 1016.84 67 1008 c 0
 54 962 11 926 -38 926 c 0
 -80.2112 926 -102.654 953.676 -102.654 988.701 c 0
 -102.654 996.823 -101.447 1005.34 -99 1014 c 0
 -88 1054 -45 1106 46 1123 c 0
 93 1132 132 1166 158 1223 c 1
 226 1201 l 1
-27 968 m 0
 3.47429 968 23.9188 998.832 23.9188 1022.91 c 0
 23.9188 1038.34 15.5257 1051 -4 1051 c 0
 -36.5105 1051 -57.7847 1020.92 -57.7847 996.972 c 0
 -57.7847 981.145 -48.4895 968 -27 968 c 0
EndSplineSet
EndChar
StartChar: uni0E01
Encoding: 161 3585 129
Width: 574
Flags: W
HStem: 0 21G<79 178 391 487> 378 44<202 217 202 368>
DStem: 166 315 268 326 79 0 178 0 502 399 599 404 391 0 487 0
Fore
487 0 m 1
 391 0 l 1
 502 399 l 2
 506.378 415.024 508.41 429.729 508.41 443.109 c 0
 508.41 509.797 457.931 543.556 395.876 543.556 c 0
 328.195 543.556 246.744 503.397 202 422 c 1
 380 422 l 1
 368 378 l 1
 346 378 321 378 321 378 c 2
 296 378 276 355 268 326 c 2
 178 0 l 1
 79 0 l 1
 166 315 l 2
 172 336 196 373 217 378 c 1
 137 378 l 1
 181.691 521.538 324.245 598.177 440.385 598.177 c 0
 530.659 598.177 604.975 551.875 604.975 454.699 c 0
 604.975 439.114 603.064 422.221 599 404 c 1
 487 0 l 1
EndSplineSet
EndChar
StartChar: uni0E02
Encoding: 162 3586 130
Width: 557
Flags: W
HStem: -8 46<340 355> 298 35<196 209> 432 35<233 245> 576 20G<539 637>
DStem: 345 472 433 436 247 118 331 69 539 596 637 596 393 68 505 118
Fore
637 596 m 1
 505 118 l 1
 505 118 l 0
 485 46 424 -8 340 -8 c 0
 278.362 -8 241.715 29.8236 241.715 82.157 c 0
 241.715 93.502 243.437 105.529 247 118 c 2
 345 472 l 2
 346.85 478.807 347.714 485.193 347.714 491.124 c 0
 347.714 523.469 322.011 542.302 290.246 542.302 c 0
 249.111 542.302 197.811 510.72 179 436 c 1
 201 461 225 467 245 467 c 0
 286.471 467 306.953 443.467 306.953 410.603 c 0
 306.953 402.26 305.632 393.314 303 384 c 0
 291 339 252 298 198 298 c 0
 145.868 298 126.859 335.369 126.859 381.327 c 0
 126.859 405.895 132.291 432.919 141 458 c 0
 169 535 238 598 328 598 c 0
 403.208 598 440.812 553.502 440.812 489.81 c 0
 440.812 473.049 438.208 454.958 433 436 c 2
 331 69 l 2
 330.365 66.6197 330.058 64.2141 330.058 61.8514 c 0
 330.058 49.3249 338.698 38 353 38 c 0
 370 38 389 54 393 68 c 1
 539 596 l 1
 637 596 l 1
207 333 m 0
 245.185 333 270.512 369.369 270.512 398.02 c 0
 270.512 416.64 259.815 432 235 432 c 0
 196.815 432 171.488 395.631 171.488 366.98 c 0
 171.488 348.36 182.185 333 207 333 c 0
EndSplineSet
EndChar
StartChar: uni0E03
Encoding: 163 3587 131
Width: 607
Flags: W
HStem: -8 46<389 409> 255 37<195 208> 390 37<231 243> 576 20G<587 685>
DStem: 256 536 278 599 304 459 323 525 395 485 486 455 293 118 379 69 587 596 685 596 441 68 553 118
Fore
685 596 m 1
 553 118 l 1
 553 118 l 0
 533 46 473 -8 389 -8 c 0
 325.841 -8 288.235 32.7469 288.235 84.9699 c 0
 288.235 95.5876 289.79 106.68 293 118 c 2
 395 485 l 2
 396.699 491.794 397.705 498.127 397.705 503.685 c 0
 397.705 514.486 393.904 522.359 384 525 c 1
 304 459 l 1
 256 536 l 1
 220 515 184 476 172 395 c 1
 194 421 225 427 243 427 c 0
 288.071 425.803 307.528 398.199 307.528 365.442 c 0
 307.528 316.072 263.328 255 196 255 c 0
 138.581 255 120.365 294.638 120.365 344.878 c 0
 120.365 370.762 125.2 399.459 132 427 c 0
 146 478 188 559 278 599 c 1
 323 525 l 1
 411 599 l 1
 474.254 591.182 494.573 555.077 494.573 511.148 c 0
 494.573 493.268 491.207 474.092 486 455 c 2
 379 69 l 2
 378.284 66.3164 377.921 63.6007 377.921 60.9505 c 0
 377.921 48.7871 385.578 38 402 38 c 0
 421 38 437 54 441 68 c 1
 587 596 l 5
 685 596 l 1
206 292 m 0
 243.966 292 268.857 327.59 268.857 355.875 c 0
 268.857 374.525 258.034 390 233 390 c 0
 195.034 390 170.143 354.41 170.143 326.125 c 0
 170.143 307.475 180.966 292 206 292 c 0
EndSplineSet
EndChar
StartChar: uni0E04
Encoding: 164 3588 132
Width: 561
Flags: W
HStem: 0 21G<85 183 381 478> 249 44<317 331> 398 46<356 369> 547 52<379 406>
DStem: 150 233 240 206 85 0 183 0 489 389 590 404 381 0 478 0
Fore
478 0 m 1
 381 0 l 1
 489 389 l 2
 494.983 410.86 498.053 431.026 498.053 449.119 c 0
 498.053 509.658 463.68 547 389 547 c 0
 286 547 205 482 182 401 c 0
 179.463 391.775 178.416 383.189 178.416 375.265 c 0
 178.416 348.83 190.076 329.771 197 319 c 1
 200 319 l 1
 236 387 282 444 369 444 c 0
 420.644 444 443.149 412.257 443.149 374.385 c 0
 443.149 318.391 393.953 249 317 249 c 0
 293 249 274 258 265 267 c 1
 256 257 248 233 240 206 c 2
 183 0 l 1
 85 0 l 1
 150 233 l 2
 151.06 237.048 151.526 240.976 151.526 244.855 c 0
 151.526 272.871 127.239 298.371 127.239 348.677 c 0
 127.239 363.673 129.397 380.872 135 401 c 0
 170 525 283 599 402 599 c 4
 513.164 599 599.505 564.248 599.505 466.076 c 0
 599.505 447.675 596.472 427.046 590 404 c 2
 478 0 l 1
329 293 m 0
 369.439 293 396.035 331.251 396.035 361.578 c 0
 396.035 381.498 384.561 398 358 398 c 0
 317.053 398 290.247 359.927 290.247 329.633 c 0
 290.247 309.619 301.947 293 329 293 c 0
EndSplineSet
EndChar
StartChar: uni0E05
Encoding: 165 3589 133
Width: 563
Flags: W
HStem: 0 21G<85 183 380 476> 218 45<308 324> 367 46<349 361>
DStem: 149 229 235 186 85 0 183 0 309 535 332 598 372 459 389 521 487 387 583 387 380 0 476 0 490 596 478 535 389 521 372 459
Fore
476 0 m 1
 380 0 l 1
 487 387 l 2
 495.639 417.775 505.152 449.425 505.152 476.912 c 0
 505.152 500.336 498.244 520.737 478 535 c 1
 372 459 l 1
 309 535 l 1
 275 527 203 475 182 401 c 0
 178.941 390.153 177.583 379.615 177.583 369.366 c 0
 177.583 342.763 186.728 318.1 199 295 c 1
 202 295 l 1
 232 346 277 413 361 413 c 0
 412.421 413 434.793 381.53 434.793 343.874 c 0
 434.793 287.796 385.177 218 308 218 c 0
 284 218 267 223 257 237 c 1
 248 226 238 197 235 186 c 2
 183 0 l 1
 85 0 l 1
 149 229 l 2
 149.761 231.958 150.1 234.951 150.1 238.011 c 0
 150.1 263.313 126.911 293.201 126.911 345.407 c 0
 126.911 361.611 129.145 379.965 135 401 c 0
 170 525 267 576 332 598 c 1
 389 521 l 1
 490 596 l 1
 533.267 583.982 595.792 560.407 595.792 468.697 c 0
 595.792 445.946 591.944 419.001 583 387 c 2
 476 0 l 1
322 263 m 0
 362.947 263 389.753 300.711 389.753 330.716 c 0
 389.753 350.54 378.053 367 351 367 c 0
 310.053 367 283.247 329.289 283.247 299.284 c 0
 283.247 279.46 294.947 263 322 263 c 0
EndSplineSet
EndChar
StartChar: uni0E06
Encoding: 166 3590 134
Width: 721
Flags: W
HStem: -8 66<256 270> 255 37<195 208> 390 37<231 243> 576 20G<700 796>
DStem: 256 536 278 599 304 459 323 525 395 485 486 455 322 223 419 214 700 596 796 596 568 120 631 0
Fore
796 596 m 1
 631 0 l 0
 549 0 l 0
 522 120 438 152 406 163 c 1
 384 77 357 -8 268 -8 c 0
 210.853 -8 186.779 26.3337 186.779 68.5626 c 0
 186.779 132.743 242.385 215.159 322 223 c 1
 395 485 l 2
 396.699 491.794 397.705 498.127 397.705 503.685 c 0
 397.705 514.486 393.904 522.359 384 525 c 1
 304 459 l 1
 256 536 l 1
 220 515 184 476 172 395 c 1
 194 421 225 427 243 427 c 0
 288.071 425.803 307.528 398.199 307.528 365.442 c 0
 307.528 316.072 263.328 255 196 255 c 0
 138.581 255 120.365 294.638 120.365 344.878 c 0
 120.365 370.762 125.2 399.459 132 427 c 0
 146 478 188 559 278 599 c 1
 323 525 l 1
 411 599 l 1
 474.254 591.182 494.573 555.077 494.573 511.148 c 0
 494.573 493.268 491.207 474.092 486 455 c 2
 419 214 l 1
 447 206 524 183 568 120 c 1
 700 596 l 5
 796 596 l 1
282 80 m 0
 308 174 l 0
 266.828 168.772 236.333 120.834 236.333 88.2433 c 0
 236.333 70.9649 244.904 58 265 58 c 0
 273 58 278 66 282 80 c 0
206 292 m 0
 243.966 292 268.857 327.59 268.857 355.875 c 0
 268.857 374.525 258.034 390 233 390 c 0
 195.034 390 170.143 354.41 170.143 326.125 c 0
 170.143 307.475 180.966 292 206 292 c 0
EndSplineSet
EndChar
StartChar: uni0E07
Encoding: 167 3591 135
Width: 456
Flags: W
HStem: 0 21G<277 372> 395 46<353 365> 545 49<392 417>
Fore
372 0 m 1
 277 0 l 1
 115 296 l 1
 133 353 l 1
 305 117 l 1
 384 399 l 1
 373 396 364 395 355 395 c 0
 305.125 395 282.792 426.681 282.792 464.762 c 0
 282.792 522.121 333.461 594 417 594 c 4
 495.766 594 512.271 555.227 512.271 521.843 c 0
 512.271 500.551 505.558 481.452 504 476 c 0
 504 475 372 0 372 0 c 1
363 441 m 0
 403.947 441 430.753 478.711 430.753 508.716 c 0
 430.753 528.54 419.053 545 392 545 c 0
 352.07 545 325.683 506.933 325.683 476.86 c 0
 325.683 457.226 336.93 441 363 441 c 0
EndSplineSet
EndChar
StartChar: uni0E08
Encoding: 168 3592 136
Width: 538
Flags: W
HStem: -5 50<321 340> 237 44<236 249> 386 46<276 295>
DStem: 261 240 383 327 228 121 313 75 468 415 568 413 374 74 487 121
Fore
487 121 m 1
 487 121 l 0
 467 49 404 -5 321 -5 c 0
 263.783 -5 223.558 36.7715 223.558 89.9329 c 0
 223.558 99.9518 224.987 110.375 228 121 c 2
 261 240 l 1
 252 238 244 237 236 237 c 0
 189.68 237 164.219 266.203 164.219 305.746 c 0
 164.219 317.424 166.44 330.004 171 343 c 0
 189 393 237 432 295 432 c 0
 363.954 432 388.088 400.687 388.088 361.153 c 0
 388.088 350.234 386.246 338.687 383 327 c 2
 313 75 l 2
 312.223 72.085 311.823 69.1699 311.823 66.365 c 0
 311.823 54.7364 318.692 45 334 45 c 0
 354 45 370 60 374 74 c 2
 468 415 l 2
 471.989 429.27 473.848 442.323 473.848 454.156 c 0
 473.848 511.311 430.461 540.007 374.059 540.007 c 0
 310.398 540.007 230.155 503.451 177 430 c 1
 147 450 l 1
 220.931 552.707 322.889 597.206 408.71 597.206 c 0
 501.029 597.206 574.675 545.714 574.675 459.792 c 0
 574.675 445.164 572.54 429.539 568 413 c 2
 487 121 l 1
247 281 m 0
 287.439 281 314.035 319.251 314.035 349.578 c 0
 314.035 369.498 302.561 386 276 386 c 0
 235.053 386 208.247 347.927 208.247 317.633 c 0
 208.247 297.619 219.947 281 247 281 c 0
EndSplineSet
EndChar
StartChar: uni0E09
Encoding: 169 3593 137
Width: 586
Flags: W
HStem: -8 43<443 458> 195 45<186 198> 344 46<226 245>
Fore
561 226 m 0
 561 226 l 0
 552 194 535 184 535 184 c 1
 534 181 l 1
 560.293 172.347 572.407 148.517 572.407 120.572 c 0
 572.407 64.5549 523.728 -8 443 -8 c 0
 396.588 -8 372.824 23.1933 372.824 60.1615 c 0
 372.824 79.7467 379.494 100.953 393 120 c 1
 307 92 246 20 236 0 c 1
 156 0 l 1
 211 198 l 1
 205 197 194 195 186 195 c 0
 139.577 195 115.902 226.129 115.902 264.766 c 0
 115.902 276.065 117.927 288.007 122 300 c 0
 140 350 187 390 245 390 c 0
 314.405 390 338.199 358.985 338.199 320.194 c 0
 338.199 309.241 336.303 297.669 333 286 c 2
 333 286 309 198 297 154 c 0
 290 131 279 109 279 109 c 1
 303 131 363 175 451 183 c 1
 517 421 l 2
 520.085 432.288 521.54 442.833 521.54 452.617 c 0
 521.54 510.765 470.162 541.987 404.444 541.987 c 0
 334.283 541.987 247.777 506.4 190 430 c 1
 158 450 l 1
 229.66 551.784 343.402 598.778 439.987 598.778 c 0
 538.473 598.778 619.12 549.916 619.12 460.46 c 0
 619.12 445.438 616.846 429.272 612 412 c 2
 612 412 561 227 561 226 c 0
198 240 m 0
 198 240 l 0
 237.711 240 263.665 277.649 263.665 307.643 c 0
 263.665 327.499 252.289 344 226 344 c 0
 185.274 344 158.896 306.696 158.896 276.771 c 0
 158.896 256.731 170.726 240 198 240 c 0
456 35 m 0
 496.947 35 523.753 73.0734 523.753 103.367 c 0
 523.753 123.381 512.053 140 485 140 c 0
 445.07 140 418.683 101.567 418.683 71.205 c 0
 418.683 51.3823 429.93 35 456 35 c 0
EndSplineSet
EndChar
StartChar: uni0E0A
Encoding: 170 3594 138
Width: 556
Flags: W
HStem: 0 45<161 354> 298 35<196 209> 432 35<233 245> 578 20G<283 366.25>
DStem: 344 470 420 393 226 45 323 45
Fore
692 594 m 1
 692 594 l 0
 645 476 572 435 506 418 c 1
 548.975 416.061 568.354 371.733 568.354 312.612 c 0
 568.354 188.764 483.314 5.08626e-06 352 0 c 2
 150 0 l 1
 162 45 l 1
 226 45 l 1
 344 470 l 2
 345.994 477.056 346.924 483.671 346.924 489.807 c 0
 346.924 522.213 320.997 541.241 289.087 541.241 c 0
 248.267 541.241 197.655 510.103 179 436 c 1
 201 461 225 467 245 467 c 0
 286.471 467 306.953 443.467 306.953 410.603 c 0
 306.953 402.26 305.632 393.314 303 384 c 0
 291 339 252 298 198 298 c 0
 145.868 298 126.859 335.369 126.859 381.327 c 0
 126.859 405.895 132.291 432.919 141 458 c 0
 169 535 238 598 328 598 c 0
 404.5 598 441.445 550.015 441.445 490.074 c 0
 441.445 475.579 439.284 460.384 435 445 c 1
 508 449 565 531 584 594 c 1
 692 594 l 1
456 386 m 0
 456 386 l 0
 448 392 429 393 420 393 c 1
 323 45 l 1
 351 45 l 2
 410.125 45 472.881 222.328 472.881 323.677 c 0
 472.881 352.604 467.768 375.342 456 386 c 0
207 333 m 0
 245.185 333 270.512 369.369 270.512 398.02 c 0
 270.512 416.64 259.815 432 235 432 c 0
 196.815 432 171.488 395.631 171.488 366.98 c 0
 171.488 348.36 182.185 333 207 333 c 0
EndSplineSet
EndChar
StartChar: uni0E0B
Encoding: 171 3595 139
Width: 618
Flags: W
HStem: 0 45<211 404> 255 37<195 208> 390 37<231 243>
DStem: 256 536 278 599 304 459 323 525 395 485 469 393 272 45 372 45
Fore
742 594 m 1
 742 594 l 0
 695 476 622 435 556 418 c 1
 599.306 416.061 618.798 371.718 618.798 312.581 c 0
 618.798 188.733 533.304 -1.52588e-05 402 0 c 2
 200 0 l 1
 212 45 l 1
 272 45 l 1
 395 485 l 2
 396.699 491.794 397.705 498.127 397.705 503.685 c 0
 397.705 514.486 393.904 522.359 384 525 c 1
 304 459 l 1
 256 536 l 1
 220 515 184 476 172 395 c 1
 194 421 225 427 243 427 c 0
 288.071 425.803 307.528 398.199 307.528 365.442 c 0
 307.528 316.072 263.328 255 196 255 c 0
 138.581 255 120.365 294.638 120.365 344.878 c 0
 120.365 370.762 125.2 399.459 132 427 c 0
 146 478 188 559 278 599 c 1
 323 525 l 1
 411 599 l 1
 474.254 591.182 494.573 555.077 494.573 511.148 c 0
 494.573 493.268 491.207 474.092 486 455 c 2
 485 450 l 1
 563 453 614 531 634 594 c 1
 742 594 l 1
506 386 m 0
 506 386 l 0
 497 392 480 393 469 393 c 1
 372 45 l 1
 400 45 l 2
 459.348 45 522.354 223.669 522.354 324.821 c 0
 522.354 353.203 517.394 375.483 506 386 c 0
206 292 m 0
 243.966 292 268.857 327.59 268.857 355.875 c 0
 268.857 374.525 258.034 390 233 390 c 0
 195.034 390 170.143 354.41 170.143 326.125 c 0
 170.143 307.475 180.966 292 206 292 c 0
EndSplineSet
EndChar
StartChar: uni0E0C
Encoding: 172 3596 140
Width: 762
Flags: W
HStem: -6 43<181 193> 141 42<220 237> 378 44<202 217 202 368> 576 20G<757 854>
DStem: 166 315 267 326 113 121 228 183 503 404 598 402 444 190 538 184 757 596 854 596 627 132 689 0
Fore
413 71 m 0
 433 144 l 0
 401.361 141.566 374.328 103.592 374.328 75.4627 c 0
 374.328 68.9185 375.792 62.9071 379 58 c 0
 381.565 54.7026 386.009 52.8817 390.906 52.8817 c 0
 399.374 52.8817 409.198 58.3276 413 71 c 0
854 596 m 5
 689 0 l 1
 609 0 l 1
 611.221 9.62234 612.239 18.8338 612.239 27.6005 c 0
 612.239 89.8982 560.819 129.74 524 135 c 1
 501 52 479 -8 397 -8 c 0
 347.358 -8 326.421 22.1236 326.421 58.8831 c 0
 326.421 114.685 374.67 185.78 444 190 c 1
 503 404 l 2
 507.213 419.048 509.172 432.913 509.172 445.578 c 0
 509.172 510.05 458.423 543.419 396.097 543.419 c 0
 328.285 543.419 246.769 503.918 202 422 c 1
 380 422 l 1
 368 378 l 1
 346 378 321 378 321 378 c 2
 294 378 275 355 267 326 c 2
 267 326 241 229 228 183 c 0
 228 183 l 0
 231.372 183.294 234.624 183.438 237.757 183.438 c 0
 283.429 183.438 303.859 152.997 303.859 116.52 c 0
 303.859 62.0012 258.22 -6.00001 183 -6 c 0
 121.596 -6 105.345 32.6349 105.345 71.16 c 0
 105.345 89.1017 108.869 107.02 113 121 c 2
 166 315 l 2
 172 336 196 373 217 378 c 1
 137 378 l 1
 181.524 522.048 323.451 598.599 439.326 598.599 c 0
 529.766 598.599 604.335 551.966 604.335 454.395 c 0
 604.335 438.319 602.311 420.86 598 402 c 1
 538 184 l 1
 555 180 606 167 627 132 c 1
 757 596 l 1
 854 596 l 5
191 37 m 0
 231.947 37 258.753 74.7108 258.753 104.716 c 0
 258.753 124.54 247.053 141 220 141 c 0
 179.561 141 152.965 103.114 152.965 73.0747 c 0
 152.965 53.3446 164.439 37 191 37 c 0
EndSplineSet
EndChar
StartChar: uni0E0D
Encoding: 173 3597 141
Width: 762
Flags: W
HStem: -8 49<515 530> 378 44<201 217 201 368> 576 20G<741 839>
DStem: 166 315 267 326 113 124 228 183 472 401 571 401 395 124 488 101 741 596 839 596 604 100 706 117
Fore
839 596 m 1
 706 117 l 1
 706 117 l 0
 691 61 607 -8 515 -8 c 0
 438.644 -8 390.994 37.6348 390.994 94.8048 c 0
 390.994 104.272 392.301 114.055 395 124 c 2
 472 401 l 2
 476.898 418.632 479.157 434.681 479.157 449.125 c 0
 479.157 512.145 436.147 544.593 381.674 544.593 c 0
 321.186 544.593 246.564 504.584 201 422 c 1
 380 422 l 1
 368 378 l 1
 346 378 321 378 321 378 c 2
 294 378 275 355 267 326 c 2
 228 183 l 1
 239.35 185.631 249.637 186.849 258.898 186.849 c 0
 304.596 186.849 325.302 157.186 325.302 121.174 c 0
 325.302 67.3851 279.108 -0.568347 201 -5 c 0
 198.77 -5.08744 196.59 -5.13044 194.459 -5.13044 c 0
 125.067 -5.13044 107.316 40.4511 107.316 81.8611 c 0
 107.316 97.3617 109.803 112.278 113 124 c 2
 166 315 l 2
 172 336 196 373 217 378 c 1
 137 378 l 1
 181.372 522.079 315.127 598.03 423.749 598.03 c 0
 508.351 598.03 577.707 551.955 577.707 456.107 c 0
 577.707 439.279 575.569 420.917 571 401 c 1
 488 101 l 2
 486.33 94.8783 485.521 88.9631 485.521 83.3884 c 0
 485.521 58.9118 501.122 41 528 41 c 0
 563 41 594 66 604 100 c 1
 741 596 l 5
 839 596 l 1
644 -109 m 1
 644 -109 l 0
 619.246 -198.734 523.214 -247.511 443.275 -247.511 c 0
 380.132 -247.511 327.03 -217.077 327.03 -152.357 c 0
 327.03 -140.136 328.923 -126.692 333 -112 c 0
 341 -83 376 -31 439 -31 c 0
 479.262 -31 496.144 -53.7806 496.144 -83.5602 c 0
 496.144 -92.2423 494.709 -101.519 492 -111 c 0
 482.742 -144.33 446.912 -177.659 412.286 -177.659 c 0
 409.511 -177.659 406.745 -177.445 404 -177 c 1
 403 -181 l 1
 414.444 -191.886 429.551 -196.851 445.797 -196.851 c 0
 487.751 -196.851 537.304 -163.74 551 -114 c 2
 571 -43 l 1
 662 -43 l 1
 644 -109 l 1
465 -106 m 0
 465 -106 l 0
 466.337 -101.153 466.955 -96.7111 466.955 -92.6742 c 0
 466.955 -72.5581 451.615 -62.5 433.5 -62.5 c 0
 411.75 -62.5 386 -77 378 -106 c 0
 376.5 -111.383 375.81 -116.291 375.81 -120.724 c 0
 375.81 -141.408 390.839 -151.75 408.75 -151.75 c 0
 430.5 -151.75 456.5 -136.5 465 -106 c 0
213 38 m 0
 253.947 38 280.753 76.0734 280.753 106.367 c 0
 280.753 126.381 269.053 143 242 143 c 0
 201.053 143 174.247 104.927 174.247 74.6328 c 0
 174.247 54.6185 185.947 38 213 38 c 0
EndSplineSet
Substitution: 0 65534 'nds0' uni0E0D.descless
Substitution: 0 65534 'ndsc' uni0E0D.descless
EndChar
StartChar: uni0E0E
Encoding: 174 3598 142
Width: 583
Flags: W
HStem: -241 114<367 367.195> -5 43<94 108> 378 44<215 228 215 382>
DStem: 175 304 276 318 143 187 214 92 515 413 611 407 379 -77 431 -241
AnchorPoint: "BelowBase" 428.253 -241.152 basechar 0
Fore
431 -241 m 5
 351 -241 l 0
 340 -183 300 -146 254 -118 c 1
 216.07 -189.814 151.797 -223.263 101.795 -223.263 c 0
 61.169 -223.263 29.9641 -201.182 29.9641 -159.656 c 0
 29.9641 -151.231 31.2488 -142.005 34 -132 c 0
 49.2112 -78.0001 104.914 -38.4616 175.152 -38.4616 c 0
 197.264 -38.4616 220.817 -42.3802 245 -51 c 1
 277 -5 301 6 316 15 c 1
 357 -9 l 1
 330 -22 307 -41 286 -71 c 1
 314 -80 351 -104 367 -127 c 1
 367 -127 372 -101 379 -77 c 2
 515 413 l 2
 518.714 426.564 520.446 439.092 520.446 450.574 c 0
 520.446 512.099 470.707 543.59 409.614 543.59 c 0
 340.9 543.59 257.822 503.752 215 422 c 1
 394 422 l 1
 382 378 l 1
 332 378 l 2
 305 378 284 346 276 318 c 2
 214 92 l 2
 196 29 146 -5 94 -5 c 0
 45.9259 -5 25.1359 25.1729 25.1359 61.6004 c 0
 25.1359 116.101 71.6735 184.602 143 187 c 1
 175 304 l 2
 182 329 207 373 228 378 c 1
 151 378 l 1
 195.292 521.949 337.45 598.615 453.158 598.615 c 0
 542.849 598.615 616.647 552.548 616.647 456.045 c 0
 616.647 440.938 614.839 424.595 611 407 c 1
 431 -241 l 5
213 -100 m 1
 213 -100 l 0
 193.28 -93.4267 173.201 -89.726 154.834 -89.726 c 0
 120.11 -89.726 91.5025 -102.952 83 -135 c 0
 82.0088 -138.399 81.5389 -141.612 81.5389 -144.618 c 0
 81.5389 -161.631 96.5843 -172.035 117.351 -172.035 c 0
 144.747 -172.035 182.101 -153.927 208 -109 c 2
 213 -100 l 1
106 38 m 0
 146.439 38 173.035 76.2507 173.035 106.578 c 0
 173.035 126.498 161.561 143 135 143 c 0
 94.5611 143 67.9652 104.749 67.9652 74.4216 c 0
 67.9652 54.5018 79.4389 38 106 38 c 0
EndSplineSet
EndChar
StartChar: uni0E0F
Encoding: 175 3599 143
Width: 583
Flags: W
HStem: -8 45<93 107> 378 44<215 228 215 382>
DStem: 174 304 276 318 142 187 214 92 515 413 611 407 366 -123 431 -240
AnchorPoint: "BelowBase" 428.253 -241.152 basechar 0
Fore
431 -240 m 5
 352 -240 l 0
 352 -187.843 328.061 -157.721 294.655 -157.721 c 0
 264.012 -157.721 225.404 -183.067 190 -240 c 1
 149 -240 l 1
 149.5 -235.875 149.734 -231.719 149.734 -227.568 c 0
 149.734 -198.516 138.25 -169.75 126 -154 c 1
 93.9533 -213.852 42.3619 -240.167 -0.199397 -240.167 c 0
 -40.4059 -240.167 -72.5538 -216.683 -72.5538 -175.805 c 0
 -72.5538 -168.135 -71.4222 -159.854 -69 -151 c 0
 -50.6588 -85.1074 4.1374 -50.5938 57.1454 -50.5938 c 0
 82.17 -50.5938 106.796 -58.2859 127 -74 c 1
 147 -45 180 -20 223 -5 c 1
 245 -43 l 1
 215 -51 176 -75 159 -104 c 1
 176 -115 188 -147 191 -169 c 1
 221.726 -125.853 267.409 -100.229 308.214 -100.229 c 0
 329.827 -100.229 350.072 -107.418 366 -123 c 1
 515 413 l 2
 518.714 426.564 520.446 439.092 520.446 450.574 c 0
 520.446 512.099 470.707 543.59 409.614 543.59 c 0
 340.9 543.59 257.822 503.752 215 422 c 1
 394 422 l 1
 382 378 l 1
 332 378 l 2
 305 378 284 346 276 318 c 2
 214 92 l 2
 196 29 145 -8 93 -8 c 0
 44.6304 -8 23.5563 23.0325 23.5563 60.3423 c 0
 23.5563 115.594 69.7727 184.612 142 187 c 1
 174 304 l 2
 181 329 207 373 228 378 c 1
 151 378 l 1
 195.292 521.949 337.45 598.615 453.158 598.615 c 0
 542.849 598.615 616.647 552.548 616.647 456.045 c 0
 616.647 440.938 614.839 424.595 611 407 c 1
 431 -240 l 5
96 -120 m 0
 96 -120 l 0
 79.691 -105.39 62.343 -99.438 46.1133 -99.438 c 0
 14.5765 -99.438 -12.7375 -121.911 -20 -147 c 0
 -21.0552 -150.995 -21.5537 -154.773 -21.5537 -158.305 c 0
 -21.5537 -177.245 -7.22049 -189.092 12.4678 -189.092 c 0
 37.8224 -189.092 72.0582 -169.445 96 -120 c 0
105 37 m 0
 145.439 37 172.035 74.8864 172.035 104.925 c 0
 172.035 124.655 160.561 141 134 141 c 0
 93.5611 141 66.9652 103.114 66.9652 73.0747 c 0
 66.9652 53.3446 78.4389 37 105 37 c 0
EndSplineSet
EndChar
StartChar: uni0E10
Encoding: 176 3600 144
Width: 484
Flags: W
HStem: -289 48<144 259> -289 123<250 260> -243 42<13 26> -74 40<272 284> -5 50<278 297> 166 44<180 194> 315 43<219 233>
DStem: 139 445 215 478 387 370 454 407 396 333 495 335 325 74 431 106
Fore
577 558 m 0x1e
 577 558 l 0
 542.496 504.783 505.171 488.587 467.3 488.587 c 0
 408.394 488.587 348.166 527.77 295.177 527.77 c 0
 265.725 527.77 238.509 515.665 215 478 c 1
 454 407 l 2
 464.98 402.777 498.786 397.127 498.786 359.324 c 0
 498.786 352.369 497.642 344.324 495 335 c 2
 431 106 l 2
 411 34 360 -5 278 -5 c 0
 220.842 -5 182.76 25.3816 182.76 75.4545 c 0
 182.76 84.9522 184.13 95.1584 187 106 c 2
 205 169 l 1
 196 167 188 166 180 166 c 0
 133.382 166 110.307 195.58 110.307 234.103 c 0
 110.307 245.161 112.208 256.956 116 269 c 1
 134 319 178 358 233 358 c 0
 233.908 358.011 234.809 358.016 235.704 358.016 c 0
 303.202 358.016 331.182 327.714 331.182 287.039 c 0
 331.182 277.815 329.743 268.058 327 258 c 2
 276 75 l 2
 274.895 71.134 274.248 67.1155 274.248 63.3235 c 0
 274.248 53.3835 278.694 45 291 45 c 0
 310 45 321 61 325 74 c 2
 396 333 l 2
 398.217 340.919 399.231 347.232 399.231 352.258 c 0
 399.231 363.1 394.516 367.95 387 370 c 2
 139 445 l 1
 167.604 492.344 233.177 598.061 341.477 598.061 c 0
 342.976 598.061 344.484 598.041 346 598 c 0
 389.571 598 452.531 564.837 504.994 564.837 c 0
 525.98 564.837 545.286 570.143 561 585 c 0
 566.859 590.859 574.194 594.305 579.812 594.305 c 0
 584.831 594.305 588.479 591.554 588.479 585.316 c 0
 588.479 579.473 585.277 570.569 577 558 c 0x1e
340 -218 m 1
 340 -218 l 0
 331 -249 307 -289 259 -289 c 2x9e
 84 -289 l 1
 101 -226 l 2
 106.212 -208.876 112.532 -190.642 112.532 -177.492 c 0
 112.532 -172.979 111.788 -169.065 110 -166 c 1x5e
 97 -210 61 -243 13 -243 c 0x3e
 -21.4867 -243 -43.1257 -224.646 -43.1257 -187.938 c 0
 -43.1257 -186.327 -43.0841 -184.681 -43 -183 c 0
 -43 -138.438 6.6262 -80.1325 65.185 -80.1325 c 0
 73.6445 -80.1325 82.2904 -81.3492 91 -84 c 1
 95 -71 101 -58 113 -46 c 1
 158 -52 l 1
 141 -66 131 -88 127 -106 c 1
 150.744 -118.785 157.808 -143.038 157.808 -167.904 c 0
 157.808 -197.496 147.804 -227.959 144 -241 c 1
 232 -241 l 2x9e
 248 -241 256 -214 259 -197 c 1
 251 -200 l 2
 247.146 -201.652 242.99 -202.394 237.863 -202.394 c 0
 233.677 -202.394 228.843 -201.899 223 -201 c 0x3e
 188.719 -197.683 173.733 -174.12 173.733 -145.688 c 0
 173.733 -96.9873 217.704 -34 284 -34 c 0
 340.456 -34 366.181 -58.8782 366.181 -104.253 c 0
 366.181 -111.923 365.446 -120.179 364 -129 c 1
 340 -218 l 1
250 -166 m 0x5e
 250 -166 l 0
 283.966 -166 306.528 -132.154 306.528 -105.52 c 0
 306.528 -88.2426 297.034 -74 275 -74 c 0
 238.492 -74 214.88 -106.953 214.88 -133.415 c 0
 214.88 -151.168 225.508 -166 250 -166 c 0x5e
81 -124 m 0
 81 -124 l 0
 75.96 -122.466 69.8156 -121.604 63.177 -121.604 c 0
 39.5206 -121.604 9.58956 -132.546 1 -163 c 0
 -0.429087 -167.764 -1.17741 -172.414 -1.17741 -176.734 c 0
 -1.17741 -190.553 6.47817 -201 24 -201 c 0x3e
 54 -201 81 -160 81 -124 c 0
192 210 m 0
 231.93 210 258.317 248.433 258.317 278.795 c 0
 258.317 298.618 247.07 315 221 315 c 0
 180.053 315 153.247 276.927 153.247 246.633 c 0
 153.247 226.619 164.947 210 192 210 c 0
EndSplineSet
KernsSLIF: 212 31 1 0 215 31 1 0 214 31 1 0 213 31 1 0
Substitution: 0 65534 'nds0' uni0E10.descless
Substitution: 0 65534 'ndsc' uni0E10.descless
EndChar
StartChar: uni0E11
Encoding: 177 3601 145
Width: 743
Flags: W
HStem: 0 21G<262 359 556 654> 255 37<195 208> 390 37<231 243>
DStem: 256 536 278 599 304 459 323 525 397 485 485 455 262 0 455 347 397 485 419 216 262 0 359 0 582 490 619 470 455 347 481 308 687 473 788 482 556 0 654 0
Fore
485 455 m 6
 455 347 l 1
 582 490 l 2
 643.388 559.061 702.016 591.551 742.219 591.551 c 0
 774.835 591.551 795.325 570.168 795.325 529.58 c 0
 795.325 515.88 792.99 499.992 788 482 c 2
 654 0 l 1
 556 0 l 1
 687 473 l 2
 688.501 478.46 689.22 483.398 689.22 487.715 c 0
 689.22 499.955 683.442 507.204 673.335 507.204 c 0
 660.887 507.204 641.874 496.21 619 470 c 2
 481 308 l 18
 459 282 427 246 419 216 c 2
 359 0 l 1
 262 0 l 1
 397 485 l 2
 398.456 490.826 399.234 496.312 399.234 501.261 c 0
 399.234 513.303 394.631 522.165 384 525 c 1
 304 459 l 1
 256 536 l 1
 220 515 184 476 172 395 c 1
 194 421 225 427 243 427 c 0
 288.071 425.803 307.528 398.199 307.528 365.442 c 0
 307.528 316.072 263.328 255 196 255 c 0
 138.581 255 120.365 294.638 120.365 344.878 c 0
 120.365 370.762 125.2 399.459 132 427 c 0
 146 478 188 559 278 599 c 1
 323 525 l 1
 411 599 l 1
 473.797 591.239 493.779 555.598 493.779 512.1 c 0
 493.779 493.95 490.3 474.432 485 455 c 6
206 292 m 0
 243.966 292 268.857 327.59 268.857 355.875 c 0
 268.857 374.525 258.034 390 233 390 c 0
 195.034 390 170.143 354.41 170.143 326.125 c 0
 170.143 307.475 180.966 292 206 292 c 0
EndSplineSet
EndChar
StartChar: uni0E12
Encoding: 178 3602 146
Width: 761
Flags: W
HStem: 0 21G<85 183 598 677> 235 40<303 321> 379 43<348 360> 576 20G<745 842>
DStem: 309 535 332 598 372 459 389 521 491 401 586 396 433 190 527 184 493 598 478 535 389 521 372 459 745 596 842 596 616 132 677 0
Fore
842 596 m 1
 677 0 l 1
 598 0 l 0
 600.026 9.29346 600.958 18.2036 600.958 26.7 c 0
 600.958 89.5142 549.996 129.715 513 135 c 1
 490 52 467 -8 385 -8 c 0
 335.583 -8 314.767 21.8513 314.767 58.3839 c 0
 314.767 114.261 363.463 185.767 433 190 c 1
 491 401 l 2
 500.456 434.301 505.01 458.813 505.01 477.801 c 0
 505.01 505 495.666 520.867 478 535 c 1
 372 459 l 1
 309 535 l 1
 273 524 204 476 183 402 c 0
 177.586 382.276 175.424 363.637 175.424 345.945 c 0
 175.424 275.898 209.303 220.695 209.303 171.81 c 0
 209.303 169.189 209.205 166.586 209 164 c 1
 249.463 209.981 304.303 231.437 304.303 234.589 c 0
 304.303 234.864 303.884 235 303 235 c 0
 260.413 235 241.209 262.579 241.209 297.776 c 0
 241.209 308.035 242.84 318.941 246 330 c 0
 249 344 279 422 360 422 c 0
 407.358 422 434.592 395.047 434.592 355.361 c 0
 434.592 328.845 422.435 296.644 396 263 c 0
 339 189 232 146 201 65 c 1
 183 0 l 1
 85 0 l 1
 115 109 l 2
 117.731 118.56 118.674 130.175 118.674 143.593 c 0
 118.674 173.467 114.002 212.278 114.002 257.24 c 0
 114.002 295.594 117.402 338.424 130 384 c 0
 172 535 279 581 332 598 c 1
 389 521 l 1
 493 598 l 1
 538.306 584.247 596.702 554.13 596.702 467.406 c 0
 596.702 446.934 593.448 423.309 586 396 c 2
 527 184 l 1
 544 180 593 167 616 132 c 1
 745 596 l 5
 842 596 l 1
399 68 m 0
 420 146 l 0
 387.712 143.578 358.681 104.016 358.681 74.1246 c 0
 358.681 66.9855 360.337 60.3981 364 55 c 0
 366.706 51.1339 371.654 48.912 377.053 48.912 c 0
 385.619 48.912 395.32 54.5054 399 68 c 0
321 275 m 0
 361.439 275 388.035 312.886 388.035 342.925 c 0
 388.035 362.655 376.561 379 350 379 c 0
 309.053 379 282.247 341.289 282.247 311.284 c 0
 282.247 291.46 293.947 275 321 275 c 0
EndSplineSet
EndChar
StartChar: uni0E13
Encoding: 179 3603 147
Width: 762
Flags: W
HStem: -9 43<624 637> 378 44<201 217 201 368> 576 20G<742 839>
DStem: 166 315 267 326 113 124 228 183 472 401 571 401 361 0 495 126 742 596 839 596 627 183 730 203
Fore
839 596 m 1
 730 203 l 0
 730 203 l 0
 728 194 717 175 709 169 c 1
 732.695 159.587 743.431 137.531 743.431 112.032 c 0
 743.431 58.9714 696.945 -9 624 -9 c 0
 580.165 -9 554.597 13.6159 554.597 52.3576 c 0
 554.597 55.1551 554.731 58.0367 555 61 c 0
 556 83 566 111 587 131 c 1
 517 101 469 23 457 0 c 1
 361 0 l 1
 472 401 l 2
 476.898 418.632 479.157 434.681 479.157 449.125 c 0
 479.157 512.145 436.147 544.593 381.674 544.593 c 0
 321.186 544.593 246.564 504.584 201 422 c 1
 380 422 l 1
 368 378 l 1
 346 378 321 378 321 378 c 2
 294 378 275 355 267 326 c 2
 228 183 l 1
 239.301 185.619 249.549 186.833 258.779 186.833 c 0
 304.476 186.833 325.213 157.087 325.213 120.947 c 0
 325.213 66.8544 278.755 -1.56307 200 -6 c 0
 197.29 -6.13284 194.654 -6.19791 192.091 -6.19791 c 0
 124.413 -6.19791 107.137 39.1628 107.137 80.5381 c 0
 107.137 96.5843 109.736 112.031 113 124 c 2
 166 315 l 2
 172 336 196 373 217 378 c 1
 137 378 l 1
 181.372 522.079 315.127 598.03 423.749 598.03 c 0
 508.351 598.03 577.707 551.955 577.707 456.107 c 0
 577.707 439.279 575.569 420.917 571 401 c 1
 495 126 l 1
 521.641 146.721 569.702 183.02 624.772 183.02 c 0
 625.513 183.02 626.256 183.013 627 183 c 1
 742 596 l 1
 839 596 l 1
635 34 m 0
 635 34 l 0
 673.185 34 698.512 70.0019 698.512 98.3636 c 0
 698.512 116.795 687.815 132 663 132 c 0
 624.815 132 599.488 95.9981 599.488 67.6364 c 0
 599.488 49.2048 610.185 34 635 34 c 0
213 38 m 0
 253.947 38 280.753 76.0734 280.753 106.367 c 0
 280.753 126.381 269.053 143 242 143 c 0
 201.053 143 174.247 104.927 174.247 74.6328 c 0
 174.247 54.6185 185.947 38 213 38 c 0
EndSplineSet
KernsSLIF: 212 -15 1 0 215 -15 1 0 214 -15 1 0 213 -15 1 0
EndChar
StartChar: uni0E14
Encoding: 180 3604 148
Width: 579
Flags: W
HStem: 0 21G<96 194 399 495> 263 40<327 343> 407 43<367 382> 548 50<409 433>
DStem: 513 412 609 412 399 0 495 0
Fore
495 0 m 1
 399 0 l 1
 513 412 l 2
 516.556 424.889 518.63 438.765 518.63 452.554 c 0
 518.63 500.815 493.222 548 417 548 c 0
 302 548 220 487 196 399 c 0
 191.83 383.907 190.144 368.538 190.144 352.994 c 0
 190.144 290.27 217.596 224.708 220 163 c 1
 260.544 209.202 327.76 257.182 327.76 262.511 c 0
 327.76 262.834 327.514 263 327 263 c 0
 281.934 263 261.872 291.755 261.872 328.013 c 0
 261.872 337.614 263.278 347.741 266 358 c 0
 270 372 302 450 382 450 c 0
 429.603 450 456.67 423.445 456.67 384.03 c 0
 456.67 357.204 444.133 324.422 417 290 c 0
 360 217 228 115 212 65 c 1
 194 0 l 1
 96 0 l 1
 122 94 l 2
 128.778 118.459 130.606 143.787 130.606 170.265 c 0
 130.606 201.267 128.1 233.845 128.1 268.452 c 0
 128.1 304.585 130.832 342.93 142 384 c 0
 195 574 358 598 431 598 c 0
 530.15 598 616.88 559.279 616.88 464.978 c 0
 616.88 448.951 614.375 431.32 609 412 c 2
 495 0 l 1
343 303 m 0
 383.947 303 410.753 340.711 410.753 370.716 c 0
 410.753 390.54 399.053 407 372 407 c 0
 331.561 407 304.965 369.114 304.965 339.075 c 0
 304.965 319.345 316.439 303 343 303 c 0
EndSplineSet
EndChar
StartChar: uni0E15
Encoding: 181 3605 149
Width: 582
Flags: W
HStem: 0 21G<98 196 399 495> 235 40<317 333> 379 43<360 374>
DStem: 323 535 344 598 384 459 401 521 510 401 605 396 399 0 495 0 511 598 497 535 401 521 384 459
Fore
495 0 m 1
 399 0 l 1
 510 401 l 2
 519.456 434.301 524.01 458.813 524.01 477.801 c 0
 524.01 505 514.666 520.867 497 535 c 1
 384 459 l 1
 323 535 l 1
 285 524 217 476 196 402 c 0
 191.731 386.524 189.993 370.921 189.993 355.372 c 0
 189.993 287.281 223.318 220.217 223.318 169.306 c 0
 223.318 166.487 223.216 163.717 223 161 c 1
 262.825 206.382 318.09 231.177 318.09 234.591 c 0
 318.09 234.864 317.738 235 317 235 c 0
 273.595 235 254.22 262.636 254.22 297.884 c 0
 254.22 308.111 255.851 318.98 259 330 c 0
 262 344 292 422 374 422 c 0
 421.358 422 448.592 395.047 448.592 355.361 c 0
 448.592 328.845 436.435 296.644 410 263 c 0
 352 189 245 146 214 65 c 1
 196 0 l 1
 98 0 l 1
 124 94 l 2
 131.114 119.82 133.299 143.21 133.299 166.018 c 0
 133.299 202.353 127.753 237.211 127.753 278.059 c 0
 127.753 308.89 130.912 343.133 142 384 c 0
 184 535 293 581 344 598 c 1
 401 521 l 1
 511 598 l 1
 557.126 584.243 615.695 554.115 615.695 467.34 c 0
 615.695 446.884 612.44 423.28 605 396 c 2
 495 0 l 1
333 275 m 0
 373.947 275 400.753 312.711 400.753 342.716 c 0
 400.753 362.54 389.053 379 362 379 c 0
 322.07 379 295.683 340.933 295.683 310.86 c 0
 295.683 291.226 306.93 275 333 275 c 0
EndSplineSet
EndChar
StartChar: uni0E16
Encoding: 182 3606 150
Width: 574
Flags: W
HStem: 0 21G<391 487> 378 44<202 217 202 368>
DStem: 166 315 267 326 113 121 228 183 503 404 598 402 391 0 487 0
Fore
487 0 m 1
 391 0 l 1
 503 404 l 2
 507.213 419.048 509.172 432.913 509.172 445.578 c 0
 509.172 510.05 458.423 543.419 396.097 543.419 c 0
 328.285 543.419 246.769 503.918 202 422 c 1
 380 422 l 1
 368 378 l 1
 346 378 321 378 321 378 c 2
 294 378 275 355 267 326 c 2
 267 326 241 229 228 183 c 1
 236.967 184.871 245.218 185.747 252.771 185.747 c 0
 297.07 185.747 317.378 155.611 317.378 119.218 c 0
 317.378 65.6223 273.332 -1.54268 197 -6 c 0
 193.7 -6.1941 190.513 -6.28878 187.433 -6.28878 c 0
 122.978 -6.28878 106.123 35.1995 106.123 74.6997 c 0
 106.123 91.6425 109.224 108.22 113 121 c 2
 166 315 l 2
 172 336 196 373 217 378 c 1
 137 378 l 1
 181.524 522.048 323.451 598.599 439.326 598.599 c 0
 529.766 598.599 604.335 551.966 604.335 454.395 c 0
 604.335 438.319 602.311 420.86 598 402 c 1
 487 0 l 1
206 37 m 0
 246.439 37 273.035 74.8864 273.035 104.925 c 0
 273.035 124.655 261.561 141 235 141 c 0
 194.561 141 167.965 103.114 167.965 73.0747 c 0
 167.965 53.3446 179.439 37 206 37 c 0
EndSplineSet
EndChar
StartChar: uni0E17
Encoding: 183 3607 151
Width: 624
Flags: W
HStem: 0 21G<147 243 441 539> 393 48<227 239> 545 51<268 290>
DStem: 258 399 303 216 147 0 243 0 467 490 504 470 339 347 365 308 572 473 673 482 441 0 539 0
Fore
504 470 m 6
 365 308 l 22
 343 282 311 246 303 216 c 6
 243 0 l 5
 147 0 l 1
 258 399 l 1
 246 395 238 393 227 393 c 0
 176.014 393 153.271 425.209 153.271 463.967 c 0
 153.271 522.511 205.164 596 290 596 c 0
 367.648 596 383.617 557.124 383.617 523.938 c 0
 383.617 502.846 377.166 484.052 376 479 c 2
 339 347 l 5
 467 490 l 6
 528.388 559.061 587.016 591.551 627.219 591.551 c 0
 659.835 591.551 680.325 570.168 680.325 529.58 c 0
 680.325 515.88 677.99 499.992 673 482 c 6
 539 0 l 5
 441 0 l 5
 572 473 l 6
 573.501 478.46 574.22 483.398 574.22 487.715 c 0
 574.22 499.955 568.442 507.204 558.335 507.204 c 0
 545.887 507.204 526.874 496.21 504 470 c 6
239 441 m 0
 279.947 441 306.753 478.711 306.753 508.716 c 0
 306.753 528.54 295.053 545 268 545 c 0
 227.561 545 200.965 507.114 200.965 477.075 c 0
 200.965 457.345 212.439 441 239 441 c 0
EndSplineSet
EndChar
StartChar: uni0E18
Encoding: 184 3608 152
Width: 484
Flags: W
HStem: 0 45<49 292>
DStem: 137 445 213 478 385 370 453 407 181 364 279 364 92 45 190 45 395 333 493 335 331 101 433 120
Fore
576 558 m 0
 541.204 504.783 503.843 488.587 466.017 488.587 c 0
 407.182 488.587 347.222 527.77 294.04 527.77 c 0
 264.48 527.77 237.015 515.665 213 478 c 1
 453 407 l 2
 463.943 402.791 496.852 397.165 496.852 359.702 c 0
 496.852 352.66 495.69 344.493 493 335 c 2
 433 120 l 2
 411 38 360 0 292 0 c 2
 38 0 l 1
 50 45 l 1
 92 45 l 1
 181 364 l 1
 279 364 l 1
 190 45 l 1
 250 45 l 2
 293 45 320 61 331 101 c 2
 395 333 l 2
 397.184 340.798 398.199 347.04 398.199 352.028 c 0
 398.199 363.031 393.257 367.936 385 370 c 2
 137 445 l 1
 166.59 492.344 231.204 598.061 339.477 598.061 c 0
 340.977 598.061 342.484 598.041 344 598 c 0
 388.286 598 450.939 564.837 503.169 564.837 c 0
 524.061 564.837 543.286 570.143 559 585 c 0
 565.226 590.859 572.792 594.305 578.557 594.305 c 0
 583.729 594.305 587.451 591.531 587.451 585.238 c 0
 587.451 579.394 584.24 570.513 576 558 c 0
EndSplineSet
EndChar
StartChar: uni0E19
Encoding: 185 3609 153
Width: 632
Flags: W
HStem: -8 46<479 494> 137 49<487 519> 393 49<226 244> 547 51<267 289>
DStem: 600 596 698 596 487 186 592 214
Fore
698 596 m 1
 592 214 l 0
 592 214 l 0
 590 206 577 189 570 183 c 1
 594.886 172.152 606.03 148.784 606.03 121.989 c 0
 606.03 64.7999 555.266 -8 479 -8 c 0
 428.916 -8 406.205 23.2843 406.205 59.5691 c 0
 406.205 84.1403 416.62 111.005 436 132 c 1
 327 124 244 34 224 0 c 1
 147 0 l 1
 257 396 l 1
 245 393 237 393 226 393 c 0
 225.084 392.979 224.176 392.968 223.278 392.968 c 0
 174.497 392.968 152.841 424.43 152.841 462.706 c 0
 152.841 522.139 205.056 598 289 598 c 0
 367.766 598 384.271 558.854 384.271 525.635 c 0
 384.271 504.449 377.558 485.673 376 481 c 0
 376 479 316 264 284 147 c 0
 280 135 275 123 271 111 c 1
 321 152 379 184 487 186 c 1
 600 596 l 1
 698 596 l 1
492 38 m 0
 492 38 l 0
 529.966 38 554.857 73.953 554.857 102.526 c 0
 554.857 121.368 544.034 137 519 137 c 0
 481.034 137 456.143 101.047 456.143 72.4736 c 0
 456.143 53.6325 466.966 38 492 38 c 0
238 442 m 0
 278.947 442 305.753 480.073 305.753 510.367 c 0
 305.753 530.381 294.053 547 267 547 c 0
 227.07 547 200.683 508.567 200.683 478.205 c 0
 200.683 458.382 211.93 442 238 442 c 0
EndSplineSet
KernsSLIF: 212 -46 1 0 215 -46 1 0 214 -46 1 0 213 -46 1 0
EndChar
StartChar: uni0E1A
Encoding: 186 3610 154
Width: 618
Flags: W
HStem: 0 45<104 421> 393 49<227 240> 547 51<267 291>
DStem: 600 596 697 596 463 106 565 120
Fore
697 596 m 1
 565 120 l 0
 565 120 l 0
 556 74 506 0 421 0 c 2
 93 0 l 1
 105 45 l 1
 159 45 l 1
 257 396 l 1
 246 395 235 393 227 393 c 0
 175.481 393 152.884 424.707 152.884 463.181 c 0
 152.884 522.537 206.665 598 291 598 c 0
 367.947 598 383.957 559.088 383.957 525.525 c 0
 383.957 503.693 377.182 484.124 376 479 c 0
 376 478 275 117 255 45 c 1
 393 45 l 2
 419 45 454 63 463 106 c 1
 600 596 l 1
 697 596 l 1
238 442 m 0
 278.947 442 305.753 480.073 305.753 510.367 c 0
 305.753 530.381 294.053 547 267 547 c 0
 227.07 547 200.683 508.567 200.683 478.205 c 0
 200.683 458.382 211.93 442 238 442 c 0
EndSplineSet
EndChar
StartChar: uni0E1B
Encoding: 187 3611 155
Width: 634
Flags: W
HStem: 0 45<104 435> 393 49<227 240> 547 51<267 291>
DStem: 715 964 813 964 477 106 579 120
AnchorPoint: "AboveBase" 562.842 629.76 basechar 0
Fore
813 964 m 5
 579 120 l 0
 579 120 l 0
 570 74 522 0 435 0 c 2
 93 0 l 1
 105 45 l 1
 159 45 l 1
 257 396 l 1
 246 395 235 393 227 393 c 0
 175.481 393 152.884 424.707 152.884 463.181 c 0
 152.884 522.537 206.665 598 291 598 c 0
 367.947 598 383.957 559.088 383.957 525.525 c 0
 383.957 503.693 377.182 484.124 376 479 c 0
 376 478 275 117 255 45 c 1
 408 45 l 2
 434 45 468 63 477 106 c 1
 715 964 l 1
 813 964 l 5
238 442 m 0
 278.947 442 305.753 480.073 305.753 510.367 c 0
 305.753 530.381 294.053 547 267 547 c 0
 227.07 547 200.683 508.567 200.683 478.205 c 0
 200.683 458.382 211.93 442 238 442 c 0
EndSplineSet
EndChar
StartChar: uni0E1C
Encoding: 188 3612 156
Width: 618
Flags: W
HStem: 0 132<477 477.093> 550 48<347 363>
DStem: 209 478 284 399 76 0 225 187 389 287 415 382 441 66 468 187 415 382 389 287 245 183 203 66 600 596 697 596 487 190 532 0
Fore
697 596 m 1
 532 0 l 1
 434 0 l 1
 443 34 l 2
 444.316 38.7368 444.801 42.7812 444.801 46.2788 c 0
 444.801 56.072 441 61.5789 441 66 c 1
 389 287 l 1
 203 66 l 1
 200 60 190 54 184 34 c 2
 175 0 l 1
 76 0 l 1
 209 478 l 2
 225 539 269 598 363 598 c 0
 415.702 598 438.647 565.511 438.647 526.641 c 0
 438.647 468.772 387.791 396.76 308.561 396.76 c 0
 300.65 396.76 292.455 397.478 284 399 c 1
 284 399 235 223 225 187 c 0
 218 163 203 129 203 129 c 1
 203 129 233 169 245 183 c 0
 389 350 415 382 415 382 c 1
 415 382 424 350 468 187 c 0
 472 172 477 132 477 132 c 1
 477 132 480 166 487 190 c 0
 497 226 600 596 600 596 c 1
 697 596 l 1
320 445 m 0
 361.167 445 388.406 483.483 388.406 513.854 c 0
 388.406 533.65 376.833 550 350 550 c 0
 309.852 550 283.025 511.146 283.025 480.709 c 0
 283.025 461.11 294.148 445 320 445 c 0
EndSplineSet
EndChar
StartChar: uni0E1D
Encoding: 189 3613 157
Width: 631
Flags: W
HStem: 0 132<491 491.093> 550 48<347 363>
DStem: 209 478 284 399 76 0 225 187 399 295 425 390 456 66 483 187 425 390 399 295 245 183 203 66 717 964 813 964 501 190 546 0
AnchorPoint: "AboveBase" 559.912 629.76 basechar 0
Fore
813 964 m 1
 546 0 l 1
 448 0 l 1
 457 34 l 2
 458.615 39.815 459.187 44.5863 459.187 48.5838 c 0
 459.187 56.9602 456.677 61.9383 456 66 c 1
 399 295 l 1
 203 66 l 1
 200 60 190 54 184 34 c 2
 175 0 l 1
 76 0 l 1
 209 478 l 2
 225 539 269 598 363 598 c 0
 415.702 598 438.647 565.511 438.647 526.641 c 0
 438.647 468.772 387.791 396.76 308.561 396.76 c 0
 300.65 396.76 292.455 397.478 284 399 c 1
 284 399 235 223 225 187 c 0
 218 163 203 129 203 129 c 1
 203 129 233 169 245 183 c 0
 389 350 425 390 425 390 c 1
 425 390 438 350 483 187 c 0
 488 172 491 132 491 132 c 1
 491 132 494 166 501 190 c 0
 511 226 717 964 717 964 c 1
 813 964 l 1
320 445 m 0
 361.167 445 388.406 483.483 388.406 513.854 c 0
 388.406 533.65 376.833 550 350 550 c 0
 309.852 550 283.025 511.146 283.025 480.709 c 0
 283.025 461.11 294.148 445 320 445 c 0
EndSplineSet
EndChar
StartChar: uni0E1E
Encoding: 190 3614 158
Width: 689
Flags: W
HStem: 0 21G<148 238 510 602> 392 49<228 245> 545 49<268 291>
VStem: 500 58<220.506 249>
DStem: 500 450 544 588 510 0 558 249 532 588 500 450 329 249 238 0 670 596 767 596 575 253 602 0
Fore
767 596 m 1
 602 0 l 1
 510 0 l 1
 500 450 l 1
 238 0 l 1
 148 0 l 1
 258 395 l 1
 246 393 237 392 229 392 c 0
 177.252 392 154.342 424.008 154.342 462.541 c 0
 154.342 520.81 206.729 594 291 594 c 0
 369.484 594 385.559 555.652 385.559 522.985 c 0
 385.559 502.376 379.161 484.029 378 479 c 0
 378 478 315 253 315 253 c 2
 308 226 280 160 280 160 c 1
 285 160 l 1
 285 160 312 217 329 249 c 1
 532 588 l 1
 544 588 l 1
 558 249 l 1
 558 217 552 160 552 160 c 1
 558 160 l 1
 558 160 568 226 575 253 c 1
 670 596 l 1
 767 596 l 1
239 441 m 0
 279.947 441 306.753 478.711 306.753 508.716 c 0
 306.753 528.54 295.053 545 268 545 c 0
 227.561 545 200.965 507.114 200.965 477.075 c 0
 200.965 457.345 212.439 441 239 441 c 0
EndSplineSet
EndChar
StartChar: uni0E1F
Encoding: 191 3615 159
Width: 689
Flags: W
HStem: 0 21G<148 238 510 602> 392 49<228 245> 545 49<268 291>
VStem: 500 58<220.506 249>
DStem: 500 450 544 588 510 0 558 249 532 588 500 450 329 249 238 0 773 964 869 964 575 253 602 0
AnchorPoint: "AboveBase" 618.507 629.76 basechar 0
Fore
869 964 m 1
 602 0 l 1
 510 0 l 1
 500 450 l 1
 238 0 l 1
 148 0 l 1
 258 395 l 1
 246 393 237 392 229 392 c 0
 177.252 392 154.342 424.008 154.342 462.541 c 0
 154.342 520.81 206.729 594 291 594 c 0
 369.484 594 385.559 555.652 385.559 522.985 c 0
 385.559 502.376 379.161 484.029 378 479 c 0
 378 478 315 253 315 253 c 2
 308 226 280 160 280 160 c 1
 285 160 l 1
 285 160 312 217 329 249 c 1
 532 588 l 1
 544 588 l 1
 558 249 l 1
 558 217 552 160 552 160 c 1
 558 160 l 1
 558 160 568 226 575 253 c 1
 773 964 l 1
 869 964 l 1
239 441 m 0
 279.947 441 306.753 478.711 306.753 508.716 c 0
 306.753 528.54 295.053 545 268 545 c 0
 227.561 545 200.965 507.114 200.965 477.075 c 0
 200.965 457.345 212.439 441 239 441 c 0
EndSplineSet
EndChar
StartChar: uni0E20
Encoding: 192 3616 160
Width: 588
Flags: W
HStem: -8 45<99 113> 378 44<221 234 221 387>
DStem: 179 304 282 318 147 187 220 92 520 413 617 407 405 0 504 0
Fore
504 0 m 1
 405 0 l 1
 520 413 l 2
 523.727 426.611 525.465 439.179 525.465 450.694 c 0
 525.465 512.14 475.972 543.59 415.134 543.59 c 0
 346.663 543.59 263.822 503.752 221 422 c 1
 399 422 l 1
 387 378 l 1
 338 378 l 2
 312 378 290 346 282 318 c 2
 220 92 l 2
 202 29 151 -8 99 -8 c 0
 50.5549 -8 29.4907 23.1293 29.4907 60.5168 c 0
 29.4907 115.739 75.4451 184.615 147 187 c 1
 179 304 l 2
 186 329 213 373 234 378 c 1
 157 378 l 1
 201.292 521.949 343.172 598.615 458.763 598.615 c 0
 548.553 598.615 622.48 552.354 622.48 455.436 c 0
 622.48 440.499 620.724 424.359 617 407 c 1
 504 0 l 1
111 37 m 0
 151.947 37 178.753 74.7108 178.753 104.716 c 0
 178.753 124.54 167.053 141 140 141 c 0
 99.0527 141 72.247 103.289 72.247 73.2839 c 0
 72.247 53.4603 83.9473 37 111 37 c 0
EndSplineSet
EndChar
StartChar: uni0E21
Encoding: 193 3617 161
Width: 621
Flags: W
HStem: 0 21G<448 538> 392 49<226 239> 545 49<266 290>
DStem: 606 596 703 596 473 114 538 0
Fore
703 596 m 1
 538 0 l 0
 448 0 l 0
 431 80 395 141 292 177 c 1
 281 138 274 104 263 78 c 0
 239 22 208 -8 151 -8 c 0
 150.682 -8.00215 150.364 -8.00322 150.048 -8.00322 c 0
 92.4225 -8.00322 67.9106 27.6175 67.9106 71.4891 c 0
 67.9106 139.345 126.55 226.94 212 233 c 1
 257 395 l 1
 245 393 235 392 227 392 c 0
 176.014 392 153.271 424.05 153.271 462.617 c 0
 153.271 520.873 205.164 594 290 594 c 0
 367.648 594 383.617 555.871 383.617 523.267 c 0
 383.617 502.543 377.166 484.052 376 479 c 0
 376 478 319 275 305 224 c 1
 353 215 432 175 473 114 c 1
 606 596 l 1
 703 596 l 1
168 75 m 0
 199 187 l 0
 158.105 186.243 113.769 135.589 113.769 93.6737 c 0
 113.769 80.2419 118.322 67.7074 129 58 c 0
 131.705 55.9715 136.238 54.6288 141.325 54.6288 c 0
 151.285 54.6288 163.367 59.7758 168 75 c 0
237 441 m 0
 277.947 441 304.753 478.711 304.753 508.716 c 0
 304.753 528.54 293.053 545 266 545 c 0
 226.07 545 199.683 506.933 199.683 476.86 c 0
 199.683 457.226 210.93 441 237 441 c 0
EndSplineSet
EndChar
StartChar: uni0E22
Encoding: 194 3618 162
Width: 575
Flags: W
HStem: -8 46<271 301> 283 44<306 343> 398 47<310 322> 550 48<343 363>
Fore
652 596 m 1
 535 174 l 1
 535 174 l 0
 505 65 411 -8 276 -8 c 0
 172.308 -8 108.475 31.8586 108.475 111.576 c 0
 108.475 127.188 110.923 144.33 116 163 c 2
 116 163 123 186 123 187 c 0
 142 257 189 289 219 306 c 1
 204.398 315.222 182.118 335.667 182.118 378.681 c 0
 182.118 391.636 184.139 406.639 189 424 c 0
 194.384 444.64 195.541 449.576 195.541 450.011 c 0
 195.541 450.033 195.538 450.044 195.532 450.044 c 0
 195.454 450.044 194.886 448.117 194.885 448.117 c 0
 194.885 448.117 l 0
 194.885 448.12 195.146 449.012 196 452 c 0
 215 521 259 598 363 598 c 0
 415.41 598 438.076 565.494 438.076 526.691 c 0
 438.076 469.246 388.397 398 312 398 c 0
 301 398 286 399 279 407 c 1
 275.452 394.581 273.702 383.319 273.702 373.424 c 0
 273.702 344.278 288.884 327 318 327 c 2
 356 327 l 1
 343 283 l 1
 305 283 l 2
 272 283 241 258 225 203 c 2
 203 124 l 2
 200.812 116.07 199.784 108.701 199.784 101.888 c 0
 199.784 58.8671 240.793 38 290 38 c 0
 355 38 411 71 426 126 c 0
 427 131 549 570 556 596 c 1
 652 596 l 1
320 445 m 0
 361.167 445 388.406 483.483 388.406 513.854 c 0
 388.406 533.65 376.833 550 350 550 c 0
 309.852 550 283.025 511.146 283.025 480.709 c 0
 283.025 461.11 294.148 445 320 445 c 0
EndSplineSet
EndChar
StartChar: uni0E23
Encoding: 195 3619 163
Width: 427
Flags: W
HStem: -3 49<218 234> 151 49<258 271> 578 20G<289 366.5>
DStem: 137 445 212 478 328 387 401 422 340 350 437 350 297 195 372 114
Fore
549 559 m 0
 549 559 l 0
 519.01 507.508 479.735 495.078 448.204 495.078 c 0
 424.013 495.078 404.381 502.395 397 505 c 0
 355.917 521.349 324.324 529.966 298.316 529.966 c 0
 262.285 529.966 236.974 513.428 212 478 c 1
 401 422 l 2
 425.795 415.026 440.984 401.448 440.984 375.683 c 0
 440.984 368.197 439.702 359.681 437 350 c 2
 372 114 l 2
 368 100 349 -3 218 -3 c 0
 163.058 -3 140.151 28.4181 140.151 66.5342 c 0
 140.151 125.306 194.614 200.004 270.084 200.004 c 0
 270.389 200.004 270.694 200.002 271 200 c 0
 279 200 290 198 297 195 c 1
 340 350 l 2
 341.846 357.017 343.147 363.215 343.147 368.494 c 0
 343.147 377.511 339.353 383.846 328 387 c 2
 137 445 l 1
 169 499 237 598 341 598 c 0
 392 598 450.312 565.938 491.047 565.938 c 0
 504.625 565.938 516.25 569.5 525 579 c 0
 534.675 589.078 543.862 594.281 550.007 594.281 c 0
 554.705 594.281 557.625 591.24 557.625 585.013 c 0
 557.625 579.179 555.063 570.548 549 559 c 0
229 46 m 0
 268.93 46 295.317 84.4331 295.317 114.795 c 0
 295.317 134.618 284.07 151 258 151 c 0
 217.053 151 190.247 112.927 190.247 82.6328 c 0
 190.247 62.6185 201.947 46 229 46 c 0
EndSplineSet
KernsSLIF: 212 31 1 0 215 31 1 0 214 31 1 0 213 31 1 0
EndChar
StartChar: uni0E24
Encoding: 196 3620 164
Width: 571
Flags: W
HStem: 378 44<199 214 199 365>
DStem: 163 315 265 326 110 121 226 183 499 404 595 402 319 -246 416 -246
Fore
319 -246 m 5
 499 404 l 2
 503.228 419.1 505.193 433.009 505.193 445.709 c 0
 505.193 510.096 454.698 543.419 392.632 543.419 c 0
 325.058 543.419 243.769 503.918 199 422 c 1
 377 422 l 1
 365 378 l 1
 343 378 318 378 318 378 c 2
 291 378 273 355 265 326 c 2
 265 326 239 229 226 183 c 1
 234.838 184.871 242.972 185.747 250.42 185.747 c 0
 294.051 185.747 314.139 155.683 314.139 119.349 c 0
 314.139 65.7315 270.394 -1.53906 194 -6 c 0
 190.7 -6.1941 187.513 -6.28878 184.433 -6.28878 c 0
 119.978 -6.28878 103.123 35.1995 103.123 74.6997 c 0
 103.123 91.6425 106.224 108.22 110 121 c 2
 163 315 l 2
 169 336 193 373 214 378 c 1
 135 378 l 1
 179 522.048 320.678 598.599 436.434 598.599 c 0
 526.78 598.599 601.335 551.967 601.335 454.398 c 0
 601.335 438.321 599.311 420.862 595 402 c 0
 416 -246 l 5
 319 -246 l 5
202 37 m 0
 242.439 37 269.035 74.8864 269.035 104.925 c 0
 269.035 124.655 257.561 141 231 141 c 0
 190.561 141 163.965 103.114 163.965 73.0747 c 0
 163.965 53.3446 175.439 37 202 37 c 0
EndSplineSet
EndChar
StartChar: uni0E25
Encoding: 197 3621 165
Width: 552
Flags: W
HStem: 0 21G<369 465> 376 54<362 371>
DStem: 447 283 580 413 369 0 465 0
Fore
465 0 m 1
 369 0 l 1
 447 283 l 2
 448.866 289.604 449.764 296.228 449.764 302.731 c 0
 449.764 341.526 417.817 376 369 376 c 0
 308 376 258 329 244 276 c 2
 219 187 l 1
 230.053 189.456 240.094 190.597 249.158 190.597 c 0
 295.576 190.597 316.379 160.674 316.379 124.221 c 0
 316.379 69.2621 269.091 -0.53767 191 -5 c 0
 189.32 -5.05362 187.667 -5.08009 186.042 -5.08009 c 0
 117.221 -5.08009 97.5602 42.3917 97.5602 84.8424 c 0
 97.5602 97.4657 99.2987 109.645 102 120 c 2
 143 266 l 2
 166 350 258 430 364 430 c 0
 423 430 459 410 476 379 c 1
 480 393 485 410 488 422 c 0
 491.427 434.204 493.038 445.521 493.038 455.921 c 0
 493.038 510.496 448.696 539.85 389.798 539.85 c 0
 325.638 539.85 244.203 505.015 184 430 c 1
 155 450 l 1
 236.347 554.28 336.792 597.712 420.283 597.712 c 0
 514.005 597.712 586.365 542.983 586.365 458.165 c 0
 586.365 443.92 584.324 428.826 580 413 c 2
 465 0 l 1
200 41 m 0
 240.947 41 267.753 79.0734 267.753 109.367 c 0
 267.753 129.381 256.053 146 229 146 c 0
 188.053 146 161.247 107.927 161.247 77.6328 c 0
 161.247 57.6185 172.947 41 200 41 c 0
EndSplineSet
EndChar
StartChar: uni0E26
Encoding: 198 3622 166
Width: 583
Flags: W
HStem: -8 45<93 107> 378 44<215 228 215 382>
DStem: 174 304 276 318 142 187 211 83 515 413 611 407 332 -246 429 -246
Fore
332 -246 m 1
 515 413 l 2
 518.714 426.564 520.446 439.092 520.446 450.574 c 0
 520.446 512.099 470.707 543.59 409.614 543.59 c 0
 340.9 543.59 257.822 503.752 215 422 c 1
 394 422 l 1
 382 378 l 1
 332 378 l 2
 305 378 284 346 276 318 c 2
 211 83 l 2
 194 20 145 -8 93 -8 c 0
 44.6304 -8 23.5563 23.0325 23.5563 60.3423 c 0
 23.5563 115.594 69.7727 184.612 142 187 c 1
 174 304 l 2
 181 329 207 373 228 378 c 1
 151 378 l 1
 195.292 521.949 337.45 598.615 453.158 598.615 c 0
 542.849 598.615 616.647 552.548 616.647 456.045 c 0
 616.647 440.938 614.839 424.595 611 407 c 0
 429 -246 l 1
 332 -246 l 1
105 37 m 0
 145.439 37 172.035 74.8864 172.035 104.925 c 0
 172.035 124.655 160.561 141 134 141 c 0
 93.5611 141 66.9652 103.114 66.9652 73.0747 c 0
 66.9652 53.3446 78.4389 37 105 37 c 0
EndSplineSet
EndChar
StartChar: uni0E27
Encoding: 199 3623 167
Width: 478
Flags: W
HStem: -5 45<262 281> 144 46<306 318>
DStem: 418 441 511 421 348 186 430 131
Fore
430 131 m 1
 430 131 l 0
 407 46 360 -5 262 -5 c 0
 221.094 -5 194.824 24.27 194.824 64.1929 c 0
 194.824 72.0929 195.852 80.41 198 89 c 0
 212 143 257 189 316 190 c 0
 331 190 339 189 348 186 c 1
 418 441 l 2
 420.942 451.421 422.322 461.122 422.322 470.061 c 0
 422.322 515.936 385.956 541.723 337.622 541.723 c 0
 283.321 541.723 213.914 509.176 164 436 c 1
 132 458 l 1
 194.254 554.293 287.801 597.228 367.181 597.228 c 0
 450.217 597.228 517.751 550.247 517.751 468.212 c 0
 517.751 453.569 515.599 437.809 511 421 c 2
 430 131 l 1
279 40 m 0
 319.947 40 346.753 77.7108 346.753 107.716 c 0
 346.753 127.54 335.053 144 308 144 c 0
 267.053 144 240.247 106.289 240.247 76.2839 c 0
 240.247 56.4603 251.947 40 279 40 c 0
EndSplineSet
EndChar
StartChar: uni0E28
Encoding: 200 3624 168
Width: 561
Flags: W
HStem: 0 21G<85 183 381 478> 249 44<312 326> 398 46<348 366> 545 54<379 406>
DStem: 150 233 240 206 85 0 183 0 488 386 588 396 381 0 478 0
Fore
433 401 m 0
 433 401 l 0
 449 409 482 436 497 452 c 1
 494 510 457 545 388 545 c 0
 285 545 205 482 182 401 c 0
 179.463 391.775 178.416 383.189 178.416 375.265 c 0
 178.416 348.83 190.076 329.771 197 319 c 1
 200 319 l 1
 236 390 279 444 366 444 c 0
 404 444 422 427 433 401 c 0
488 386 m 1
 488 386 l 0
 468 375 445 361 432 356 c 1
 425 307 380 249 314 249 c 0
 290 249 273 257 265 266 c 1
 256 255 248 233 240 206 c 2
 183 0 l 1
 85 0 l 1
 150 233 l 2
 151.06 237.048 151.526 240.976 151.526 244.855 c 0
 151.526 272.871 127.239 298.371 127.239 348.677 c 0
 127.239 363.673 129.397 380.872 135 401 c 0
 170 525 283 599 402 599 c 0
 474 599 541 581 572 539 c 1
 586 554 612 601 617 627 c 1
 715 627 l 1
 688 561 629 498 595 468 c 1
 595.875 462.753 596.324 457.081 596.324 450.91 c 0
 596.324 435.911 593.668 417.963 588 396 c 2
 478 0 l 1
 381 0 l 1
 488 386 l 1
321 293 m 0
 361.947 293 388.753 331.073 388.753 361.367 c 0
 388.753 381.381 377.053 398 350 398 c 0
 309.561 398 282.965 359.749 282.965 329.422 c 0
 282.965 309.502 294.439 293 321 293 c 0
EndSplineSet
EndChar
StartChar: uni0E29
Encoding: 201 3625 169
Width: 631
Flags: W
HStem: 0 45<104 435> 392 49<226 239> 545 49<266 290>
DStem: 515 243 711 596 478 108 579 120 615 596 711 596 550 361 579 120
Fore
711 596 m 1
 579 120 l 0
 579 120 l 0
 570 74 522 0 435 0 c 2
 93 0 l 1
 105 45 l 1
 159 45 l 1
 257 395 l 1
 245 393 235 392 227 392 c 0
 174.632 392 151.539 423.793 151.539 462.153 c 0
 151.539 520.484 204.938 594 290 594 c 0
 367.648 594 383.617 555.871 383.617 523.267 c 0
 383.617 502.543 377.166 484.052 376 479 c 2
 353 395 l 1
 363.2 398.6 368.72 399.32 373.88 399.32 c 0
 377.32 399.32 380.6 399 385 399 c 0
 428.304 399 447.414 370.773 447.414 337.59 c 0
 447.414 298.742 421.224 253.101 377 238 c 1
 384.835 235.27 393.05 234.005 401.468 234.005 c 0
 463.966 234.005 537.662 303.716 550 361 c 1
 615 596 l 1
 711 596 l 1
478 108 m 0
 515 243 l 0
 469.207 199.838 421.751 182.997 382.403 182.997 c 0
 346.997 182.997 318.156 196.634 303 217 c 1
 303 217 264 75 255 45 c 1
 408 45 l 2
 434 45 466 65 478 108 c 0
344 263 m 0
 344 263 l 0
 381.966 263 406.857 298.59 406.857 326.875 c 0
 406.857 345.525 396.034 361 371 361 c 0
 333.034 361 308.143 325.41 308.143 297.125 c 0
 308.143 278.475 318.966 263 344 263 c 0
237 441 m 0
 277.947 441 304.753 478.711 304.753 508.716 c 0
 304.753 528.54 293.053 545 266 545 c 0
 226.07 545 199.683 506.933 199.683 476.86 c 0
 199.683 457.226 210.93 441 237 441 c 0
EndSplineSet
EndChar
StartChar: uni0E2A
Encoding: 202 3626 170
Width: 550
Flags: W
HStem: 0 21G<369 465> 335 47<356 370>
DStem: 432 226 580 413 369 0 465 0
Fore
715 627 m 1
 715 627 l 0
 698 584 643 528 584 490 c 1
 586.244 484.615 587.682 476.41 587.682 465.476 c 0
 587.682 452.045 585.512 434.498 580 413 c 2
 465 0 l 1
 369 0 l 1
 432 226 l 2
 434.398 235.111 435.543 244.094 435.543 252.757 c 0
 435.543 298.295 403.889 335 356 335 c 0
 295 335 247 290 233 238 c 2
 219 187 l 1
 230.053 189.456 240.094 190.597 249.158 190.597 c 0
 295.576 190.597 316.379 160.674 316.379 124.221 c 0
 316.379 69.2621 269.091 -0.53767 191 -5 c 0
 189.32 -5.05362 187.667 -5.08009 186.042 -5.08009 c 0
 117.221 -5.08009 97.5602 42.3917 97.5602 84.8424 c 0
 97.5602 97.4657 99.2987 109.645 102 120 c 2
 132 227 l 2
 159 324 251 372 287 381 c 1
 338 402 429 449 487 488 c 1
 473.106 522.933 437.308 539.587 393.305 539.587 c 0
 326.461 539.587 240.685 501.157 184 430 c 1
 155 450 l 1
 232.971 550.687 334.688 597.096 421.043 597.096 c 0
 475.344 597.096 523.571 578.745 556 544 c 1
 584 570 606 599 617 627 c 1
 715 627 l 1
462 326 m 0
 462 326 l 1
 462 326 483 402 487 415 c 0
 488.633 420.715 490.266 427.098 490.266 432.513 c 0
 490.266 433.731 490.184 434.899 490 436 c 1
 458 419 408 396 368 382 c 1
 405 382 455 366 462 326 c 0
200 41 m 0
 240.947 41 267.753 79.0734 267.753 109.367 c 0
 267.753 129.381 256.053 146 229 146 c 0
 188.053 146 161.247 107.927 161.247 77.6328 c 0
 161.247 57.6185 172.947 41 200 41 c 0
EndSplineSet
EndChar
StartChar: uni0E2B
Encoding: 203 3627 171
Width: 620
Flags: W
HStem: 0 21G<137 236 438 536> 393 48<218 231> 545 49<258 282>
DStem: 247 398 368 479 137 0 303 247 247 398 263 97 137 0 236 0 541 370 639 372 438 0 536 0
Fore
536 0 m 1
 438 0 l 1
 541 370 l 2
 542.8 378.4 544.24 384.64 544.24 389.584 c 0
 544.24 392.88 543.6 395.6 542 398 c 1
 418 326 303 175 290 157 c 0
 275 134 268 114 263 97 c 2
 236 0 l 1
 137 0 l 1
 247 398 l 1
 239 395 227 393 218 393 c 0
 167.841 393 145.055 425.365 145.055 464.12 c 0
 145.055 521.946 195.783 594 282 594 c 0
 359.521 594 375.342 555.391 375.342 522.653 c 0
 375.342 502.179 369.154 484.002 368 479 c 2
 303 247 l 1
 384 338 481 409 515 429 c 1
 506.219 441.457 502.275 455.708 502.275 470.5 c 0
 502.275 528.14 562.154 594 629 594 c 0
 680.89 594 702.412 563.405 702.412 526.921 c 0
 702.412 486.767 676.343 439.482 636 418 c 1
 639.227 410.9 642.455 403.382 642.455 392.759 c 0
 642.455 386.925 641.482 380.154 639 372 c 2
 536 0 l 1
229 441 m 0
 229 441 l 0
 269.947 441 296.753 478.711 296.753 508.716 c 0
 296.753 528.54 285.053 545 258 545 c 0
 217.053 545 190.247 507.289 190.247 477.284 c 0
 190.247 457.46 201.947 441 229 441 c 0
587 444 m 0
 627.947 444 654.753 481.711 654.753 511.716 c 0
 654.753 531.54 643.053 548 616 548 c 0
 575.561 548 548.965 510.114 548.965 480.075 c 0
 548.965 460.345 560.439 444 587 444 c 0
EndSplineSet
EndChar
StartChar: uni0E2C
Encoding: 204 3628 172
Width: 679
Flags: W
HStem: 0 21G<139 230 501 595> 392 49<220 236> 545 49<260 282> 594 45<666 681>
DStem: 470 404 516 558 501 0 547 249 508 558 470 404 323 249 230 0 626 455 729 482 568 253 595 0
Fore
897 644 m 1
 897 644 l 0
 863 542 760 492 729 482 c 1
 595 0 l 1
 501 0 l 1
 470 404 l 1
 230 0 l 1
 139 0 l 1
 249 395 l 1
 238 393 227 392 221 392 c 0
 168.546 392 145.272 424.387 145.272 463.224 c 0
 145.272 521.38 197.458 594 282 594 c 0
 360.484 594 376.559 555.652 376.559 522.985 c 0
 376.559 502.376 370.161 484.029 369 479 c 0
 369 478 306 253 306 253 c 2
 299 226 271 160 271 160 c 1
 277 160 l 1
 277 160 305 217 323 249 c 1
 508 558 l 1
 516 558 l 1
 547 249 l 1
 546 217 544 160 544 160 c 1
 549 160 l 1
 549 160 561 226 568 253 c 1
 626 455 l 1
 581.396 458.491 562.216 486.954 562.216 520.492 c 0
 562.216 573.425 609.992 639 681 639 c 0
 724.445 639 749.748 617.498 749.748 575.596 c 0
 749.748 566.38 748.524 556.177 746 545 c 1
 767 558 802 598 810 644 c 1
 897 644 l 1
642 499 m 0
 642 499 l 0
 679.457 499 704.139 533.674 704.139 561.126 c 0
 704.139 579.114 693.543 594 669 594 c 0
 631.034 594 606.143 559.5 606.143 532.081 c 0
 606.143 514.001 616.966 499 642 499 c 0
231 441 m 0
 270.93 441 297.317 479.067 297.317 509.14 c 0
 297.317 528.774 286.07 545 260 545 c 0
 219.053 545 192.247 507.289 192.247 477.284 c 0
 192.247 457.46 203.947 441 231 441 c 0
EndSplineSet
EndChar
StartChar: uni0E2D
Encoding: 205 3629 173
Width: 539
Flags: W
HStem: -8 21G<230.61 286>
DStem: 155 315 235 250 112 160 200 124
Fore
500 158 m 1
 500 158 l 0
 462 22 312 -8 260 -8 c 0
 201.219 -8 104.329 11.428 104.329 108.417 c 0
 104.329 123.629 106.713 140.748 112 160 c 2
 155 315 l 2
 167.719 358.049 218.726 445.129 308.023 445.129 c 0
 309.996 445.129 311.989 445.086 314 445 c 0
 365.86 443.539 387.576 412.469 387.576 375.315 c 0
 387.576 318.044 335.973 246.319 263.635 246.319 c 0
 254.406 246.319 244.84 247.486 235 250 c 1
 200 124 l 1
 197.797 115.702 196.77 107.997 196.77 100.889 c 0
 196.77 59.2822 231.974 38.1213 272.679 38.1213 c 0
 319.719 38.1213 374.105 66.3799 390 124 c 2
 390 124 470 410 473 422 c 0
 476.427 434.204 478.038 445.521 478.038 455.921 c 0
 478.038 510.496 433.696 539.85 374.798 539.85 c 0
 310.638 539.85 229.203 505.015 169 430 c 1
 139 450 l 1
 220.78 554.28 322.593 597.712 407.498 597.712 c 0
 503.093 597.712 577.253 542.656 577.253 457.404 c 0
 577.253 443.382 575.247 428.544 571 413 c 2
 500 158 l 1
273 295 m 0
 312.93 295 339.317 333.067 339.317 363.14 c 0
 339.317 382.774 328.07 399 302 399 c 0
 261.053 399 234.247 361.289 234.247 331.284 c 0
 234.247 311.46 245.947 295 273 295 c 0
EndSplineSet
EndChar
StartChar: uni0E2E
Encoding: 206 3630 174
Width: 539
Flags: W
HStem: -8 21G<230.61 286>
Fore
642 602 m 1
 642 602 l 0
 620 564 596 533 570 508 c 1
 574.852 495.062 577.669 479.8 577.669 462.369 c 0
 577.669 447.465 575.609 430.976 571 413 c 2
 500 158 l 2
 462 22 312 -8 260 -8 c 0
 201.219 -8 104.329 11.428 104.329 108.417 c 0
 104.329 123.629 106.713 140.748 112 160 c 2
 135 241 l 2
 146.802 285.257 198.262 372.074 289.379 372.074 c 0
 290.908 372.074 292.448 372.05 294 372 c 0
 345.147 370.186 366.424 340.083 366.424 304.027 c 0
 366.424 247.613 314.337 176.629 243.069 176.629 c 0
 234.315 176.629 225.272 177.699 216 180 c 1
 200 124 l 1
 197.797 115.702 196.77 107.997 196.77 100.889 c 0
 196.77 59.2822 231.974 38.1213 272.679 38.1213 c 0
 319.719 38.1213 374.105 66.3799 390 124 c 2
 390 124 470 410 473 422 c 0
 475 430 477 438 478 445 c 1
 419 419 364 413 330 410 c 0
 311.333 408.5 294.139 407.75 278.486 407.75 c 0
 206.483 407.75 167.102 423.62 167.102 455.36 c 0
 167.102 458.12 167.4 461 168 464 c 0
 185.517 542.474 304.164 594.438 409.055 594.438 c 0
 453.867 594.438 496.168 584.954 527 564 c 1
 537 576 544 590 549 602 c 1
 642 602 l 1
469 501 m 0
 469 501 l 0
 449.73 530.52 409.952 542.558 368.688 542.558 c 0
 309.308 542.558 246.85 517.63 238 484 c 0
 237.733 482.865 237.595 481.731 237.595 480.603 c 0
 237.595 466.873 258.008 454.112 314.377 454.112 c 0
 322.771 454.112 331.961 454.395 342 455 c 0
 392 458 433 475 469 501 c 0
253 223 m 0
 292.93 223 319.317 261.067 319.317 291.14 c 0
 319.317 310.774 308.07 327 282 327 c 0
 241.053 327 214.247 289.289 214.247 259.284 c 0
 214.247 239.46 225.947 223 253 223 c 0
EndSplineSet
EndChar
StartChar: uni0E2F
Encoding: 207 3631 175
Width: 514
Flags: W
HStem: 553 45<264 280>
DStem: 439 432 583 594 314 -18 413 -18
Fore
413 -18 m 1
 314 -18 l 1
 439 432 l 1
 387.525 401.692 331.653 390.825 284.188 390.825 c 0
 232.987 390.825 191.568 403.47 176 418 c 0
 159.2 433.75 151.84 453.634 151.84 474.396 c 0
 151.84 532.731 209.937 598 280 598 c 0
 327.395 598 353.409 565.929 353.409 526.696 c 0
 353.409 498.051 339.541 465.587 310 439 c 1
 430 439 480 525 499 594 c 1
 583 594 l 1
 413 -18 l 1
238 449 m 0
 278.218 449 304.384 486.474 304.384 516.433 c 0
 304.384 536.383 292.782 553 266 553 c 0
 225.782 553 199.616 515.526 199.616 485.567 c 0
 199.616 465.617 211.218 449 238 449 c 0
EndSplineSet
EndChar
StartChar: uni0E30
Encoding: 208 3632 176
Width: 438
Flags: W
HStem: -6 54<179 203> 152 45<161 178> 396 54<291 315> 554 45<273 289>
Fore
555 594 m 1
 555 594 l 0
 497 444 389 396 291 396 c 0
 194.103 396 164.888 437.866 164.888 476.717 c 0
 164.888 484.377 166.024 491.919 168 499 c 0
 181 544 216 599 289 599 c 0
 336.584 599 358.381 573.213 358.381 537.6 c 0
 358.381 528.308 356.897 518.346 354 508 c 0
 349 492 339 464 313 450 c 1
 412 452 455 521 471 594 c 1
 555 594 l 1
247 456 m 0
 247 456 l 0
 285.694 456 311.228 491.822 311.228 520.15 c 0
 311.228 538.678 300.306 554 275 554 c 0
 236.815 554 211.488 517.998 211.488 489.636 c 0
 211.488 471.205 222.185 456 247 456 c 0
443 192 m 1
 443 192 l 0
 385 41 277 -6 179 -6 c 0
 82.4891 -6 53.8146 35.5325 53.8146 74.2524 c 0
 53.8146 82.0713 54.9839 89.7756 57 97 c 0
 69 141 105 197 178 197 c 0
 225.295 197 246.494 170.903 246.494 135.853 c 0
 246.494 126.437 244.964 116.375 242 106 c 0
 238 89 227 61 201 48 c 1
 301 49 344 118 359 192 c 1
 443 192 l 1
136 54 m 0
 174.474 54 199.576 89.4156 199.576 117.667 c 0
 199.576 136.41 188.526 152 163 152 c 0
 125.034 152 100.143 116.41 100.143 88.1254 c 0
 100.143 69.4746 110.966 54 136 54 c 0
EndSplineSet
EndChar
StartChar: uni0E31
Encoding: 209 3633 177
Width: 0
Flags: W
HStem: 676 100<-42 43> 880 49<-16 -1>
AnchorPoint: "AboveMark" 183.263 983.04 basemark 0
AnchorPoint: "AboveBase" 85.2891 629.76 mark 0
Fore
406 923 m 1
 406 923 l 0
 315.346 742.677 170.318 675.956 48.4138 675.956 c 0
 46.604 675.956 44.7993 675.971 43 676 c 0
 -57.0043 676 -135.079 722.993 -135.079 794.105 c 0
 -135.079 803.346 -133.76 812.994 -131 823 c 0
 -114 882 -59 929 -1 929 c 0
 47.8061 929 75.4386 899.886 75.4386 857.267 c 0
 75.4386 847.493 73.985 837.007 71 826 c 0
 60 786 31 753 -14 736 c 1
 9.15507 728.557 33.7206 724.619 58.6981 724.619 c 0
 154.536 724.619 256.438 782.593 308 923 c 1
 406 923 l 1
-42 776 m 0
 -2.06975 776 24.3174 814.067 24.3174 844.14 c 0
 24.3174 863.774 13.0697 880 -13 880 c 0
 -53.9473 880 -80.753 842.289 -80.753 812.284 c 0
 -80.753 792.46 -69.0527 776 -42 776 c 0
EndSplineSet
EndChar
StartChar: uni0E32
Encoding: 210 3634 178
Width: 407
Flags: W
HStem: 0 21G<224 322>
DStem: 350 456 447 449 224 0 322 0
Fore
322 0 m 1
 224 0 l 1
 350 456 l 2
 352.554 464.94 353.752 473.148 353.752 480.618 c 0
 353.752 517.776 324.114 536.682 284.366 536.682 c 0
 244.512 536.682 194.495 517.675 154 479 c 1
 134 505 l 1
 189.307 561.69 270.956 593.951 337.922 593.951 c 0
 402.809 593.951 453.912 563.663 453.912 495.959 c 0
 453.912 481.933 451.719 466.301 447 449 c 2
 322 0 l 1
EndSplineSet
EndChar
StartChar: uni0E33
Encoding: 211 3635 179
Width: 407
Flags: W
HStem: 0 21G<224 322> 673 54<61 76> 831 57<103 120>
DStem: 350 456 447 449 224 0 322 0
Fore
61 673 m 0
 61 673 l 0
 6.623 673 -16.8763 706.871 -16.8763 747.725 c 0
 -16.8763 809.801 37.377 888 120 888 c 0
 173.885 888 197.158 854.248 197.158 813.489 c 0
 197.158 751.379 143.115 673 61 673 c 0
322 0 m 1
 224 0 l 1
 350 456 l 2
 352.554 464.94 353.752 473.148 353.752 480.618 c 0
 353.752 517.776 324.114 536.682 284.366 536.682 c 0
 244.512 536.682 194.495 517.675 154 479 c 1
 134 505 l 1
 189.307 561.69 270.956 593.951 337.922 593.951 c 0
 402.809 593.951 453.912 563.663 453.912 495.959 c 0
 453.912 481.933 451.719 466.301 447 449 c 2
 322 0 l 1
76 727 m 0
 116.726 727 143.104 764.304 143.104 794.229 c 0
 143.104 814.269 131.274 831 104 831 c 0
 63.2739 831 36.8957 793.696 36.8957 763.771 c 0
 36.8957 743.731 48.7261 727 76 727 c 0
EndSplineSet
MultipleSubs: 0 1 'ccmp' uni0E4D uni0E32
EndChar
StartChar: uni0E34
Encoding: 212 3636 180
Width: 0
Flags: W
AnchorPoint: "AboveMark" 136.387 983.04 basemark 0
AnchorPoint: "AboveBase" 85.2891 629.76 mark 0
Fore
107 636 m 0
 107 636 l 0
 -4.78297 694.449 -100.019 726.208 -206.006 726.208 c 0
 -245.086 726.208 -285.628 721.89 -329 713 c 1
 -266.524 833.391 -152.058 893.682 -54.3578 893.682 c 0
 40.6931 893.682 119.875 836.617 119.875 722.312 c 0
 119.875 696.468 115.827 667.698 107 636 c 0
70 708 m 1
 64.5458 787.995 0.329748 839.343 -77.2442 839.343 c 0
 -127.676 839.343 -183.753 817.641 -233 768 c 1
 -214.812 770.25 -195.711 771.375 -176.13 771.375 c 0
 -91.2812 771.375 2.5625 750.25 70 708 c 1
EndSplineSet
EndChar
StartChar: uni0E35
Encoding: 213 3637 181
Width: 0
Flags: W
AnchorPoint: "AboveMark" 136.387 983.04 basemark 0
AnchorPoint: "AboveBase" 85.2891 629.76 mark 0
Fore
107 636 m 0
 107 636 l 0
 -4.78297 694.449 -100.019 726.208 -206.006 726.208 c 0
 -245.086 726.208 -285.628 721.89 -329 713 c 1
 -266.88 833.005 -151.939 893.711 -54.1777 893.711 c 0
 -13.4495 893.711 24.297 883.174 54 862 c 1
 78 948 l 1
 173 948 l 5
 118 750 l 1
 119.411 740.687 120.105 730.976 120.105 720.867 c 0
 120.105 695.154 115.614 666.865 107 636 c 0
70 708 m 1
 64.5458 787.995 0.329748 839.343 -77.2442 839.343 c 0
 -127.676 839.343 -183.753 817.641 -233 768 c 1
 -214.812 770.25 -195.711 771.375 -176.13 771.375 c 0
 -91.2812 771.375 2.5625 750.25 70 708 c 1
EndSplineSet
EndChar
StartChar: uni0E36
Encoding: 214 3638 182
Width: 0
Flags: W
HStem: 906 46<113 128>
AnchorPoint: "AboveMark" 136.387 983.04 basemark 0
AnchorPoint: "AboveBase" 85.2891 629.76 mark 0
Fore
107 636 m 0
 107 636 l 0
 -4.78297 694.449 -100.019 726.208 -206.006 726.208 c 0
 -245.086 726.208 -285.628 721.89 -329 713 c 1
 -266.866 834.081 -152.064 893.611 -54.3504 893.611 c 0
 -29.3989 893.611 -5.5616 889.73 16 882 c 1
 29 911 67 952 128 952 c 4
 178.397 952 200.043 922.438 200.043 886.639 c 0
 200.043 842.88 167.702 789.801 116 770 c 1
 119.028 755.995 120.623 740.844 120.623 724.601 c 0
 120.623 697.931 116.322 668.318 107 636 c 0
70 708 m 0
 70 708 l 0
 64.5458 787.995 0.329748 839.343 -77.2442 839.343 c 0
 -127.676 839.343 -183.753 817.641 -233 768 c 1
 -214.812 770.25 -195.711 771.375 -176.13 771.375 c 0
 -91.2812 771.375 2.5625 750.25 70 708 c 0
88 808 m 0
 125.966 808 150.857 843.59 150.857 871.875 c 0
 150.857 890.525 140.034 906 115 906 c 0
 77.0344 906 52.1426 870.41 52.1426 842.125 c 0
 52.1426 823.475 62.9656 808 88 808 c 0
EndSplineSet
EndChar
StartChar: uni0E37
Encoding: 215 3639 183
Width: 0
Flags: W
DStem: 97 949 170 949 68 849 118 754
AnchorPoint: "AboveMark" 77.792 983.04 basemark 0
AnchorPoint: "AboveBase" 85.2891 629.76 mark 0
Fore
107 636 m 0
 107 636 l 0
 -4.78297 694.449 -100.019 726.208 -206.006 726.208 c 0
 -245.086 726.208 -285.628 721.89 -329 713 c 1
 -267.5 833.024 -150.9 894.012 -53.3751 894.012 c 0
 -51 894 l 1
 -35 949 l 5
 34 949 l 1
 17 879 l 1
 38 872 53 860 68 849 c 1
 97 949 l 1
 170 949 l 1
 118 754 l 1
 119.506 743.76 120.286 732.977 120.286 721.703 c 0
 120.286 695.544 116.085 666.749 107 636 c 0
70 708 m 1
 64.5458 787.995 0.329748 839.343 -77.2442 839.343 c 0
 -127.676 839.343 -183.753 817.641 -233 768 c 1
 -214.812 770.25 -195.711 771.375 -176.13 771.375 c 0
 -91.2812 771.375 2.5625 750.25 70 708 c 1
EndSplineSet
EndChar
StartChar: uni0E38
Encoding: 216 3640 184
Width: 0
Flags: W
HStem: -227 41<-271 -246> -97 45<-229 -213>
AnchorPoint: "BelowBase" -103.841 -52.2236 mark 0
Fore
-176 -307 m 1
 -268 -307 l 1
 -246 -226 l 1
 -252 -227 -262 -227 -271 -227 c 0
 -314.4 -226.602 -333.385 -200.204 -333.385 -168.006 c 0
 -333.385 -119.338 -290.008 -57.4166 -222 -52 c 5
 -219.236 -51.878 -216.524 -51.8172 -213.867 -51.8172 c 0
 -160.55 -51.8172 -129.009 -76.2963 -129.009 -122.542 c 0
 -129.009 -130.69 -129.988 -139.515 -132 -149 c 1
 -176 -307 l 1
-200 -141 m 0
 -198.766 -136.769 -198.185 -132.663 -198.185 -128.768 c 0
 -198.185 -110.57 -210.878 -97 -229 -97 c 0
 -259 -97 -278 -115 -285 -141 c 0
 -286.024 -144.926 -286.524 -148.824 -286.524 -152.587 c 0
 -286.524 -170.87 -274.732 -186 -254 -186 c 0
 -227 -186 -206 -164 -200 -141 c 0
EndSplineSet
EndChar
StartChar: uni0E39
Encoding: 217 3641 185
Width: 0
Flags: W
HStem: -319 39<-285 -275> -214 37<-376 -365> -88 37<-344 -331>
DStem: -199 -57 -106 -57 -254 -257 -149 -212
AnchorPoint: "BelowBase" -103.841 -52.2236 mark 0
Fore
-149 -212 m 1
 -149 -212 l 0
 -165 -270 -211 -319 -277 -319 c 0
 -332.423 -319 -364.575 -292.204 -364.575 -251.047 c 0
 -364.575 -243.192 -363.404 -234.814 -361 -226 c 2
 -356 -210 l 1
 -360 -212 -367 -214 -376 -214 c 0
 -418.708 -213.202 -437.2 -187.073 -437.2 -155.962 c 0
 -437.2 -109.127 -395.292 -51 -331 -51 c 0
 -281.83 -51 -260.966 -73.7564 -260.966 -109.759 c 0
 -260.966 -122.081 -263.41 -135.955 -268 -151 c 1
 -297 -257 l 1
 -298.046 -259.51 -298.523 -261.975 -298.523 -264.306 c 0
 -298.523 -273.12 -291.7 -280 -283 -280 c 0
 -270 -280 -258 -272 -254 -257 c 2
 -199 -57 l 1
 -106 -57 l 5
 -149 -212 l 1
-314 -132 m 0
 -312.71 -127.576 -312.099 -123.287 -312.099 -119.235 c 0
 -312.099 -101.306 -324.056 -88 -342 -88 c 0
 -369 -88 -390 -106 -398 -132 c 0
 -398.981 -135.761 -399.454 -139.495 -399.454 -143.111 c 0
 -399.454 -161.607 -387.075 -177 -367 -177 c 0
 -341 -177 -320 -155 -314 -132 c 0
EndSplineSet
EndChar
StartChar: uni0E3A
Encoding: 218 3642 186
Width: 0
Flags: W
AnchorPoint: "BelowBase" -101.285 -43.0078 mark 0
Fore
-182 -174 m 0
 -217.348 -174 -232.689 -152.863 -232.689 -127.571 c 0
 -232.689 -89.896 -198.652 -43 -146 -43 c 0
 -112.621 -43 -98.1901 -63.6854 -98.1901 -88.6166 c 0
 -98.1901 -126.426 -131.379 -174 -182 -174 c 0
EndSplineSet
EndChar
StartChar: zerospace
Encoding: 220 8203 187
Width: 776
Flags: W
HStem: 0 61<112 604>
DStem: 112 61 145 -49 43 -187 107 -187 634 -54 730 61 597 -187 661 -187
Fore
661 -187 m 1
 597 -187 l 1
 634 -54 l 2
 635.992 -46.6294 636.992 -40.0524 636.992 -34.2454 c 0
 636.992 -10.9016 620.833 -1.27157e-06 588 0 c 2
 210 0 l 2
 175 0 155 -15 145 -49 c 2
 107 -187 l 1
 43 -187 l 1
 112 61 l 1
 730 61 l 1
 661 -187 l 1
EndSplineSet
EndChar
StartChar: dottedcircle
Encoding: 221 9676 188
Width: 618
Flags: W
HStem: -14 77<324 345> 23 77<189 211> 34 77<463 485> 118 77<118 139> 131 75<571 592> 263 76<641 662> 270 77<125 146> 399 77<646 667> 406 76<206 227> 493 77<578 599> 501 77<331 352> 535 76<475 496>
Fore
210 462 m 6
335 554 m 6
194 80 m 6
122 172 m 6
468 89 m 6
574 184 m 6
649 456 m 6
583 547 m 6
646 318 m 6
129 324 m 6
481 591 m 6
227 482 m 4,11,12
 243.94 482 253.722 470.938 253.722 456.163 c 0,0,0
 253.722 452.621 253.16 448.867 252 445 c 4,13,14
 247 424 227 406 206 406 c 4,15,16
 189.24 406 178.8 418.641 178.8 435.095 c 0,0,0
 178.8 438.275 179.19 441.598 180 445 c 4,17,18
 186 465 207 482 227 482 c 4,11,12
216 445 m 4,19,-1
 216 445 l 4,20,-1
 216 445 l 4,21,-1
 216 445 l 4,22,-1
 216 445 l 4,19,-1
352 578 m 4,23,24
 368.923 578 380.002 566.96 380.002 550.636 c 0,0,0
 380.002 546.704 379.359 542.465 378 538 c 4,25,26
 373 518 352 501 331 501 c 4,27,28
 314.774 501 302.924 513.399 302.924 529.476 c 0,0,0
 302.924 532.224 303.27 535.08 304 538 c 4,29,30
 311 561 333 578 352 578 c 4,23,24
341 538 m 4,31,-1
 341 538 l 4,32,-1
 341 538 l 4,33,-1
 341 538 l 4,34,-1
 341 538 l 4,31,-1
211 100 m 4,35,36
 226.474 100 236.642 88.7245 236.642 73.7358 c 0,0,0
 236.642 70.3202 236.114 66.7118 235 63 c 4,37,38
 229 41 208 23 189 23 c 4,39,40
 171.011 23 160.377 35.0343 160.377 51.4495 c 0,0,0
 160.377 55.1101 160.906 58.9886 162 63 c 4,41,42
 168 83 189 100 211 100 c 4,35,36
200 63 m 4,43,-1
 200 63 l 4,44,-1
 200 63 l 4,45,-1
 200 63 l 4,46,-1
 200 63 l 4,43,-1
139 195 m 4,47,48
 156.989 195 167.623 182.966 167.623 166.55 c 0,0,0
 167.623 162.89 167.094 159.011 166 155 c 4,49,50
 160 135 140 118 118 118 c 4,51,52
 102.347 118 91.4447 129.538 91.4447 144.787 c 0,0,0
 91.4447 148.047 91.9431 151.477 93 155 c 4,53,54
 99 177 120 195 139 195 c 4,47,48
128 155 m 4,55,-1
 128 155 l 4,56,-1
 128 155 l 4,57,-1
 128 155 l 4,58,-1
 128 155 l 4,55,-1
485 111 m 4,59,60
 502.149 111 512.629 99.6637 512.629 83.5256 c 0,0,0
 512.629 79.9012 512.1 76.0347 511 72 c 4,61,62
 505 52 484 34 463 34 c 4,63,64
 446.69 34 436.365 45.9714 436.365 61.236 c 0,0,0
 436.365 64.6889 436.893 68.3104 438 72 c 4,65,66
 444 94 465 111 485 111 c 4,59,60
474 72 m 4,67,-1
 474 72 l 4,68,-1
 474 72 l 4,69,-1
 474 72 l 4,70,-1
 474 72 l 4,67,-1
592 206 m 4,71,72
 607.474 206 617.642 194.724 617.642 178.655 c 0,0,0
 617.642 174.994 617.114 171.083 616 167 c 4,73,74
 610 146 590 131 571 131 c 4,75,76
 553.011 131 542.377 141.029 542.377 156.166 c 0,0,0
 542.377 159.541 542.906 163.171 544 167 c 4,77,78
 550 189 570 206 592 206 c 4,71,72
581 167 m 4,79,-1
 581 167 l 4,80,-1
 581 167 l 4,81,-1
 581 167 l 4,82,-1
 581 167 l 4,79,-1
667 476 m 4,83,84
 682.905 476 693.204 464.087 693.204 448.474 c 0,0,0
 693.204 445.436 692.814 442.258 692 439 c 4,85,86
 686 418 665 399 646 399 c 4,87,88
 628.227 399 618.285 411.401 618.285 427.239 c 0,0,0
 618.285 431.005 618.847 434.966 620 439 c 4,89,90
 625 459 645 476 667 476 c 4,83,84
657 439 m 4,91,-1
 657 439 l 4,92,-1
 657 439 l 4,93,-1
 657 439 l 4,94,-1
 657 439 l 4,91,-1
599 570 m 4,95,96
 616.989 570 627.623 557.297 627.623 541.185 c 0,0,0
 627.623 537.592 627.094 533.829 626 530 c 4,97,98
 620 510 600 493 578 493 c 4,99,100
 562.182 493 550.523 504.782 550.523 520.269 c 0,0,0
 550.523 523.384 550.995 526.65 552 530 c 4,101,102
 558 551 580 570 599 570 c 4,95,96
588 530 m 4,103,-1
 588 530 l 4,104,-1
 588 530 l 4,105,-1
 588 530 l 4,106,-1
 588 530 l 4,103,-1
662 339 m 4,107,108
 678.823 339 691.401 326.264 691.401 310.314 c 0,0,0
 691.401 307.303 690.953 304.177 690 301 c 4,109,110
 685 280 661 263 641 263 c 4,111,112
 625.095 263 614.796 274.913 614.796 291.113 c 0,0,0
 614.796 294.265 615.186 297.579 616 301 c 4,113,114
 622 321 643 339 662 339 c 4,107,108
651 301 m 4,115,-1
 651 301 l 4,116,-1
 651 301 l 4,117,-1
 651 301 l 4,118,-1
 651 301 l 4,115,-1
146 347 m 4,119,120
 163.149 347 173.629 334.997 173.629 318.614 c 0,0,0
 173.629 314.935 173.1 311.035 172 307 c 4,121,122
 167 287 146 270 125 270 c 4,123,124
 108.774 270 96.9237 282.399 96.9237 298.476 c 0,0,0
 96.9237 301.224 97.27 304.08 98 307 c 4,125,126
 104 329 127 347 146 347 c 4,119,120
135 307 m 4,127,-1
 135 307 l 4,128,-1
 135 307 l 4,129,-1
 135 307 l 4,130,-1
 135 307 l 4,127,-1
345 63 m 4,131,132
 361.723 63 372.105 52.2194 372.105 36.2131 c 0,0,0
 372.105 32.1196 371.426 27.6842 370 23 c 4,133,134
 365 3 345 -14 324 -14 c 4,135,136
 307.927 -14 296.863 -1.83391 296.863 14.0225 c 0,0,0
 296.863 16.9097 297.23 19.9192 298 23 c 4,137,138
 305 46 326 63 345 63 c 4,131,132
334 23 m 4,139,-1
 334 23 l 4,140,-1
 334 23 l 4,141,-1
 334 23 l 4,142,-1
 334 23 l 4,139,-1
496 611 m 4,143,144
 512.496 611 523.55 599.435 523.55 584.16 c 0,0,0
 523.55 580.916 523.051 577.504 522 574 c 4,145,146
 516 551 495 535 475 535 c 4,147,148
 457.851 535 447.371 545.669 447.371 562.108 c 0,0,0
 447.371 565.799 447.9 569.782 449 574 c 4,149,150
 455 594 475 611 496 611 c 4,143,144
486 574 m 4,151,-1
 486 574 l 4,152,-1
 486 574 l 4,153,-1
 486 574 l 4,154,-1
 486 574 l 4,151,-1
EndSplineSet
EndChar
StartChar: uni0E3F
Encoding: 223 3647 189
Width: 717
Flags: W
HStem: -11 43<45 72.4216> 347 65<352 418> 694 40<228 242>
DStem: 314 637 418 650 161 88 352 412 314 637 334 347 161 88 266 100 320 -11 411 -9 292 -118 379 -118 418 347 505 333 336 51 428 55 509 673 598 667 436 412 528 415 556 834 643 834 527 736 616 731
Fore
711 200 m 0
 711 200 l 0
 672 58 566 -8 411 -9 c 1
 379 -118 l 1
 292 -118 l 1
 320 -11 l 1
 34 -9 l 1
 45 32 l 1
 132 32 153 58 161 88 c 2
 314 637 l 2
 315.276 642.105 316.12 647.209 316.12 652.15 c 0
 316.12 674.312 299.139 693.182 228 694 c 1
 240 734 l 1
 278 734 478 736 527 736 c 1
 556 834 l 1
 643 834 l 1
 616 731 l 1
 722.381 731 783.946 695.927 783.946 611.125 c 0
 783.946 590.703 780.375 567.396 773 541 c 0
 746 445 688 399 616 381 c 1
 673.6 369.8 720.32 332.36 720.32 260.488 c 0
 720.32 242.52 717.4 222.4 711 200 c 0
436 412 m 1
 509 673 l 0
 495.308 673.761 483.159 674.328 472.537 674.328 c 0
 441.265 674.328 423.225 669.408 418 650 c 2
 352 412 l 1
 436 412 l 1
665 536 m 0
 665 536 l 0
 670.981 557.771 673.814 576.68 673.814 592.837 c 0
 673.814 643.411 646.056 667.018 600.198 667.018 c 0
 599.47 667.018 598.737 667.012 598 667 c 1
 528 415 l 1
 611 418 649 478 665 536 c 0
336 51 m 0
 418 347 l 0
 400 347 351 347 334 347 c 1
 266 100 l 2
 263.309 90.4329 260.708 81.2234 260.708 73.3067 c 0
 260.708 58.7499 269.503 48.5642 302.71 48.5642 c 0
 311.849 48.5642 322.837 49.3357 336 51 c 0
594 203 m 0
 598.216 218.058 600.296 232.189 600.296 245.183 c 0
 600.296 296.905 567.34 330.602 505 333 c 1
 428 55 l 1
 521 65 570 114 594 203 c 0
EndSplineSet
EndChar
StartChar: uni0E40
Encoding: 224 3648 190
Width: 321
Flags: W
HStem: -8 46<189 208> 143 43<230 248> 576 20G<245 343>
DStem: 245 596 343 596 113 118 230 186
Fore
343 596 m 5
 343 596 245 241 230 186 c 1
 233 186 241 187 244 187 c 0
 244 187 l 0
 296.308 187 318.96 155.91 318.96 118.558 c 0
 318.96 62.3648 267.692 -8 189 -8 c 0
 132.011 -8 107.323 31.6141 107.323 78.0136 c 0
 107.323 91.0495 109.271 104.621 113 118 c 1
 245 596 l 1
 343 596 l 5
208 38 m 0
 248.947 38 275.753 76.0734 275.753 106.367 c 0
 275.753 126.381 264.053 143 237 143 c 0
 197.07 143 170.683 104.567 170.683 74.205 c 0
 170.683 54.3823 181.93 38 208 38 c 0
EndSplineSet
EndChar
StartChar: uni0E41
Encoding: 225 3649 191
Width: 580
Flags: W
HStem: -8 45<189 206 446 464> 141 45<230 246 489 504> 576 20G<245 343 504 602>
DStem: 245 596 343 596 113 118 230 186 504 596 602 596 372 118 489 186
Fore
602 596 m 1
 602 596 504 243 489 186 c 1
 492 186 498 187 502 187 c 0
 502 187 l 0
 554.579 187 577.329 156.061 577.329 118.83 c 0
 577.329 62.5925 525.421 -8 446 -8 c 0
 390.658 -8 366.301 31.4924 366.301 77.7996 c 0
 366.301 90.9009 368.251 104.548 372 118 c 1
 504 596 l 1
 602 596 l 1
343 596 m 1
 343 596 245 243 230 186 c 1
 233 186 241 187 244 187 c 0
 244 187 l 0
 296.308 187 318.96 155.91 318.96 118.558 c 0
 318.96 62.3648 267.692 -8 189 -8 c 0
 132.011 -8 107.323 31.6141 107.323 78.0136 c 0
 107.323 91.0495 109.271 104.621 113 118 c 1
 245 596 l 1
 343 596 l 1
464 37 m 0
 464 37 l 0
 504.947 37 531.753 74.7108 531.753 104.716 c 0
 531.753 124.54 520.053 141 493 141 c 0
 452.561 141 425.965 103.114 425.965 73.0747 c 0
 425.965 53.3446 437.439 37 464 37 c 0
206 37 m 0
 246.439 37 273.035 74.8864 273.035 104.925 c 0
 273.035 124.655 261.561 141 235 141 c 0
 194.561 141 167.965 103.114 167.965 73.0747 c 0
 167.965 53.3446 179.439 37 206 37 c 0
EndSplineSet
EndChar
StartChar: uni0E42
Encoding: 226 3650 192
Width: 323
Flags: W
HStem: -8 45<224 242> 141 46<266 281> 897 74<315 351>
DStem: 167 831 239 854 304 742 393 750 310 691 407 690 148 118 266 186
Fore
581 905 m 0
 581 905 l 0
 549.903 854.053 517.93 839.442 489.426 839.442 c 0
 474.85 839.442 461.181 843.263 449 848 c 0
 399 868 345 897 315 897 c 0
 293 897 279 897 239 854 c 1
 393 750 l 2
 406.724 740.019 411.887 729.649 411.887 716.704 c 0
 411.887 708.898 410.009 700.157 407 690 c 1
 407 690 285 255 266 186 c 1
 270 187 276 187 279 187 c 0
 331.8 187 354.68 155.8 354.68 118.36 c 0
 354.68 62.2 303.2 -8 224 -8 c 0
 167.532 -8 142.434 31.9808 142.434 78.6568 c 0
 142.434 91.4955 144.333 104.841 148 118 c 1
 310 691 l 1
 312.535 700.189 313.564 708.174 313.564 714.953 c 0
 313.564 729.569 308.782 738.584 304 742 c 2
 167 831 l 1
 221 906 280 971 351 971 c 0
 392.692 971 467.81 912.503 520.693 912.503 c 0
 533.768 912.503 545.485 916.079 555 925 c 0
 564.366 934.366 573.898 939.421 580.49 939.421 c 0
 585.701 939.421 589.074 936.261 589.074 929.576 c 0
 589.074 923.952 586.687 915.833 581 905 c 0
242 37 m 0
 282.439 37 309.035 74.8864 309.035 104.925 c 0
 309.035 124.655 297.561 141 271 141 c 0
 230.053 141 203.247 103.289 203.247 73.2839 c 0
 203.247 53.4603 214.947 37 242 37 c 0
EndSplineSet
EndChar
StartChar: uni0E43
Encoding: 227 3651 193
Width: 345
Flags: W
HStem: -8 45<243 261> 141 45<285 300> 671 46<222 238> 794 48<262 272> 912 59<324 353>
DStem: 371 842 463 823 167 118 285 186
Fore
298 187 m 0
 298 187 l 0
 350.8 187 373.68 155.8 373.68 118.36 c 0
 373.68 62.2 322.2 -8 243 -8 c 0
 186.532 -8 161.434 31.9808 161.434 78.6568 c 0
 161.434 91.4955 163.333 104.841 167 118 c 1
 371 842 l 1
 372.752 848.849 373.565 855.292 373.565 861.284 c 0
 373.565 892.916 350.903 912 324 912 c 0
 284 912 238 894 211 817 c 1
 235 839 266 842 272 842 c 0
 316.852 842 336.34 815.059 336.34 782.564 c 0
 336.34 733.193 291.354 671 222 671 c 0
 171.195 671 154.303 709.877 154.303 754.65 c 0
 154.303 779.497 159.505 806.159 167 829 c 1
 197 908 263 971 353 971 c 0
 430.852 971 469.245 926.279 469.245 866.705 c 0
 469.245 852.817 467.159 838.123 463 823 c 1
 285 186 l 1
 288 186 295 187 298 187 c 0
263 794 m 0
 263 794 l 0
 237 794 218 777 213 756 c 0
 211.876 752.179 211.258 748.106 211.258 744.087 c 0
 211.258 730.222 218.619 717 238 717 c 0
 269.739 717 289.929 745.687 289.929 768.041 c 0
 289.929 782.311 281.702 794 263 794 c 0
261 37 m 0
 301.439 37 328.035 74.8864 328.035 104.925 c 0
 328.035 124.655 316.561 141 290 141 c 0
 249.053 141 222.247 103.289 222.247 73.2839 c 0
 222.247 53.4603 233.947 37 261 37 c 0
EndSplineSet
EndChar
StartChar: uni0E44
Encoding: 228 3652 194
Width: 370
Flags: W
HStem: -8 45<269 287> 141 43<310 316 310 325> 662 41<236 252> 925 46<411 441>
DStem: 217 909 291 920 174 754 237 723 318 868 384 902 278 723 342 750 420 902 504 871 195 118 310 184
Fore
325 187 m 0
 325 187 l 0
 377.087 187 399.61 156.172 399.61 119.03 c 0
 399.61 62.7601 347.913 -8 269 -8 c 0
 213.145 -8 189.186 31.1174 189.186 77.1389 c 0
 189.186 90.4417 191.188 104.321 195 118 c 1
 420 902 l 1
 421.143 905.714 421.714 909.184 421.714 912.245 c 0
 421.714 919.898 418.143 925 411 925 c 0
 397 925 387 912 384 902 c 2
 342 750 l 2
 329 702 296 662 236 662 c 0
 234.716 661.954 233.451 661.931 232.204 661.931 c 0
 190.223 661.931 169.694 687.718 169.694 723.622 c 0
 169.694 733.135 171.135 743.358 174 754 c 2
 217 909 l 2
 217.894 912.578 218.789 916.355 218.789 920.244 c 0
 218.789 925.05 217.422 930.025 213 935 c 0
 206 948 201 951 191 963 c 1
 188.254 967.76 187.049 972.42 187.049 976.752 c 0
 187.049 990.428 199.054 1000.84 212.442 1000.84 c 0
 217.975 1000.84 223.744 999.061 229 995 c 1
 279 965 l 2
 290.412 956.758 294.588 948.919 294.588 939.188 c 0
 294.588 933.569 293.196 927.321 291 920 c 2
 237 723 l 2
 236.565 721.695 236.361 720.349 236.361 719 c 0
 236.361 711.042 243.45 703 252 703 c 0
 261 703 275 713 278 723 c 2
 318 868 l 2
 334 926 375 971 441 971 c 0
 490.659 971 508.8 941.233 508.8 905.332 c 0
 508.8 894.241 507.068 882.565 504 871 c 1
 504 871 329 253 310 184 c 1
 313 184 319 187 325 187 c 0
287 37 m 0
 327.439 37 354.035 74.8864 354.035 104.925 c 0
 354.035 124.655 342.561 141 316 141 c 0
 275.561 141 248.965 103.114 248.965 73.0747 c 0
 248.965 53.3446 260.439 37 287 37 c 0
EndSplineSet
EndChar
StartChar: uni0E45
Encoding: 229 3653 195
Width: 289
Flags: W
DStem: 232 456 329 449 38 -246 136 -246
Fore
38 -246 m 1
 232 456 l 2
 234.538 464.884 235.729 473.045 235.729 480.477 c 0
 235.729 517.728 205.822 536.682 165.799 536.682 c 0
 125.719 536.682 75.4946 517.675 35 479 c 1
 15 505 l 1
 70.7684 561.69 152.665 593.951 219.765 593.951 c 0
 284.785 593.951 335.911 563.66 335.911 495.952 c 0
 335.911 481.928 333.718 466.298 329 449 c 2
 136 -246 l 1
 38 -246 l 1
EndSplineSet
EndChar
StartChar: uni0E46
Encoding: 230 3654 196
Width: 670
Flags: W
HStem: 255 37<404 417> 390 37<440 452>
DStem: 464 536 485 599 514 459 533 525 616 485 702 455 413 -246 508 -246
Fore
413 -246 m 1
 616 485 l 2
 616.747 487.989 617.092 490.888 617.092 493.671 c 0
 617.092 509.514 605.908 521.598 594 525 c 1
 514 459 l 1
 464 536 l 1
 429 515 394 476 381 395 c 1
 404 421 435 427 452 427 c 0
 497.415 425.805 516.961 398.265 516.961 365.56 c 0
 516.961 316.17 472.382 255 405 255 c 0
 348.361 255 330.325 294.471 330.325 344.561 c 0
 330.325 370.527 335.172 399.346 342 427 c 0
 355 478 396 559 485 599 c 1
 533 525 l 1
 620 599 l 1
 686.279 590.808 709.3 551.559 709.3 504.794 c 0
 709.3 488.763 706.595 471.849 702 455 c 2
 508 -246 l 1
 413 -246 l 1
415 292 m 0
 452.966 292 477.857 327.59 477.857 355.875 c 0
 477.857 374.525 467.034 390 442 390 c 0
 404.034 390 379.143 354.41 379.143 326.125 c 0
 379.143 307.475 389.966 292 415 292 c 0
EndSplineSet
EndChar
StartChar: uni0E47
Encoding: 231 3655 197
Width: 0
Flags: W
HStem: 656 49<18 32>
AnchorPoint: "AboveMark" -100.751 629.76 mark 0
AnchorPoint: "AboveBase" 51.5977 629.76 mark 0
Fore
216 1025 m 1
 216 1025 l 0
 183.3 910.083 102.591 887.692 42.3778 887.692 c 0
 38.1425 887.692 34.0086 887.803 30 888 c 0
 -5 889 -40 892 -79 895 c 0
 -81.128 895.183 -83.2615 895.274 -85.3962 895.274 c 0
 -134.783 895.274 -184.857 846.801 -184.857 778.6 c 0
 -184.857 769.402 -183.946 759.845 -182 750 c 1
 -164.736 780.44 -140.453 792.096 -116.843 792.096 c 0
 -88.4848 792.096 -61.0962 775.281 -48 754 c 1
 -48 754 -44.9704 749.456 -42.1739 749.456 c 0
 -40.426 749.456 -38.7692 751.231 -38 757 c 0
 -25.1121 813.509 25.1234 842.006 68.4951 842.006 c 0
 105.244 842.006 137.065 821.547 137.065 780.333 c 0
 137.065 772.059 135.782 762.949 133 753 c 4
 115 687 62 656 18 656 c 0
 -85 656 -82 736 -126 736 c 0
 -153.345 736 -170.305 703.689 -170.305 677.635 c 0
 -170.305 669.389 -168.606 661.77 -165 656 c 1
 -223 657 l 1
 -248.301 689.154 -259.432 725.823 -259.432 762.063 c 0
 -259.432 857.108 -182.873 949.209 -84.571 949.209 c 0
 -78.1354 949.209 -71.6066 948.815 -65 948 c 0
 -34 943 4 940 34 938 c 0
 35.8401 937.885 38.2488 937.757 41.0955 937.757 c 0
 63.0017 937.757 110.84 945.35 125 1025 c 1
 216 1025 l 1
30 705 m 0
 64.4753 705 87.2443 738.289 87.2443 764.6 c 0
 87.2443 781.789 77.5247 796 55 796 c 0
 21.0338 796 -1.52786 762.522 -1.52785 736.177 c 0
 -1.52785 719.088 7.96623 705 30 705 c 0
EndSplineSet
EndChar
StartChar: uni0E48
Encoding: 232 3656 198
Width: 0
Flags: W
DStem: 157 1227 250 1227 100 1021 193 1021
AnchorPoint: "AboveMark" 136.387 983.04 mark 0
Fore
250 1227 m 1
 193 1021 l 1
 100 1021 l 1
 157 1227 l 1
 250 1227 l 1
EndSplineSet
Substitution: 0 65534 'loww' uni0E48.low
Substitution: 0 65534 'amni' uni0E4D
EndChar
StartChar: uni0E49
Encoding: 233 3657 199
Width: 0
Flags: W
HStem: 1187 42<149 164>
AnchorPoint: "AboveMark" 228.675 983.04 mark 0
Fore
486 1229 m 1
 486 1229 l 0
 402.942 1017.86 207.811 991.105 104.532 991.105 c 0
 74.7605 991.105 52.6217 993.329 43 994 c 1
 52 1029 l 1
 92 1034 112 1052 125 1071 c 1
 126 1074 l 1
 126 1074 119.388 1071.8 108.682 1071.8 c 0
 106.898 1071.8 105 1071.86 103 1072 c 0
 72.537 1077.14 58.9124 1099.65 58.9124 1126.1 c 0
 58.9124 1171.71 99.4364 1229 164 1229 c 0
 217.365 1229 226.683 1196.39 226.683 1173.06 c 0
 226.683 1160.54 224 1150.7 224 1150 c 0
 204 1077 157 1043 157 1043 c 1
 156 1040 l 1
 157.249 1039.99 l 0
 173.184 1039.99 337.284 1044.51 401 1229 c 1
 486 1229 l 1
130 1109 m 0
 161.052 1109 181.049 1136.81 181.049 1159.22 c 0
 181.049 1174.34 171.948 1187 151 1187 c 0
 120.455 1187 100.672 1159.02 100.672 1136.58 c 0
 100.672 1121.55 109.545 1109 130 1109 c 0
EndSplineSet
Substitution: 0 65534 'loww' uni0E49.low
Substitution: 0 65534 'amni' uni0E4D
EndChar
StartChar: uni0E4A
Encoding: 234 3658 200
Width: 0
Flags: W
HStem: 986 35<38 50> 1089 35<65 77>
AnchorPoint: "AboveMark" 105.624 983.04 mark 0
Fore
403 1226 m 1
 403 1226 l 0
 377 1098 268 986 136 986 c 5
 146 1021 l 1
 194.797 1044.76 217.21 1095.31 217.21 1132.42 c 0
 217.21 1153.12 210.244 1169.63 197 1175 c 1
 134 1137 l 1
 86 1178 l 1
 54 1172 29 1130 26 1107 c 1
 28 1104 l 1
 28 1104 45 1124 77 1124 c 0
 108.386 1124 127.466 1107.16 127.466 1079.22 c 0
 127.466 1072.44 126.343 1065.01 124 1057 c 0
 112 1014 78 986 38 986 c 0
 -8.07743 986 -31.3316 1018.52 -31.3316 1065.47 c 0
 -31.3316 1080.67 -28.8926 1097.39 -24 1115 c 0
 -11 1160 44 1227 105 1232 c 1
 147 1183 l 1
 216 1232 l 1
 260.484 1217.17 276.598 1187.01 276.598 1154.33 c 0
 276.598 1118.69 257.432 1080.04 235 1055 c 1
 237 1054 l 1
 284 1080 327 1141 332 1226 c 1
 403 1226 l 1
48 1021 m 0
 74.5471 1021 91.9936 1045.75 91.9936 1065.39 c 0
 91.9936 1078.3 84.4529 1089 67 1089 c 0
 41.4709 1089 24.4395 1063.88 24.4395 1044.17 c 0
 24.4395 1031.46 31.5291 1021 48 1021 c 0
EndSplineSet
Substitution: 0 65534 'loww' uni0E4A.low
Substitution: 0 65534 'amni' uni0E4D
EndChar
StartChar: uni0E4B
Encoding: 235 3659 201
Width: 0
Flags: W
HStem: 1071 75<56 124 219 287>
DStem: 124 1071 198 1071 103 992 174 992 145 1147 219 1147 56 1146 308 1146 165 1226 242 1226 145 1147 219 1147
AnchorPoint: "AboveMark" 136.387 983.04 mark 0
Fore
287 1072 m 5
 198 1071 l 1
 174 992 l 1
 103 992 l 1
 124 1071 l 1
 35 1072 l 1
 56 1146 l 1
 145 1147 l 1
 165 1226 l 1
 242 1226 l 1
 219 1147 l 1
 308 1146 l 1
 287 1072 l 5
EndSplineSet
MinimumDistance: x6,11 x5,0 
Substitution: 0 65534 'loww' uni0E4B.low
Substitution: 0 65534 'amni' uni0E4D
EndChar
StartChar: uni0E4C
Encoding: 236 3660 202
Width: 0
Flags: W
HStem: 895 42<95 109>
AnchorPoint: "AboveMark" 94.7148 890.88 mark 0
Fore
359 1170 m 1
 359 1170 l 0
 308 1074 198 1055 173 1049 c 1
 172 1046 l 1
 189.895 1044.44 203.553 1028.36 203.553 1001.98 c 0
 203.553 994.461 202.441 986.1 200 977 c 0
 187 931 144 895 95 895 c 0
 53.2732 895 32.1514 922.044 32.1514 956.498 c 0
 32.1514 964.98 33.4317 973.912 36 983 c 0
 47 1023 88 1075 180 1092 c 0
 226 1101 266 1135 292 1192 c 1
 359 1170 l 1
107 937 m 0
 137.474 937 157.919 967.832 157.919 991.913 c 0
 157.919 1007.34 149.526 1020 130 1020 c 0
 97.4895 1020 76.2153 989.916 76.2153 965.972 c 0
 76.2153 950.145 85.5105 937 107 937 c 0
EndSplineSet
Substitution: 0 65534 'loww' uni0E4C.low
EndChar
StartChar: uni0E4D
Encoding: 237 3661 203
Width: 0
Flags: W
HStem: 673 54<61 76> 831 57<103 120>
AnchorPoint: "AboveMark" 48.668 629.76 mark 0
AnchorPoint: "AboveMark" 146.642 983.04 basemark 0
AnchorPoint: "AboveBase" 116.052 629.76 mark 0
Fore
61 673 m 4
 61 673 l 0
 6.623 673 -16.8763 706.871 -16.8763 747.725 c 0
 -16.8763 809.801 37.377 888 120 888 c 0
 173.885 888 197.158 854.248 197.158 813.489 c 0
 197.158 751.379 143.115 673 61 673 c 4
76 727 m 0
 116.726 727 143.104 764.304 143.104 794.229 c 0
 143.104 814.269 131.274 831 104 831 c 0
 63.2739 831 36.8957 793.696 36.8957 763.771 c 0
 36.8957 743.731 48.7261 727 76 727 c 0
EndSplineSet
Substitution: 0 65534 'G006' uni0E4B
Substitution: 0 65534 'G005' uni0E4A
Substitution: 0 65534 'G004' uni0E49
Substitution: 0 65534 'G003' uni0E48
EndChar
StartChar: uni0E4E
Encoding: 238 3662 204
Width: 0
Flags: W
AnchorPoint: "AboveBase" 85.2891 629.76 mark 0
Fore
243 909 m 1
 178.637 903.149 152.004 874.939 152.004 842.476 c 0
 152.004 836.103 153.031 829.565 155 823 c 1
 98 760 l 1
 83.8935 772.581 70.8045 777.459 59.6751 777.459 c 0
 41.6132 777.459 28.7125 764.612 25 751 c 0
 24.1605 748.062 23.7516 745.28 23.7516 742.668 c 0
 23.7516 726.617 39.1977 717 65 717 c 1
 20 662 l 1
 -20.974 662 -44.4878 689.533 -44.4878 725.339 c 0
 -44.4878 733.227 -43.3468 741.516 -41 750 c 0
 -23.9111 811.669 24.644 836.35 57.9069 836.35 c 0
 69.4128 836.35 79.0889 833.397 85 828 c 1
 88 831 l 1
 87.7291 833.33 87.5903 835.792 87.5903 838.365 c 0
 87.5903 883.278 129.882 962 250 962 c 1
 243 909 l 1
EndSplineSet
EndChar
StartChar: uni0E4F
Encoding: 239 3663 205
Width: 702
Flags: W
HStem: -14 79<348 372> 152 77<394 416> 364 77<453 474> 527 80<496 520>
Fore
730 296 m 0
 730 296 l 0
 683 126 507 -14 348 -14 c 0
 212.405 -14 123.979 81.7028 123.979 210.937 c 0
 123.979 238.011 127.859 266.555 136 296 c 0
 184 468 356 607 520 607 c 0
 651.648 607 742.164 511.709 742.164 381.294 c 0
 742.164 354.199 738.257 325.588 730 296 c 0
653 296 m 0
 653 296 l 0
 659.409 318.788 662.459 340.784 662.459 361.548 c 0
 662.459 457.41 597.458 527 498 527 c 0
 373 527 249 424 213 296 c 0
 206.755 273.339 203.757 251.41 203.757 230.673 c 0
 203.757 135.197 267.304 65 370 65 c 0
 491 65 618 169 653 296 c 0
569 296 m 0
 569 296 l 0
 547 217 466 152 394 152 c 0
 328.727 152 287.347 196.374 287.347 256.355 c 0
 287.347 268.969 289.177 282.273 293 296 c 0
 316 379 395 441 474 441 c 0
 533.302 441 574.966 398.94 574.966 337.729 c 0
 574.966 324.622 573.056 310.638 569 296 c 0
498 296 m 0
 499.743 302.448 500.574 308.713 500.574 314.664 c 0
 500.574 342.863 481.901 364 453 364 c 0
 418 364 379 333 369 296 c 0
 367.357 290.087 366.578 284.308 366.578 278.78 c 0
 366.578 250.652 386.749 229 416 229 c 0
 451 229 488 260 498 296 c 0
EndSplineSet
EndChar
StartChar: uni0E50
Encoding: 240 3664 206
Width: 615
Flags: W
HStem: -9 55<304 323> 430 60<425 444>
Fore
642 237 m 0
 642 237 l 0
 602 92 451 -9 306 -9 c 0
 179.728 -9 92.4318 60.4476 92.4318 171.305 c 0
 92.4318 192.136 95.5143 214.43 102 238 c 0
 142 384 294 490 444 490 c 0
 566.094 490 651.319 414.845 651.319 303.341 c 0
 651.319 282.422 648.319 260.222 642 237 c 0
541 238 m 0
 546.264 257.106 548.829 276.06 548.829 294.195 c 0
 548.829 369.079 505.089 430 427 430 c 0
 324 430 232 341 203 237 c 0
 197.722 218.149 195.18 199.618 195.18 181.956 c 0
 195.18 105.925 242.285 46 321 46 c 0
 417 46 515 144 541 238 c 0
EndSplineSet
EndChar
StartChar: uni0E51
Encoding: 241 3665 207
Width: 615
Flags: W
HStem: 98 53<314 332> 243 49<357 373> 427 57<420 442>
Fore
640 232 m 0
 640 232 l 0
 604 100 495 -8 370 -37 c 1
 318 -14 l 1
 481 32 522 149 546 233 c 0
 552.672 257.59 555.783 279.855 555.783 299.787 c 0
 555.783 384.419 499.7 427 422 427 c 0
 317 427 230 346 198 232 c 0
 191.045 206.636 187.959 183.913 187.959 163.858 c 0
 187.959 89.9206 229.916 52.2528 274.692 52.2528 c 0
 306.834 52.2528 340.429 71.6629 361 111 c 1
 342 100 327 98 314 98 c 0
 269.783 98 246.894 127.732 246.894 165.371 c 0
 246.894 174.549 248.255 184.198 251 194 c 0
 266 249 316 292 373 292 c 0
 427.309 292 451.778 256.895 451.778 209.956 c 0
 451.778 195.53 449.467 179.986 445 164 c 0
 414.454 53.0928 318.094 -6.35653 233.347 -6.35653 c 0
 156.487 -6.35653 89.1775 42.5424 89.1775 146.302 c 0
 89.1775 171.582 93.1732 200.12 102 232 c 0
 147 392 298 484 438 484 c 0
 555.429 484 650.02 416.911 650.02 300.822 c 0
 650.02 279.497 646.828 256.519 640 232 c 0
332 151 m 0
 367.492 151 390.68 184.293 390.68 210.823 c 0
 390.68 228.395 380.508 243 357 243 c 0
 322.016 243 299.038 209.529 299.038 182.965 c 0
 299.038 165.488 308.984 151 332 151 c 0
EndSplineSet
EndChar
StartChar: uni0E52
Encoding: 242 3666 208
Width: 615
Flags: W
HStem: -2 48<189 481> 86 43<313 325> 221 46<348 363>
DStem: 191 561 279 561 72 134 155 117
Fore
660 252 m 0
 660 252 l 0
 646 201 635 154 616 112 c 0
 588 49 560 -2 458 -2 c 2
 184 -2 l 2
 101.34 -2 65.6949 35.9991 65.6949 90.8055 c 0
 65.6949 104.291 67.8531 118.795 72 134 c 2
 191 561 l 2
 207.941 622.412 210.433 649.941 210.433 660.823 c 0
 210.433 665.356 210 667 210 667 c 1
 210 702.189 225.092 713.084 239.866 713.084 c 0
 249.444 713.084 258.887 708.506 264 703 c 1
 287 660 l 1
 287 660 290.978 652.962 290.978 633.806 c 0
 290.978 618.334 288.383 594.957 279 561 c 2
 155 117 l 2
 153.046 109.538 152.133 102.486 152.133 95.9348 c 0
 152.133 65.6107 171.685 46 198 46 c 2
 473 46 l 2
 505 46 520 71 528 91 c 0
 555.947 161.602 601.742 301.976 601.742 376.481 c 0
 601.742 403.283 595.816 421.561 581 425 c 0
 579.712 425.347 578.376 425.514 576.996 425.514 c 0
 550.508 425.514 508.01 363.771 489 321 c 0
 480.448 301.883 464.808 291.624 452.014 291.624 c 0
 440.703 291.624 431.615 299.643 431.615 316.65 c 0
 431.615 318.643 431.739 320.759 432 323 c 0
 433.371 333.697 434.367 346.577 434.367 359.533 c 0
 434.367 392.153 428.058 425.261 405.558 425.261 c 0
 404.414 425.261 403.229 425.176 402 425 c 0
 366 421 333 350 316 255 c 1
 327 263 348 267 363 267 c 0
 408.245 267 427.64 238.982 427.64 204.994 c 0
 427.64 152.593 381.542 86 313 86 c 0
 254.94 86 233.712 126.339 233.712 180.739 c 0
 233.712 184.431 233.809 188.187 234 192 c 0
 251.787 366.902 332.065 490.053 414.049 490.053 c 0
 415.033 490.053 416.016 490.036 417 490 c 0
 469 488 480 438 480 401 c 0
 480.2 400 480.28 398.96 480.28 397.936 c 0
 480.28 393.84 479 390 479 390 c 1
 482 390 l 1
 482 390 484 396 486 401 c 0
 509 438 554 490 606 490 c 0
 660.412 490 681.945 449.474 681.945 387.333 c 0
 681.945 348.975 673.74 302.381 660 252 c 0
323 129 m 0
 357.984 129 380.962 162.471 380.962 189.035 c 0
 380.962 206.512 371.016 221 348 221 c 0
 313.016 221 290.038 187.529 290.038 160.965 c 0
 290.038 143.488 299.984 129 323 129 c 0
EndSplineSet
EndChar
StartChar: uni0E53
Encoding: 243 3667 209
Width: 615
Flags: W
HStem: -8 49<183 198> 134 49<222 236> 424 64<318 335>
Fore
547 8 m 0
 496 -5 l 0
 490.929 -5.25353 485.28 -5.82846 480.014 -5.82846 c 0
 469.61 -5.82846 460.701 -3.58448 460.701 7.81501 c 0
 460.701 13.4042 462.843 21.1943 468 32 c 0
 542.702 179.07 576.873 291.739 576.873 357.882 c 0
 576.873 401.2 562.216 424.563 534.69 424.563 c 0
 532.229 424.563 529.665 424.376 527 424 c 0
 479 418 432 316 412 244 c 0
 408 229 402 218 396 194 c 0
 387.577 166.254 367.863 152.747 352.059 152.747 c 0
 339.506 152.747 329.421 161.268 329.421 177.946 c 0
 329.421 182.651 330.224 188.005 332 194 c 0
 338 217 343 229 346 243 c 0
 356.054 278.374 360.977 312.5 360.977 341.404 c 0
 360.977 390.122 346.989 424 320 424 c 0
 279 424 206 356 183 167 c 1
 195 174 215 183 236 183 c 0
 279.233 183 303.835 153.057 303.835 114.882 c 0
 303.835 106.258 302.58 97.2138 300 88 c 0
 286 35 236 -8 183 -8 c 0
 124 -8 92 35 89 92 c 0
 88.323 100.801 87.9832 110.018 87.9832 119.567 c 0
 87.9832 265.182 167.016 488 335 488 c 0
 397 488 416 432 420 402 c 1
 464 467 509 488 556 488 c 0
 631.035 488 664.149 439.129 664.149 361.125 c 0
 664.149 271.759 620.685 144.156 547 8 c 0
196 41 m 0
 231.203 41 254.617 75.2592 254.617 102.191 c 0
 254.617 119.632 244.797 134 222 134 c 0
 186.288 134 162.667 99.9276 162.667 73.0299 c 0
 162.667 55.4894 172.712 41 196 41 c 0
EndSplineSet
EndChar
StartChar: uni0E54
Encoding: 244 3668 210
Width: 615
Flags: W
HStem: 3 46<360 382> 421 66<473 487> 424 66<398 414>
Fore
776 659 m 0xc0
 776 659 l 0
 730 521 620 421 473 421 c 0xc0
 456 421 426 424 408 424 c 0
 301 424 232 332 209 252 c 0
 202.215 227.902 198.605 203.312 198.605 179.894 c 0
 198.605 107.017 233.568 45.491 316.615 45.491 c 0
 320.945 45.491 325.406 45.6583 330 46 c 0
 344 48 369 49 382 49 c 1
 338.307 81.9762 299.371 140.099 299.371 203.198 c 0
 299.371 216.638 301.137 230.304 305 244 c 0
 325.847 319.808 392.49 362.392 448.769 362.392 c 0
 451.881 362.392 454.961 362.262 458 362 c 0
 499.111 358.897 520.367 334.134 520.367 296.111 c 0
 520.367 285.115 518.589 273.01 515 260 c 0
 499.883 205.41 445.266 167.748 400.318 167.748 c 0
 391.747 167.748 383.527 169.117 376 172 c 1
 389.256 129.392 454.511 64.37 536.96 64.37 c 0
 541.588 64.37 546.27 64.5748 551 65 c 0
 557 65 576 68 582 68 c 0
 595.5 68 599.719 62.7969 599.719 56.293 c 0
 599.719 45.4531 588 31 588 31 c 1
 559 -2 l 1
 559 -2 469 0 384 3 c 0
 375.566 3.31827 368.068 3.45928 361.262 3.45928 c 0
 325.3 3.45928 308.634 -0.477412 275 -3 c 0
 271.329 -3.18985 267.682 -3.28459 264.061 -3.28459 c 0
 174.361 -3.28459 101.09 54.8609 101.09 165.371 c 0
 101.09 191.373 105.146 220.275 114 252 c 0
 159 413 292 490 414 490 c 0xa0
 451 490 458 487 485 487 c 0
 572 487 651 551 696 713 c 1
 765 688 l 2
 772.894 685.847 779.242 682.15 779.242 672.842 c 0
 779.242 669.179 778.259 664.648 776 659 c 0xc0
411 221 m 0
 446.712 221 470.333 254.706 470.333 281.315 c 0
 470.333 298.666 460.288 313 437 313 c 0
 401.797 313 378.383 279.109 378.383 252.467 c 0
 378.383 235.214 388.203 221 411 221 c 0
EndSplineSet
EndChar
StartChar: uni0E55
Encoding: 245 3669 211
Width: 615
Flags: W
HStem: 3 46<366 382> 421 49<452 480> 562 46<483 499>
Fore
776 660 m 0
 776 660 l 0
 730 519 612 422 480 421 c 0
 461 421 426 424 408 424 c 0
 301 424 232 333 209 253 c 0
 203.455 232.8 200.655 212.051 200.655 191.84 c 0
 200.655 114.14 242.036 44.3957 327.887 44.3957 c 0
 332.465 44.3957 337.169 44.594 342 45 c 0
 357 46 367 49 382 49 c 1
 330.383 82.3526 298.315 137.146 298.315 197.856 c 0
 298.315 213.596 300.47 229.735 305 246 c 0
 325.847 321.808 392.49 364.392 449.62 364.392 c 0
 452.779 364.392 455.909 364.262 459 364 c 0
 499.846 360.147 520.498 335.505 520.498 297.857 c 0
 520.498 286.655 518.669 274.301 515 261 c 0
 500.859 207.762 446.583 169.055 401.676 169.055 c 0
 392.598 169.055 383.903 170.637 376 174 c 1
 390.213 131.361 454.705 65.378 537.147 65.378 c 0
 541.711 65.378 546.331 65.5803 551 66 c 0
 557 66 576 69 582 69 c 0
 595.5 69 599.719 63.7969 599.719 57.293 c 0
 599.719 46.4531 588 32 588 32 c 1
 559 -2 l 1
 559 -2 470 0 386 3 c 0
 379.635 3.31827 373.497 3.45928 367.515 3.45928 c 0
 335.906 3.45928 308.634 -0.477412 275 -3 c 0
 271.367 -3.18793 267.756 -3.28168 264.171 -3.28168 c 0
 174.421 -3.28168 101.09 55.4902 101.09 166.282 c 0
 101.09 192.339 105.146 221.275 114 253 c 0
 157 407 276 476 373 488 c 1
 374 498 376 505 378 511 c 0
 394 570 445 608 499 608 c 0
 543.195 608 568.665 582.172 568.665 542.45 c 0
 568.665 532.739 567.143 522.198 564 511 c 0
 563 507 l 1
 606 530 665 590 695 714 c 1
 765 690 l 2
 773.414 687.897 779.861 683.827 779.861 674.688 c 0
 779.861 670.793 778.69 665.977 776 660 c 0
458 470 m 0
 458 470 l 0
 493.712 470 517.333 503.706 517.333 530.315 c 0
 517.333 547.666 507.288 562 484 562 c 0
 449.307 562 426.098 527.918 426.098 501.242 c 0
 426.098 484.09 435.693 470 458 470 c 0
411 221 m 0
 446.712 221 470.333 254.706 470.333 281.315 c 0
 470.333 298.666 460.288 313 437 313 c 0
 401.797 313 378.383 279.109 378.383 252.467 c 0
 378.383 235.214 388.203 221 411 221 c 0
EndSplineSet
EndChar
StartChar: uni0E56
Encoding: 246 3670 212
Width: 615
Flags: W
HStem: -9 54<292 320> 103 51<214 228> 246 52<249 266> 429 64<409 429> 690 20G<255 334>
Fore
632 238 m 0
 632 238 l 0
 593 97 474 -9 294 -9 c 0
 159.209 -9 107.665 56.8679 107.665 127.584 c 0
 107.665 209.536 176.891 298 266 298 c 0
 310.434 298 335.287 268.629 335.287 228.343 c 0
 335.287 218.763 333.882 208.566 331 198 c 0
 317 149 272 103 214 103 c 0
 207 103 202 104 198 104 c 1
 213 75 241 45 308 45 c 0
 409 45 507 132 536 238 c 0
 541.837 258.796 544.58 278.36 544.58 296.451 c 0
 544.58 377.53 489.488 429 411 429 c 0
 371 429 322 424 275 399 c 0
 270.936 396.849 265.33 395.554 259.423 395.554 c 0
 245.045 395.554 228.89 403.224 228.89 424.869 c 0
 228.89 431.528 230.419 439.511 234 449 c 1
 246.651 495.678 251.69 533.031 251.69 565.542 c 0
 251.69 607.556 243.275 641.483 232 677 c 0
 230.855 679.519 230.234 682.615 230.234 685.892 c 0
 230.234 696.923 237.267 710 255 710 c 2
 334 710 l 1
 337.979 696.295 341.567 670.081 341.567 635.938 c 0
 341.567 592.852 335.853 537.138 318 478 c 1
 349 488 394 493 429 493 c 0
 557.058 493 642.936 425.928 642.936 312.483 c 0
 642.936 289.501 639.412 264.616 632 238 c 0
226 154 m 0
 260.984 154 283.962 187.471 283.962 214.035 c 0
 283.962 231.512 274.016 246 251 246 c 0
 216.016 246 193.038 212.529 193.038 185.965 c 0
 193.038 168.488 202.984 154 226 154 c 0
EndSplineSet
EndChar
StartChar: uni0E57
Encoding: 247 3671 213
Width: 615
Flags: W
HStem: -6 47<165 179> 134 50<201 218>
Fore
759 682 m 0
 759 682 l 0
 759.414 673.516 759.617 664.854 759.617 656.035 c 0
 759.617 409.168 600.275 39.4135 440 -5 c 1
 440 -5 430.266 -6.56231 418.588 -6.56231 c 0
 401.082 -6.56231 379.21 -3.05193 379.21 14.4928 c 0
 379.21 19.0065 380.658 24.4492 384 31 c 1
 384 31 420 106 442 154 c 0
 488.746 259.71 505.299 329.302 505.299 371.318 c 0
 505.299 408.397 492.408 424 476 424 c 0
 438 424 398 367 384 332 c 0
 377 316 369 296 362 273 c 0
 354.951 255.377 339.788 246.374 327.236 246.374 c 0
 316.372 246.374 307.463 253.118 307.463 266.856 c 0
 307.463 268.768 307.636 270.816 308 273 c 1
 314 296 317 318 319 333 c 0
 319.767 338.979 320.157 345.264 320.157 351.62 c 0
 320.157 386.722 308.247 424 282 424 c 0
 252 424 183 372 160 164 c 1
 178 180 196 184 218 184 c 0
 260.603 184 285.754 155.137 285.754 117.209 c 0
 285.754 108.843 284.53 100.036 282 91 c 0
 268 38 219 -6 165 -6 c 0
 97.5477 -6 75.9662 42.7378 75.9662 99.1082 c 0
 75.9662 100.402 75.9776 101.699 76 103 c 0
 76 296 161 482 301 488 c 0
 302.009 488.055 303.013 488.082 304.012 488.082 c 0
 339.669 488.082 369.082 453.664 372 406 c 1
 402.155 453.664 453.127 488.082 489.939 488.082 c 0
 490.971 488.082 491.991 488.055 493 488 c 0
 549.996 485.307 577.183 442.131 577.183 375.736 c 0
 577.183 294.188 536.17 177.613 459 58 c 1
 473 61 492 84 502 97 c 0
 596.761 221.32 665.825 406.859 665.825 574.114 c 0
 665.825 599.245 664.266 623.964 661 648 c 1
 713 700 l 2
 723.784 710.784 734.328 719.886 742.629 719.886 c 0
 751.263 719.886 757.471 710.04 759 682 c 0
177 41 m 0
 212.203 41 235.617 75.2592 235.617 102.191 c 0
 235.617 119.632 225.797 134 203 134 c 0
 167.288 134 143.667 99.9276 143.667 73.0299 c 0
 143.667 55.4894 153.712 41 177 41 c 0
EndSplineSet
EndChar
StartChar: uni0E58
Encoding: 248 3672 214
Width: 615
Flags: W
HStem: -9 215<432 533> 298 52<557 573> 416 66<478 496.779>
Fore
763 651 m 0
 763 651 l 0
 717 518 596 416 478 416 c 0
 451 416 428 418 405 418 c 0
 291 418 219 336 194 246 c 0
 185.383 213.801 180.469 184.276 180.469 158.45 c 0
 180.469 127.329 187.605 101.581 204 83 c 1
 222 120 272 210 336 235 c 1
 385 227 l 1
 377.209 198.72 373.789 174.292 373.789 153.604 c 0
 373.789 93.8203 402.345 65.2695 436.479 65.2695 c 0
 472.4 65.2695 514.5 96.8881 536 157 c 1
 528.052 155.555 520.68 154.877 513.863 154.877 c 0
 466.066 154.877 445.579 188.209 445.579 224.17 c 0
 445.579 232.77 446.75 241.52 449 250 c 0
 467 313 519 350 573 350 c 0
 632.374 350 650.856 317.042 650.856 278.782 c 0
 650.856 268.068 649.406 256.938 647 246 c 0
 610 66 506 -9 432 -9 c 0
 383.403 -9 300.744 -2.88624 300.744 107.289 c 0
 300.744 115.005 301.149 123.23 302 132 c 1
 277 101 248 35 232 -11 c 1
 231.519 -11.0063 231.038 -11.0095 230.555 -11.0095 c 0
 168.169 -11.0095 85.2463 41.771 85.2463 160.401 c 0
 85.2463 186.126 89.1459 214.948 98 247 c 0
 144 409 277 487 397 487 c 0
 425 487 459 482 481 482 c 0
 558 482 641 554 680 708 c 1
 753 684 l 2
 760.143 681.143 766.265 675.735 766.265 665.589 c 0
 766.265 661.531 765.286 656.714 763 651 c 0
533 206 m 0
 568.712 206 592.333 239.706 592.333 266.315 c 0
 592.333 283.666 582.288 298 559 298 c 0
 523.797 298 500.383 264.109 500.383 237.467 c 0
 500.383 220.214 510.203 206 533 206 c 0
EndSplineSet
EndChar
StartChar: uni0E59
Encoding: 249 3673 215
Width: 615
Flags: W
HStem: -6 46<227 240> 132 49<266 280> 341 80<581 599>
Fore
799 656 m 0
 799 656 l 0
 752 447 672 341 581 341 c 0
 516 341 524 416 488 418 c 0
 487.713 418.017 487.429 418.025 487.146 418.025 c 0
 470.665 418.025 460.966 389.713 459 373 c 1
 460 362 471 338 473 330 c 0
 511 200 546 0 546 0 c 1
 473 0 l 2
 450 0 444 14 440 29 c 2
 440 29 410 180 384 275 c 0
 360.021 362.125 332.847 417.944 291.243 417.944 c 0
 280.798 417.944 269.443 414.425 257 407 c 0
 216.541 384.449 194.998 313.947 194.998 246.847 c 0
 194.998 212.781 200.551 179.592 212 154 c 1
 223 164 247 181 280 181 c 0
 322.146 181 347.213 154.066 347.213 115.107 c 0
 347.213 105.999 345.842 96.2328 343 86 c 0
 329 35 277 -6 227 -6 c 0
 186 -6 151 12 130 57 c 0
 109.443 96.7872 99.1102 145.589 99.1102 195.933 c 0
 99.1102 297.429 141.108 405.193 226 458 c 0
 242.735 467.414 276.975 481.203 314.988 481.203 c 0
 349.66 481.203 387.471 469.731 418 433 c 1
 434 461 471 482 502 482 c 0
 503.125 482.031 504.228 482.047 505.31 482.047 c 0
 573.483 482.047 557.656 421 599 421 c 0
 642 421 682 515 707 708 c 1
 790 680 l 2
 797.143 677.857 800.714 674.184 800.714 666.793 c 0
 800.714 663.837 800.143 660.286 799 656 c 0
240 40 m 0
 275.203 40 298.617 73.8909 298.617 100.533 c 0
 298.617 117.787 288.797 132 266 132 c 0
 230.288 132 206.667 98.294 206.667 71.6855 c 0
 206.667 54.3336 216.712 40 240 40 c 0
EndSplineSet
EndChar
StartChar: uni0E5A
Encoding: 250 3674 216
Width: 697
Flags: W
HStem: 542 56<263 278>
DStem: 439 432 583 594 314 -18 413 -18 668 594 766 594 498 -18 596 -18
Fore
413 -18 m 1
 314 -18 l 1
 439 432 l 1
 387.525 401.692 331.653 390.825 284.188 390.825 c 0
 232.987 390.825 191.568 403.47 176 418 c 0
 159.159 433.789 151.804 453.732 151.804 474.55 c 0
 151.804 532.845 209.472 598 278 598 c 0
 327.103 598 354.082 569.614 354.082 531.992 c 0
 354.082 511.383 345.987 488.004 329 465 c 1
 439 467 491 565 499 594 c 1
 583 594 l 1
 413 -18 l 1
596 -18 m 1
 498 -18 l 1
 668 594 l 1
 766 594 l 1
 596 -18 l 1
241 459 m 0
 272.493 459 293.349 489.444 293.349 513.457 c 0
 293.349 529.092 284.507 542 264 542 c 0
 232.507 542 211.651 511.556 211.651 487.543 c 0
 211.651 471.908 220.493 459 241 459 c 0
EndSplineSet
EndChar
StartChar: uni0E5B
Encoding: 251 3675 217
Width: 1233
Flags: W
HStem: 37 67<287 314> 198 85<314 342> 389 40<341 355> 562 68<397 420>
VStem: 985 48<112 548>
DStem: 707 441 773 611 681 69 747 270 847 372 907 554 830 63 890 273 876 554 847 372 747 270 712 69 1035 548 987 367 890 273 830 63 1135 492 1105 350 1033 295 985 112
Fore
1314 247 m 1
 1314 247 l 1
 1314 247 1300.49 261.819 1280.66 261.819 c 0
 1270.45 261.819 1258.57 257.893 1246 246 c 0
 1220.59 221.147 1193.66 203.92 1171.44 203.92 c 0
 1153.43 203.92 1138.51 215.242 1130 243 c 0
 1129 247 1111 329 1105 350 c 1
 985 112 l 1
 987 367 l 1
 830 63 l 1
 847 372 l 1
 712 69 l 1
 681 69 l 1
 707 441 l 1
 685 402 644 309 629 283 c 0
 518 86 395 37 287 37 c 0
 170.439 37 86.4337 118.722 86.4337 245.34 c 0
 86.4337 274.06 90.7557 305.09 100 338 c 0
 152 527 288 630 420 630 c 0
 538.841 630 585.83 563.104 585.83 481.961 c 0
 585.83 356.901 474.214 198 342 198 c 0
 277.154 198 237.276 234.136 237.276 293.095 c 0
 237.276 306.873 239.454 321.898 244 338 c 0
 257 387 304 429 355 429 c 0
 395.058 429 417.144 403.967 417.144 367.272 c 0
 417.144 358.165 415.784 348.34 413 338 c 0
 397.591 285.033 360.852 259.889 351.905 259.889 c 0
 351.561 259.889 351.259 259.926 351 260 c 1
 350 257 l 1
 350.887 256.974 351.775 256.961 352.662 256.961 c 0
 436.392 256.961 517.088 370.867 517.088 459.468 c 0
 517.088 515.859 484.4 562 399 562 c 0
 309 562 206 478 166 336 c 0
 158.943 310.745 155.646 287.007 155.646 265.068 c 0
 155.646 168.866 219.056 107.257 307 104 c 0
 379 104 484 149 570 303 c 0
 605 364 631 404 742 611 c 1
 773 611 l 1
 747 270 l 1
 876 554 l 1
 907 554 l 1
 890 273 l 1
 1035 548 l 1
 1033 295 l 1
 1135 492 l 1
 1159 347 1173 295 1173 295 c 2
 1176.43 277.294 1182.79 264.808 1194.51 264.808 c 0
 1203.31 264.808 1215.13 271.846 1231 289 c 0
 1251.69 310.552 1273.12 316.683 1290.81 316.683 c 0
 1314.17 316.683 1331 306 1331 306 c 1
 1314 247 l 1
370 336 m 0
 371.542 341.507 372.307 347.159 372.307 352.625 c 0
 372.307 371.976 362.714 389 344 389 c 0
 316 389 295 361 288 336 c 0
 286.245 329.418 285.404 323.173 285.404 317.434 c 0
 285.404 297.015 296.046 283 314 283 c 0
 338 283 362 306 370 336 c 0
EndSplineSet
EndChar
StartChar: uni0E38.low
Encoding: 252 63256 218
Width: 0
Flags: W
HStem: -392 40<-282 -264>
Fore
-199 -458 m 1
 -282 -458 l 1
 -264 -392 l 1
 -270 -392 -278 -392 -286 -392 c 0
 -325.853 -392 -343.153 -368.335 -343.153 -339.234 c 0
 -343.153 -295.315 -303.748 -239.015 -243 -233 c 5
 -240.256 -232.867 -237.568 -232.801 -234.939 -232.801 c 0
 -186.794 -232.801 -158.195 -254.993 -158.195 -296.714 c 0
 -158.195 -304.187 -159.112 -312.288 -161 -321 c 1
 -199 -458 l 1
-227 -313 m 0
 -226.029 -309.764 -225.582 -306.581 -225.582 -303.518 c 0
 -225.582 -287.647 -237.588 -275 -251 -275 c 0
 -275 -275 -294 -290 -301 -313 c 0
 -302.04 -316.987 -302.539 -320.763 -302.539 -324.283 c 0
 -302.539 -341.066 -291.186 -352 -273 -352 c 0
 -252 -352 -233 -336 -227 -313 c 0
EndSplineSet
EndChar
StartChar: uni0E39.low
Encoding: 253 63257 219
Width: 0
Flags: W
HStem: -476 54<-297 -285> -387 35<-385 -370> -275 35<-355 -343>
DStem: -222 -240 -138 -240 -266 -402 -176 -379
Fore
-176 -379 m 1
 -176 -379 l 0
 -191 -432 -233 -476 -293 -476 c 0
 -342.072 -476 -369.071 -453.257 -369.071 -416.524 c 0
 -369.071 -408.344 -367.732 -399.471 -365 -390 c 2
 -363 -384 l 1
 -369 -386 -375 -387 -383 -387 c 0
 -422.385 -386.598 -439.481 -362.777 -439.481 -334.425 c 0
 -439.481 -292.23 -401.615 -240 -343 -240 c 4
 -298.679 -240 -280.55 -259.643 -280.55 -291.674 c 0
 -280.55 -303.006 -282.819 -315.888 -287 -330 c 1
 -306 -402 l 2
 -306.775 -404.519 -307.137 -406.813 -307.137 -408.874 c 0
 -307.137 -417.45 -300.869 -422 -292 -422 c 0
 -281 -422 -270 -416 -266 -402 c 2
 -222 -240 l 1
 -138 -240 l 1
 -176 -379 l 1
-327 -313 m 0
 -325.949 -309.496 -325.45 -306.054 -325.45 -302.759 c 0
 -325.45 -287.246 -336.504 -275 -353 -275 c 0
 -377 -275 -394 -290 -401 -313 c 0
 -402.208 -317.631 -402.808 -321.978 -402.808 -325.968 c 0
 -402.808 -341.795 -393.369 -352 -375 -352 c 0
 -352 -352 -333 -336 -327 -313 c 0
EndSplineSet
EndChar
StartChar: uni0E3A.low
Encoding: 254 63258 220
Width: 0
Flags: W
Fore
-210 -335 m 0
 -241.582 -335 -255.264 -316.142 -255.264 -293.504 c 0
 -255.264 -259.513 -224.418 -217 -177 -217 c 0
 -148.662 -217 -136.599 -234.782 -136.599 -256.54 c 0
 -136.599 -290.832 -166.562 -335 -210 -335 c 0
EndSplineSet
EndChar
